<?xml version="1.0" encoding="UTF-8"?>
<!DOCTYPE svg PUBLIC "-//W3C//DTD SVG 1.1//EN" "http://www.w3.org/Graphics/SVG/1.1/DTD/svg11.dtd">
<svg version="1.1" xmlns="http://www.w3.org/2000/svg" xmlns:xlink="http://www.w3.org/1999/xlink" x="0" y="0" width="1573" height="820" viewBox="0, 0, 1573, 820">
  <defs>
    <linearGradient id="Gradient_1" gradientUnits="userSpaceOnUse" x1="1129.4" y1="347.703" x2="1573.014" y2="370.952">
      <stop offset="0" stop-color="#FFFFFE"/>
      <stop offset="1" stop-color="#1B1715"/>
    </linearGradient>
  </defs>
  <g id="Layer_1">
    <g>
      <path d="M1538.23,17.006 C1516.28,-10.748 1151.93,20.474 1151.93,20.474 L1081.69,40.129 C1081.69,40.129 63.251,316.449 36.913,339.572 C10.577,362.703 2.085,506.418 6.185,581.232 C10.286,656.047 10.577,775.471 129.099,812.469 C168.61,830.971 1520.67,733.851 1555.79,706.105 C1555.79,706.105 1560.17,44.752 1538.23,17.006" fill="#F4F4F1"/>
      <path d="M1538.23,17.006 C1516.28,-10.748 1151.93,20.474 1151.93,20.474 L1081.69,40.129 C1081.69,40.129 63.251,316.449 36.913,339.572 C10.577,362.703 2.085,506.418 6.185,581.232 C10.286,656.047 10.577,775.471 129.099,812.469 C168.61,830.971 1520.67,733.851 1555.79,706.105 C1555.79,706.105 1560.17,44.752 1538.23,17.006 z" fill-opacity="0" stroke="#8A8B8C" stroke-width="10.41"/>
      <path d="M25.853,670.015 C25.853,670.015 -5.392,375.666 49.03,350.976 C102.024,326.933 346.646,259.844 346.646,259.844 C346.646,259.844 94.597,364.752 75.319,419.08 C56.04,473.406 45.526,543.508 45.526,543.508 L25.853,670.015" fill="#DEDED9"/>
    </g>
    <path d="M65.314,770.394 C70.315,770.857 105.476,808.242 143.491,808.256 C348.843,808.326 361.319,807.681 1059.4,757.127 C1059.4,757.127 1448.43,721.974 1531.01,710.148 C1343.04,672.676 1302.86,633.029 1302.86,633.029 L58.374,770.394" fill="#C4C5C2"/>
    <path d="M27.472,703.293 L19.075,685.096 L1201.73,477.058 L1215.53,514.658 L27.472,703.293" fill="#DEDED9"/>
    <path d="M27.472,703.293 L19.075,685.096 L1201.73,477.058 L1215.53,514.658 L27.472,703.293" fill-opacity="0" stroke="#8A8B8C" stroke-width="3.47" stroke-linecap="round" stroke-linejoin="round"/>
    <path d="M1273.08,607.746 L55.368,758.351 C55.368,758.351 39.374,746.803 25.853,701.246 L1215.53,514.658 C1215.53,514.658 1247.4,585.068 1273.08,607.746" fill="#030605"/>
    <path d="M1555.52,704.703 C1350.89,706.605 1256.64,588.465 1256.64,588.465 C1170.18,488.017 1145.75,146.642 1146.25,26.14 L1220.25,16.814 C1220.25,16.814 1194.33,444.531 1288.97,568.816 C1288.97,568.816 1336.29,662.197 1555.52,704.703 z" fill="url(#Gradient_1)"/>
    <path d="M1555.52,704.703 C1350.89,706.605 1256.64,588.465 1256.64,588.465 C1170.18,488.017 1145.75,146.642 1146.25,26.14 L1220.25,16.814 C1220.25,16.814 1194.33,444.531 1288.97,568.816 C1288.97,568.816 1336.29,662.197 1555.52,704.703 z M1215.53,123.361 L1549.66,123.361 M189.321,741.781 C189.321,741.781 202.917,787.181 261.819,813.113 M955.534,646.627 C955.534,646.627 978.944,718.637 1080.34,759.789" fill-opacity="0" stroke="#8A8B8C" stroke-width="3.47"/>
    <path d="M1254.71,713.853 L1124.55,727.594 L1065.54,688.367 L1194.59,672.607 L1254.71,713.853" fill="#8A8B8C"/>
    <path d="M1254.71,713.853 L1124.55,727.594 L1065.54,688.367 L1194.59,672.607 L1254.71,713.853 z" fill-opacity="0" stroke="#8A8B8C" stroke-width="1.897"/>
    <path d="M1257.16,670.439 C1257.16,676.89 1251.92,682.131 1245.46,682.131 C1239,682.131 1233.76,676.89 1233.76,670.439 C1233.76,663.98 1239,658.734 1245.46,658.734 C1251.92,658.734 1257.16,663.98 1257.16,670.439" fill="#5DA747"/>
    <path d="M1293,691.517 C1293,697.969 1287.76,703.207 1281.31,703.207 C1274.85,703.207 1269.62,697.969 1269.62,691.517 C1269.62,685.051 1274.85,679.818 1281.31,679.818 C1287.76,679.818 1293,685.051 1293,691.517" fill="#DE8B39"/>
  </g>
</svg>
