<?xml version="1.0" encoding="utf-8"?><svg version="1.1" id="Layer_1" xmlns="http://www.w3.org/2000/svg" xmlns:xlink="http://www.w3.org/1999/xlink" x="0px" y="0px" viewBox="0 0 122.88 25.38" style="enable-background:new 0 0 122.88 25.38" xml:space="preserve"><g><path d="M59.97,0H38.31c-5.04,0-7.25,3.13-7.77,6.14V0H18.52c-1.69,0-2.49,0.52-3.29,1.69l-3.32,4.79h48.05V0L59.97,0z M122.39,6.48V0H98.55c-4.98,0-7.22,3.07-7.59,6.05c0,0.03,0,0.06,0,0.09V0l-7,0v6.48h6.97H122.39L122.39,6.48z M90.93,8.82l-7-0.4 v7.47c0,2.33-1.17,3.04-5.22,3.04h-5.59c-3.35,0-4.76-0.95-4.76-3.04V7.71l-7.1-0.52v9.28H61.1c-0.4-2.7-1.41-5.84-8.17-6.3 L30.72,8.69c0,3.41,2.43,5.44,6.24,5.84l15.48,1.57c1.23,0.09,2.12,0.46,2.12,1.47c0,1.11-0.92,1.23-2.33,1.23H30.44V8.69 l-7.1-0.46v17.14h28.91c6.45,0,8.51-3.35,8.82-6.14h0.15c0.8,4.42,4.67,6.14,11.21,6.14h7.22c7.65,0,11.27-2.33,11.27-7.8V8.82 L90.93,8.82z M113.45,10.14L91.24,8.82c0,3.41,2.24,5.68,6.05,5.99l15.82,1.23c1.23,0.09,1.97,0.4,1.97,1.41 c0,0.95-0.86,1.32-2.64,1.32H90.87v6.61h22.03c6.94,0,9.98-2.43,9.98-7.96C122.88,12.44,120.15,10.57,113.45,10.14L113.45,10.14z M61.25,6.48h7.1V0h-7.1V6.48L61.25,6.48z M0,25.38h8.63L19.45,7.93l-7.71-0.77L0,25.38L0,25.38z"/></g></svg>