<?xml version="1.0"?>
<svg xmlns:rdf="http://www.w3.org/1999/02/22-rdf-syntax-ns#" xmlns="http://www.w3.org/2000/svg" xmlns:cc="http://creativecommons.org/ns#" xmlns:dc="http://purl.org/dc/elements/1.1/" xmlns:svg="http://www.w3.org/2000/svg" id="svg2" viewBox="0 0 111 350" version="1.0">
  <g id="layer1" transform="translate(-305.45 -216.42)">
    <g id="g3180" stroke="#000" stroke-width="1.5" transform="translate(1.5 1.3)">
      <path id="path2396" fill-rule="evenodd" fill="#d7c6a0" d="m313.93 423.79c-0.81 11.06-2.82 25.72-3.57 36.79-1.12 16.47-1.66 38.49-2.15 55-0.31 10.71-3.88 25.47-0.71 35.71 0.27 0.88 0.95 2.1 1.79 2.5 1.55 0.74 4.16-1.09 5.71-0.36 0.83 0.4 1.16 1.83 1.79 2.5 4.41 5.12 9.12 7.34 15.71 7.5 2.18 0.06 5.06-0.77 7.14-1.42 1.79-0.57 4.11-1.55 5.72-2.5 1.05-0.63 2.12-1.95 3.21-2.5 2.63-0.85 5.09-2.5 7.86-2.5 0 0 2.63-0.51 3.57 0 1.02 0.54 1.72 2.13 2.14 3.21 0.2 3.03-0.12 5.36 3.22 5.36 0 0 3.51 0.22 5 0 1.44-0.22 3.76-0.9 4.64-1.43s1.43-1.43 1.43-1.43v-2.14s3.49 1.29 5 1.78c2.12 0.7 5.05 1.67 7.14 2.15 2.1 0.47 4.73 1.09 6.79 1.07 1.85-0.02 4.37-0.35 6.07-1.07 4.05-2.48 11.47-6.2 11.43-8.58-0.04-2.37 0.32-15.25 0.15-21.68-0.31-11.14-1.55-25.81-1.94-36.89-0.41-11.78-0.45-27.5-0.71-39.28-0.18-8.15-0.39-19.01-0.72-27.15-0.4-9.97-1.12-23.25-1.78-33.21-0.73-10.94-1.76-25.52-2.86-36.43-0.7-6.98-1.42-16.35-2.86-23.21-1.38-6.57-5.02-14.87-6.43-21.43-0.86-4.02-1.75-9.47-1.78-13.57-0.04-4.64 1.3-10.75 1.78-15.36 0.6-5.67 1.52-13.23 1.79-18.93 0.25-5.24 0.17-12.25 0-17.5-0.11-3.22-0.92-7.5-0.71-10.71 0.31-5.02 4.68-11.63 3.21-16.43-0.09-0.29-0.46-0.55-0.71-0.72-2.6-1.66-6.57-3.74-9.65-3.57-0.71 0.04-1.63 0.57-2.14 1.07-1.86 1.87-2.75 5.5-3.93 7.86-1.39 2.79-3.11 6.57-4.64 9.29-1.18 2.09-2.94 4.79-4.29 6.78-1.63 2.41-3.51 5.95-5.71 7.86-1.38 1.19-3.59 2.41-5.36 2.86-0.83 0.2-2.03 0.21-2.86 0-2.13-0.56-4.58-2.37-6.42-3.57-2.37-1.55-5.59-3.64-7.5-5.72-1.89-2.06-3.5-5.5-5-7.86-3.52-5.47-6.94-13.87-11.79-18.21-0.18-0.16-0.48-0.32-0.71-0.36-2.66-0.46-6.51-0.11-8.93 1.07-0.68 0.33-1.55 1.07-1.79 1.79-0.96 2.87 0.9 6.68 1.43 10s1.81 8.33 2.14 12.14c0.34 3.82 0 9.57 0 13.22 0 3.64-0.16 7.75 0 11.07 0.22 4.3 1.01 11.23 1.43 14.28s0.69 3.61 1.07 6.08c0.39 2.46 1.12 7.62 1.43 10.35 0.31 2.74 0.75 5.49 0.72 7.86-0.04 2.7-0.73 6.25-1.08 8.93-0.59 4.61-1.54 10.74-2.14 15.36-0.92 7.06-2.05 17.03-2.86 23.57-0.8 6.53-1.86 13.98-2.5 20-0.26 2.46-0.45 5.75-0.71 8.21-0.64 6.12-1.98 14.23-2.5 20.36-0.57 6.62-0.59 15.51-1.07 22.14z"/>
      <path id="path2398" fill="none" d="m371.79 305.93l1.78 106.79"/>
      <path id="path2400" fill="none" d="m354.64 317.72l-2.85 93.57"/>
      <path id="path2402" fill="none" d="m373.93 477.36l2.5 81.43"/>
      <path id="path2404" fill="none" d="m362.14 557.9l0.36-46.61"/>
      <path id="path2406" fill="none" d="m348.57 557.22l-1.07-34.29"/>
      <path id="path2408" fill="none" d="m314.64 553.43l1.07-35.35"/>
    </g>
  </g>
  <metadata>
    <rdf:RDF>
      <cc:Work>
        <dc:format>image/svg+xml</dc:format>
        <dc:type rdf:resource="http://purl.org/dc/dcmitype/StillImage"/>
        <cc:license rdf:resource="http://creativecommons.org/licenses/publicdomain/"/>
        <dc:publisher>
          <cc:Agent rdf:about="http://openclipart.org/">
            <dc:title>Openclipart</dc:title>
          </cc:Agent>
        </dc:publisher>
        <dc:title>Simples dress</dc:title>
        <dc:date>2009-10-05T22:46:41</dc:date>
        <dc:description>A simple dress.</dc:description>
        <dc:source>http://openclipart.org/detail/27684/simples-dress-by-laobc</dc:source>
        <dc:creator>
          <cc:Agent>
            <dc:title>laobc</dc:title>
          </cc:Agent>
        </dc:creator>
        <dc:subject>
          <rdf:Bag>
            <rdf:li>clip art</rdf:li>
            <rdf:li>clipart</rdf:li>
            <rdf:li>clothing</rdf:li>
            <rdf:li>image</rdf:li>
            <rdf:li>media</rdf:li>
            <rdf:li>public domain</rdf:li>
            <rdf:li>svg</rdf:li>
          </rdf:Bag>
        </dc:subject>
      </cc:Work>
      <cc:License rdf:about="http://creativecommons.org/licenses/publicdomain/">
        <cc:permits rdf:resource="http://creativecommons.org/ns#Reproduction"/>
        <cc:permits rdf:resource="http://creativecommons.org/ns#Distribution"/>
        <cc:permits rdf:resource="http://creativecommons.org/ns#DerivativeWorks"/>
      </cc:License>
    </rdf:RDF>
  </metadata>
</svg>
