<?xml version="1.0"?>
<svg xmlns:rdf="http://www.w3.org/1999/02/22-rdf-syntax-ns#" xmlns="http://www.w3.org/2000/svg" xmlns:cc="http://web.resource.org/cc/" xmlns:xlink="http://www.w3.org/1999/xlink" xmlns:dc="http://purl.org/dc/elements/1.1/" xmlns:svg="http://www.w3.org/2000/svg" id="svg2" viewBox="0 0 330.56 226.88" version="1.0">
  <defs id="defs4">
    <linearGradient id="linearGradient2917">
      <stop id="stop2919" stop-color="#ebee20" offset="0"/>
      <stop id="stop2921" stop-color="#ebee20" stop-opacity="0" offset="1"/>
    </linearGradient>
    <linearGradient id="linearGradient3070" y2="155.03" gradientUnits="userSpaceOnUse" x2="216.32" gradientTransform="translate(128.57 -8.7303)" y1="155.03" x1="207.04">
      <stop id="stop2899" stop-color="#551e1e" offset="0"/>
      <stop id="stop2901" stop-color="#551e1e" stop-opacity="0" offset="1"/>
    </linearGradient>
    <linearGradient id="linearGradient3072" y2="205.08" gradientUnits="userSpaceOnUse" x2="219.22" gradientTransform="translate(128.57 -8.7303)" y1="207.89" x1="198.36">
      <stop id="stop2879" stop-color="#a7561f" offset="0"/>
      <stop id="stop2881" stop-color="#a7561f" stop-opacity="0" offset="1"/>
    </linearGradient>
    <linearGradient id="linearGradient3074" y2="223.06" gradientUnits="userSpaceOnUse" x2="226.43" gradientTransform="translate(128.57 -8.7303)" y1="241.58" x1="183.27">
      <stop id="stop2909" stop-color="#6f4242" offset="0"/>
      <stop id="stop2911" stop-color="#6f4242" stop-opacity="0" offset="1"/>
    </linearGradient>
    <linearGradient id="linearGradient3076" y2="258.68" gradientUnits="userSpaceOnUse" y1="260.4" x2="105.58" x1="106.39">
      <stop id="stop2813" offset="0"/>
      <stop id="stop2815" stop-opacity="0" offset="1"/>
    </linearGradient>
    <linearGradient id="linearGradient3094" y2="94.862" gradientUnits="userSpaceOnUse" x2="214.01" gradientTransform="translate(128.57 -8.7303)" y1="101.04" x1="195.25">
      <stop id="stop2889" stop-color="#a15d31" offset="0"/>
      <stop id="stop2891" stop-color="#a15d31" stop-opacity="0" offset="1"/>
    </linearGradient>
    <radialGradient id="radialGradient3096" xlink:href="#linearGradient2917" gradientUnits="userSpaceOnUse" cy="259.95" cx="215.42" gradientTransform="matrix(1.5312 -.44103 .19885 .69037 -165.2 172.4)" r="19.923"/>
    <radialGradient id="radialGradient3098" xlink:href="#linearGradient2917" gradientUnits="userSpaceOnUse" cy="259.95" cx="215.42" gradientTransform="matrix(1.0335 -.35142 .18389 .54082 -54.105 191.97)" r="19.923"/>
  </defs>
  <g id="layer1" transform="translate(-187.66 -69.439)">
    <g id="g3039" transform="matrix(.96697 0 0 .88484 6.1977 7.9992)">
      <path id="path2873" d="m333 267.04s4.76 32.04 5.95 43.36c1.2 11.35 13.4 14.69 24.5 12.66 11-0.83 17.31-6.14 18.09-15.93-1.39-12.24-10.98-44.84-10.98-44.84s-18.49-3.48-23.16-2.14-14.4 6.89-14.4 6.89z" fill-rule="evenodd" stroke="#000" stroke-width=".66087px" fill="#a40"/>
      <path id="path2871" d="m393.14 198.06s71.56-36.68 94.26-49.64c23.37-13.35 56.69 0.9 34.12 18.97-33.36 26.69-107.94 57.16-107.94 57.16s-21.76-1.73-21.4-7.29 0.96-19.2 0.96-19.2z" fill-rule="evenodd" stroke="#000" stroke-width="1px" fill="#a40"/>
      <path id="path2869" d="m307.82 207.82s-77.84-35.76-82.25-37.28c-4.58-1.57-12.38-4.86-17.27-5.37-11.27-1.18-29.62 11.35-13.94 23.01 11 8.18 28.14 14.26 43.89 21.28 27.23 12.14 52.75 22.99 52.75 22.99s19.84-6.05 19.36-10.89c-0.49-4.85-2.54-13.74-2.54-13.74z" fill-rule="evenodd" stroke="#000" stroke-width=".87527px" fill="#a40"/>
      <path id="path1892" d="m334.78 268.32s4.76 32.58 4.89 43.91c0.1 9.87 12.68 14.86 23.78 12.83 11-0.83 17.31-6.14 18.09-15.93-1.39-12.24-10.98-44.84-10.98-44.84s-18.49-3.48-23.16-2.14-12.62 6.17-12.62 6.17z" fill-rule="evenodd" stroke="#000" stroke-width=".66087px" fill="#a40"/>
      <path id="path1894" d="m348.43 258.47l2.33 8s-11.63 1.55-9.93 4.48c0.6 1.02 1.8 1.35 2.58 1.55 2.72 0.68 4.38-0.92 6.71-0.09 2.57 0.93 1.37 2.36 2.53 3.82 0.62 0.78 2.81 2.02 3.78 1.81 4.14-0.89 2.47-3.7 3.23-4.17 1.72-1.08 6.94-1.19 9.31-2.01 1.54-0.53 0.75-2.2-1.15-2.96-1.64-0.67-2.74-1.02-4.06-1.19-2.96-0.38-5.93-0.99-5.93-0.99l-2.22-7.47-7.18-0.78z" fill-rule="evenodd" stroke="#000" stroke-width=".66087px" fill="#f60"/>
      <path id="path1878" d="m349.54 104.06l-13.93 1.85v82.63h18.57l-4.64-84.48z" fill-rule="evenodd" stroke="#000" stroke-width="1px" fill="#800000"/>
      <path id="path2895" d="m349.54 104.06l-13.93 1.85v82.63h18.57l-4.64-84.48z" fill="url(#linearGradient3070)" fill-rule="evenodd"/>
      <path id="path1874" d="m314.28 77.133l16.69 34.347s15.79 6.46 23.21 0.93c4.48-3.33 5.88-11.04 8.61-18.265 3.83-10.118 8.1-19.797 8.1-19.797s-33.61-11.53-56.61 2.785z" fill-rule="evenodd" stroke="#000" stroke-width="1px" fill="#d38d5f"/>
      <path id="path1876" d="m321.88 214.57s1.67-9.69 4.41-17.57c2.73-7.88 8.2-15.64 8.2-15.64s14.69-5.33 21.56 0.89c9 8.13 17.67 31.93 17.67 31.93s-24.88 10.77-51.84 0.39z" fill-rule="evenodd" stroke="#000" stroke-width=".92797px" fill="#f60"/>
      <path id="path2875" d="m321.88 214.57s1.67-9.69 4.41-17.57c2.73-7.88 8.2-15.64 8.2-15.64s14.69-5.33 21.56 0.89c9 8.13 17.67 31.93 17.67 31.93s-24.88 10.77-51.84 0.39z" fill="url(#linearGradient3072)" fill-rule="evenodd"/>
      <path id="path1882" d="m313.33 220.97c-0.82 3.81-1.88 16.77-1.33 19.76 5.33 29.07 70.94 19.43 76.78-1.7 0.16-0.59 0.68 0.45 0.91-2.16 0.16-1.84 0.18-7.41-0.16-8.31 3.75-24.83-57.51-29.93-76.2-7.59z" fill-rule="evenodd" stroke="#000" stroke-width="1px" fill="#f55"/>
      <path id="path2905" d="m313.33 220.97c-0.82 3.81-1.88 16.77-1.33 19.76 5.33 29.07 70.94 19.43 76.78-1.7 0.16-0.59 0.68 0.45 0.91-2.16 0.16-1.84 0.18-7.41-0.16-8.31 3.75-24.83-57.51-29.93-76.2-7.59z" fill="url(#linearGradient3074)" fill-rule="evenodd"/>
      <path id="path1880" d="m312.51 235.96c-1.37 6.36-0.25 10.4 2.28 14.13 3.37 4.96 9.35 8.75 16.5 10.58 14.47 3.71 33.32 2.39 46.1-3.46 7.99-3.65 12.11-9.88 12.14-14.82 4.8-14.7-17.91-22.17-40.42-20.94-14.47 0.78-29.68 6.15-36.6 14.51z" fill-rule="evenodd" stroke="#000" stroke-width="1px" fill="#f55"/>
      <path id="path1886" d="m393.88 201.2s70.47-37.19 92.89-50.64c19.58-11.75 45.04-4.36 41.66 10.94-2.33 8.14-3.01 10.04-16.28 18.63-15.99 7.76-97.54 48.14-97.54 48.14s-22.98-5.65-22.74-11.22c0.24-5.56 2.01-15.85 2.01-15.85z" fill-rule="evenodd" stroke="#000" stroke-width="1px" fill="#a40"/>
      <path id="path1884" d="m385.75 222.9l16.65-8.34s-9.88-9.59-1.48-9.18c7.62 0.38 7.68 2.12 11.39 3.22 3.19 0.94 5.3-0.58 8.72-1.49 1.86-0.49 2.92-0.06 3.4 0.8 0.86 1.5-1.05 4.47-1.54 5.7-1.86 4.64 10.21 10.24-1.86 8.36-1.02-0.16-2.54 1.75-3.39 0.71-4.86-5.91-8.33-3.56-8.33-3.56l-18.92 7.49-4.64-3.71z" fill-rule="evenodd" stroke="#000" stroke-width="1px" fill="#f60"/>
      <path id="path1888" d="m307.82 211.31s-63.47-29.03-83.74-39.68c-4.76-2.5-12.01-4.68-16.89-5.19-11.27-1.18-28.51 13.57-12.83 25.23 11 8.18 28.14 14.27 43.89 21.29 27.23 12.13 52.75 22.99 52.75 22.99s19.84-6.05 19.36-10.9c-0.49-4.84-2.54-13.74-2.54-13.74z" fill-rule="evenodd" stroke="#000" stroke-width=".87527px" fill="#a40"/>
      <path id="path1890" d="m316.51 229.34l-15.24-5.81s7.78-9.2 0.49-8.12c-6.61 0.99-6.52 2.51-9.65 3.78-2.71 1.1-4.67-0.03-7.74-0.53-1.66-0.27-2.55 0.2-2.9 0.99-0.61 1.38 1.31 3.8 1.85 4.83 1.53 2.92-2.42 5.47-0.66 6.14 0.95 0.35 0.47 1.61 3 0.96 10.37-2.66 9.97-3.49 9.97-3.49l17.15 4.88 3.73-3.63z" fill-rule="evenodd" stroke="#000" stroke-width=".87527px" fill="#f60"/>
      <path id="path1896" d="m108 259.36a2.6221 1.5057 0 1 1 -5.25 0 2.6221 1.5057 0 1 1 5.25 0z" transform="matrix(.80407 -.35834 .32969 .73630 116.83 74.689)" stroke="url(#linearGradient3076)" stroke-width=".7" fill="#faf40c"/>
      <path id="path2837" d="m108 259.36a2.6221 1.5057 0 1 1 -5.25 0 2.6221 1.5057 0 1 1 5.25 0z" transform="matrix(.80407 -.35834 .32969 .73630 128.84 66.619)" stroke="url(#linearGradient3076)" stroke-width=".7" fill="#faf40c"/>
      <path id="path2841" d="m108 259.36a2.6221 1.5057 0 1 1 -5.25 0 2.6221 1.5057 0 1 1 5.25 0z" transform="matrix(.89886 .44944 .41253 -.82505 202.87 378.89)" stroke="url(#linearGradient3076)" stroke-width=".7" fill="#faf40c"/>
      <path id="path2845" d="m108 259.36a2.6221 1.5057 0 1 1 -5.25 0 2.6221 1.5057 0 1 1 5.25 0z" transform="matrix(.89886 .44944 .41253 -.82505 216.51 387.49)" stroke="url(#linearGradient3076)" stroke-width=".7" fill="#faf40c"/>
      <path id="path2849" d="m108 259.36a2.6221 1.5057 0 1 1 -5.25 0 2.6221 1.5057 0 1 1 5.25 0z" fill-opacity=".96078" transform="matrix(.81140 .072409 -.074663 .66296 279.98 90.613)" stroke="url(#linearGradient3076)" stroke-width=".7" fill="#faf40c"/>
      <path id="path2851" d="m108 259.36a2.6221 1.5057 0 1 1 -5.25 0 2.6221 1.5057 0 1 1 5.25 0z" fill-opacity=".96078" transform="matrix(.82584 .080624 -.077689 .72206 295.91 74.665)" stroke="url(#linearGradient3076)" stroke-width=".7" fill="#faf40c"/>
      <path id="path2857" d="m108 259.36a2.6221 1.5057 0 1 1 -5.25 0 2.6221 1.5057 0 1 1 5.25 0z" fill-opacity=".96078" transform="matrix(.73191 .081663 -.068852 .73137 296.26 77.186)" stroke="url(#linearGradient3076)" stroke-width=".7" fill="#faf40c"/>
      <path id="path2861" d="m108 259.36a2.6221 1.5057 0 1 1 -5.25 0 2.6221 1.5057 0 1 1 5.25 0z" transform="matrix(.59052 -.28044 .24213 .57623 161.4 102.36)" stroke="url(#linearGradient3076)" stroke-width=".7" fill="#faf40c"/>
      <path id="path2865" d="m108 259.36a2.6221 1.5057 0 1 1 -5.25 0 2.6221 1.5057 0 1 1 5.25 0z" transform="matrix(.71725 .31702 .32472 -.57305 259.33 328.71)" stroke="url(#linearGradient3076)" stroke-width=".7" fill="#faf40c"/>
      <path id="path2885" d="m314.28 77.133l16.69 34.347s15.79 6.46 23.21 0.93c4.48-3.33 5.88-11.04 8.61-18.265 3.83-10.118 8.1-19.797 8.1-19.797s-33.61-11.53-56.61 2.785z" fill="url(#linearGradient3094)" fill-rule="evenodd"/>
      <path id="path2915" d="m241.88 253.49a19.923 7.0151 0 1 1 -39.85 0 19.923 7.0151 0 1 1 39.85 0z" fill="url(#radialGradient3096)" transform="matrix(.99969 -.024835 .024835 .99969 122.35 -3.7011)"/>
      <path id="path2925" d="m241.88 253.49a19.923 7.0151 0 1 1 -39.85 0 19.923 7.0151 0 1 1 39.85 0z" fill="url(#radialGradient3098)" transform="matrix(.99969 -.024835 .024835 .99969 122.35 -3.7011)"/>
    </g>
  </g>
  <metadata>
    <rdf:RDF>
      <cc:Work>
        <dc:format>image/svg+xml</dc:format>
        <dc:type rdf:resource="http://purl.org/dc/dcmitype/StillImage"/>
        <cc:license rdf:resource="http://creativecommons.org/licenses/publicdomain/"/>
        <dc:publisher>
          <cc:Agent rdf:about="http://openclipart.org/">
            <dc:title>Openclipart</dc:title>
          </cc:Agent>
        </dc:publisher>
        <dc:title>Fan</dc:title>
        <dc:date>2007-09-04T08:46:01</dc:date>
        <dc:description>appliance, appliance, clip art, clipart, electric, electric, fan, fan, image, media, office, office, png, public domain, svg, </dc:description>
        <dc:source>http://openclipart.org/detail/5174/fan-by-biswajyotim</dc:source>
        <dc:creator>
          <cc:Agent>
            <dc:title>biswajyotim</dc:title>
          </cc:Agent>
        </dc:creator>
        <dc:subject>
          <rdf:Bag>
            <rdf:li>appliance</rdf:li>
            <rdf:li>clip art</rdf:li>
            <rdf:li>clipart</rdf:li>
            <rdf:li>electric</rdf:li>
            <rdf:li>fan</rdf:li>
            <rdf:li>image</rdf:li>
            <rdf:li>media</rdf:li>
            <rdf:li>office</rdf:li>
            <rdf:li>png</rdf:li>
            <rdf:li>public domain</rdf:li>
            <rdf:li>svg</rdf:li>
          </rdf:Bag>
        </dc:subject>
      </cc:Work>
      <cc:License rdf:about="http://creativecommons.org/licenses/publicdomain/">
        <cc:permits rdf:resource="http://creativecommons.org/ns#Reproduction"/>
        <cc:permits rdf:resource="http://creativecommons.org/ns#Distribution"/>
        <cc:permits rdf:resource="http://creativecommons.org/ns#DerivativeWorks"/>
      </cc:License>
    </rdf:RDF>
  </metadata>
</svg>
