<?xml version="1.0"?>
<svg xmlns:rdf="http://www.w3.org/1999/02/22-rdf-syntax-ns#" xmlns="http://www.w3.org/2000/svg" xmlns:cc="http://web.resource.org/cc/" xmlns:xlink="http://www.w3.org/1999/xlink" xmlns:dc="http://purl.org/dc/elements/1.1/" xmlns:svg="http://www.w3.org/2000/svg" id="svg2" viewBox="0 0 400 400" version="1.0">
  <defs id="defs4">
    <filter id="filter16257">
      <feGaussianBlur id="feGaussianBlur16259" stdDeviation="0.41431294"/>
    </filter>
    <filter id="filter3497" y="-.11145" width="1.1728" height="1.2229" x="-.086395">
      <feGaussianBlur id="feGaussianBlur3499" stdDeviation="11.145"/>
    </filter>
    <linearGradient id="linearGradient2490" y2="275.2" gradientUnits="userSpaceOnUse" x2="322.26" gradientTransform="matrix(1.0228 0 0 1.0228 -6.1273 -1.9736)" y1="261.41" x1="280.28">
      <stop id="stop26776" stop-color="#fff" stop-opacity=".11224" offset="0"/>
      <stop id="stop26778" stop-color="#fff" stop-opacity=".89796" offset="1"/>
    </linearGradient>
    <linearGradient id="linearGradient2500" y2="12.597" gradientUnits="userSpaceOnUse" x2="138.87" gradientTransform="matrix(1.0228 0 0 1.0228 -6.1273 -1.9736)" y1="126.95" x1="159.39">
      <stop id="stop4453" stop-color="#fffbfb" stop-opacity=".82653" offset="0"/>
      <stop id="stop4455" stop-opacity="0" offset="1"/>
    </linearGradient>
    <linearGradient id="linearGradient2777" y2="285.25" gradientUnits="userSpaceOnUse" x2="313.75" gradientTransform="matrix(1.0228 0 0 1.0228 -6.1273 -1.9736)" y1="161.5" x1="136.5">
      <stop id="stop17247" stop-color="#ffefef" stop-opacity=".58163" offset="0"/>
      <stop id="stop17249" stop-color="#ffefef" stop-opacity=".14286" offset="1"/>
    </linearGradient>
    <radialGradient id="radialGradient3763" gradientUnits="userSpaceOnUse" cy="209.17" cx="170.31" gradientTransform="matrix(1.0744 -.88115 .89487 1.0911 -193.9 134.77)" r="104.54">
      <stop id="stop3759" stop-color="#70ffea" offset="0"/>
      <stop id="stop3761" stop-color="#0055f6" offset="1"/>
    </radialGradient>
  </defs>
  <g id="layer1">
    <g id="g2491">
      <path id="path2486" d="m183 323l-130-27-52-146 195-54 59 141-72 86z" fill-rule="evenodd" transform="matrix(.97473 0 0 .97473 8.1233 4.8259)" filter="url(#filter3497)" stroke="#000" stroke-width="1px" fill="#1a1a1a"/>
      <path id="path5140" d="m103.95 273.26l8.88 4.87 17.32-11.46-8.69-4.58-17.51 11.17z" stroke="#000" stroke-width="1.0228px" fill="none"/>
      <path id="path5128" d="m156.01 239.64l8.59 4.22 15.55-10.14-8.61-4.08-15.53 10z" stroke="#000" stroke-width="1.0228px" fill="none"/>
      <path id="path5132" d="m171.6 229.61l8.49 4.01 14.99-9.95-8.4-3.83-15.08 9.77z" stroke="#000" stroke-width="1.0228px" fill="none"/>
      <path id="path5130" d="m186.54 219.85l8.61 3.92 12.81-8.47-8.43-3.73-12.99 8.28z" stroke="#000" stroke-width="1.0228px" fill="none"/>
      <path id="path5134" d="m199.54 211.55l8.47 3.75 11.6-7.81-8.17-3.51-11.9 7.57z" stroke="#000" stroke-width="1.0228px" fill="none"/>
      <path id="path5136" d="m211.48 203.99l8 3.44 11.65-7.41-7.67-3.76-11.98 7.73z" stroke="#000" stroke-width="1.0228px" fill="none"/>
      <path id="path2172" stroke-linejoin="round" d="m68.308 278.6l165.04 96.41 159.75-155.46-143-53.43-181.79 112.48z" fill-rule="evenodd" stroke="#333" stroke-linecap="round" stroke-width=".81824"/>
      <path id="path16273" d="m277.7 176.51c-100.4 58.92-38.1 45.44-175.99 121.07l87.77 51.81c83.78-25.6 176.93-74.41 165.6-144.16l-59.51-22.11-17.87-6.61z" fill="url(#linearGradient2777)" fill-rule="evenodd"/>
      <path id="path2174" stroke-linejoin="round" d="m68.172 278.57l0.131 13.22 164.28 99.39c3.25-1.75 4.65-12.08 1.05-16.18l-165.46-96.43z" fill-rule="evenodd" stroke="#333" stroke-linecap="round" stroke-width=".81824"/>
      <path id="path2176" stroke-linejoin="round" d="m393.08 219.63c0.98 3.03 2.03 9.63-0.84 12.35l-159.4 158.94c4.22-4.83 2.92-10.44 0.79-16.18l159.45-155.11z" fill-rule="evenodd" stroke="#333" stroke-linecap="round" stroke-width=".81824"/>
      <path id="path2178" stroke-linejoin="round" d="m34.974 77.099s28.455 202.73 30.563 200.57 183.9-113.04 183.9-113.04l0.53-155.84-215 68.309z" fill-rule="evenodd" stroke="#333" stroke-linecap="round" stroke-width=".81824" fill="#1a1a1a"/>
      <path id="path2182" stroke-linejoin="round" d="m243.63 7.361c5.02-1.4087 4.9 0.5064 6.31 1.4342l-214.97 67.777c-1.929-1.724-2.738-1.02-7.072-0.887l215.73-68.324z" fill-rule="evenodd" stroke="#333" stroke-linecap="round" stroke-width=".81824" fill="#1a1a1a"/>
      <path id="path3155" stroke-linejoin="round" d="m41.128 89.516l205.92-67.659-1.48 133.18-178.68 107.9-25.762-173.42z" fill-rule="evenodd" stroke="#000" stroke-width="1.0228px" fill="url(#radialGradient3763)"/>
      <path id="path4130" d="m270.3 173.9l-178.24 117.98-8.996-5.03 179.48-116.03 7.76 3.08z" stroke="#999" stroke-width="1.0228px" fill="none"/>
      <path id="path5126" opacity=".3" d="m113.88 277.35l19.54-12.78-19.54 12.78z" stroke="#000" stroke-width="1.0228px" fill="none"/>
      <path id="rect2179" opacity=".89" stroke-linejoin="round" d="m260.56 282.16l38.78-32.43c2.23-1.86 6.91-2.09 10.55-0.52 0 0 19.51 8.7 19.51 8.7 3.88 1.67 5.36 4.65 3.28 6.68l-35.86 34.69c-2.48 2.43-7.85 2.79-11.98 0.78l-22.13-10.54c-3.85-1.87-4.79-5.15-2.15-7.36v0" stroke="#000" stroke-linecap="round" stroke-width=".97446" fill="#999"/>
      <path id="path5322" opacity=".9972" stroke-linejoin="round" d="m156.31 239.62c2.54-1.95 8.94 1.78 8.57 4.12l-8.57-4.12z" fill-rule="evenodd" stroke="#000" stroke-linecap="round" stroke-width=".20456" fill="#666"/>
      <path id="path6299" stroke-linejoin="round" d="m112.55 278.27l17.52-11.66c-1.47-3-4.21-5.16-8.6-4.76l-17.42 11.44c3.03-2.08 8.94 2.52 8.5 4.98z" fill-rule="evenodd" stroke="#000" stroke-width=".20456" fill="#808080"/>
      <path id="path4349" opacity=".69" stroke-linejoin="round" d="m104.03 273.3c3.47-2.24 9.4 3.31 8.49 5.06l-8.49-5.06z" stroke="#000" stroke-linecap="round" stroke-width=".20456" fill="none"/>
      <path id="path8239" stroke-linejoin="round" d="m164.84 243.75l14.8-9.78c-0.75-2.81-2.97-4.64-8.22-4.18l-15.15 9.84c2.68-2.12 9.3 2.13 8.57 4.12z" fill-rule="evenodd" stroke="#000" stroke-width=".20456" fill="#4d4d4d"/>
      <path id="path8241" stroke-linejoin="round" d="m179.54 233.99l14.96-9.75c-1.03-2.91-3.53-4.8-8.53-3.95l-15.12 9.82c3.03-1.33 8.2 0.34 8.69 3.88z" fill-rule="evenodd" stroke="#000" stroke-width=".20456" fill="#4d4d4d"/>
      <path id="path8243" stroke-linejoin="round" d="m194.44 224.23l13.26-8.83c-1.73-2.69-3.9-3.81-8.24-3.67l-13.56 8.58c3.2-0.75 7.73 0.35 8.54 3.92z" fill-rule="evenodd" stroke="#000" stroke-width=".20456" fill="#4d4d4d"/>
      <path id="path8245" stroke-linejoin="round" d="m207.75 215.39l11.59-7.72c-2-2.5-4.29-3.56-8.06-3.55l-11.87 7.62c3.33-0.3 6.4 0.66 8.34 3.65z" fill-rule="evenodd" stroke="#000" stroke-width=".20456" fill="#4d4d4d"/>
      <path id="path8247" stroke-linejoin="round" d="m219.3 207.7l11.73-7.73c-1.48-3.46-4.4-4.07-7.73-3.78l-12.26 8.07c2.97-0.33 5.63 0.16 8.26 3.44z" fill-rule="evenodd" stroke="#000" stroke-width=".20456" fill="#4d4d4d"/>
      <path id="rect2202" d="m221.69 286.68l50.09-40.3c0.61-0.48 1.85-0.49 2.79-0.02l7.66 3.76c0.95 0.48 1.25 1.25 0.66 1.74l-49.34 41.46c-0.74 0.61-2.16 0.64-3.18 0.07l-8.22-4.62c-1.01-0.56-1.21-1.49-0.46-2.09" fill="#808080"/>
      <path id="path2449" d="m219.03 288.29l11.37 6.46-8.37 7.05-11.55-6.52 8.55-6.99z" fill-rule="evenodd" stroke="#000" stroke-width="1.0228px" fill="#f0f"/>
      <path id="path2451" d="m209.42 296.08l11.66 6.48-8.7 7.31-11.36-7.02 8.4-6.77z" fill-rule="evenodd" stroke="#000" stroke-width="1.0228px" fill="#f0f"/>
      <path id="path2453" d="m200.12 303.55l11.37 7-8.95 7.45-11.94-6.82 9.52-7.63z" fill-rule="evenodd" stroke="#000" stroke-width="1.0228px" fill="#f0f"/>
      <path id="path2455" d="m189.71 311.96l11.98 6.82-10.98 9.27-12.18-6.97 11.18-9.12z" fill-rule="evenodd" stroke="#000" stroke-width="1.0228px" fill="#f0f"/>
      <path id="path2457" d="m273.68 244.43l10.51 5.2 7.97-6.6-10.56-4.92-7.92 6.32z" fill-rule="evenodd" stroke="#000" stroke-width="1.0228px" fill="#f0f"/>
      <path id="path2459" d="m282.59 237.36l7.55-6.09 10.8 4.62-7.85 6.37-10.5-4.9z" fill-rule="evenodd" stroke="#000" stroke-width="1.0228px" fill="#f0f"/>
      <path id="path2461" d="m291.16 230.49l10.71 4.63 7.5-6.25-10.34-4.78-7.87 6.4z" fill-rule="evenodd" stroke="#000" stroke-width="1.0228px" fill="#f0f"/>
      <path id="path2463" d="m289.94 230.02l-9-4.46 8.1-6.3 8.92 4.33-8.02 6.43z" fill-rule="evenodd" stroke="#000" stroke-width="1.0228px" fill="#f0f"/>
      <path id="path2465" d="m177.42 320.42l-10.93-6.16 22.24-17.02 10.3 5.67-21.61 17.51z" fill-rule="evenodd" stroke="#000" stroke-width="1.0228px" fill="#f0f"/>
      <path id="path2467" d="m290.08 218.44l8.78 4.3 21.02-16.98-9.1-3.56-20.7 16.24z" fill-rule="evenodd" stroke="#000" stroke-width="1.0228px" fill="#f0f"/>
      <path id="path2469" d="m298.09 210.76l11.54-9.06-21.59-8.38-14.4 10.64 9.83 3.94 2.72-2.09 11.9 4.95z" fill-rule="evenodd" stroke="#000" stroke-width="1.0228px" fill="#f0f"/>
      <path id="path2471" d="m286.62 192.75l-19.71 14.64-9.32-3.98 20.15-14.08 8.88 3.42z" fill-rule="evenodd" stroke="#000" stroke-width="1.0228px" fill="#f0f"/>
      <path id="path2473" d="m165.36 313.64l19.11-14.65-12.14-6.4-19.14 14.25 12.17 6.8z" fill-rule="evenodd" stroke="#000" stroke-width="1.0228px" fill="#f0f"/>
      <path id="path2475" d="m151.96 306.24l15.13-11.3-10.99-5.92-15.21 10.89 11.07 6.33z" fill-rule="evenodd" stroke="#000" stroke-width="1.0228px" fill="#f0f"/>
      <path id="path2477" d="m139.75 299.33l11.11-7.99-10.51-5.8-10.99 7.89 10.39 5.9z" fill-rule="evenodd" stroke="#000" stroke-width="1.0228px" fill="#f0f"/>
      <path id="path2497" d="m141.45 284.84l9.04-6.41 10.44 5.48-9.13 6.68-10.35-5.75z" fill-rule="evenodd" stroke="#000" stroke-width="1.0228px" fill="#f0f"/>
      <path id="path2499" d="m200.07 302.08l8.24-6.58-10.67-5.44-7.96 6.38 10.39 5.64z" fill-rule="evenodd" stroke="#000" stroke-width="1.0228px" fill="#f0f"/>
      <path id="path2501" d="m185.44 298.2l8.42-6.61-11.9-6.34-8.49 6.38 11.97 6.57z" fill-rule="evenodd" stroke="#000" stroke-width="1.0228px" fill="#f0f"/>
      <path id="path2503" d="m168.25 294.18l8.45-6.41-11.05-5.85-8.45 6.28 11.05 5.98z" fill-rule="evenodd" stroke="#000" stroke-width="1.0228px" fill="#f0f"/>
      <path id="path2505" d="m151.56 277.72l8.8-6.09 10.2 5.38-8.61 6.18-10.39-5.47z" fill-rule="evenodd" stroke="#000" stroke-width="1.0228px" fill="#f0f"/>
      <path id="path2507" d="m177.75 287.01l8.49-6.55-10.7-5.52-8.9 6.28 11.11 5.79z" fill-rule="evenodd" stroke="#000" stroke-width="1.0228px" fill="#f0f"/>
      <path id="path2509" d="m161.45 270.89l8.6-6.06 10.15 5.24-8.52 6.18-10.23-5.36z" fill-rule="evenodd" stroke="#000" stroke-width="1.0228px" fill="#f0f"/>
      <path id="path2511" d="m194.72 290.9l8.62-6.74-11.83-6.08-8.49 6.38 11.7 6.44z" fill-rule="evenodd" stroke="#000" stroke-width="1.0228px" fill="#f0f"/>
      <path id="path2513" d="m209.45 294.74l8.56-7-10.51-5.3-8.8 6.72 10.75 5.58z" fill-rule="evenodd" stroke="#000" stroke-width="1.0228px" fill="#f0f"/>
      <path id="path2515" d="m219.03 287l8.92-7.16-10.37-5.17-9.04 6.95 10.49 5.38z" fill-rule="evenodd" stroke="#000" stroke-width="1.0228px" fill="#f0f"/>
      <path id="path2517" d="m229.01 279.06l7.63-5.97-10.45-5.07-7.6 5.86 10.42 5.18z" fill-rule="evenodd" stroke="#000" stroke-width="1.0228px" fill="#f0f"/>
      <path id="path2519" d="m237.61 272.25l8.51-6.76-10.3-4.98-8.58 6.68 10.37 5.06z" fill-rule="evenodd" stroke="#000" stroke-width="1.0228px" fill="#f0f"/>
      <path id="path2521" d="m246.93 264.7l8.39-6.67-10.11-4.83-8.41 6.52 10.13 4.98z" fill-rule="evenodd" stroke="#000" stroke-width="1.0228px" fill="#f0f"/>
      <path id="path2523" d="m256.25 257.31l7.75-6.17-10.08-4.64-7.68 5.97 10.01 4.84z" fill-rule="evenodd" stroke="#000" stroke-width="1.0228px" fill="#f0f"/>
      <path id="path2525" d="m264.94 250.38l6.85-5.81-9.65-4.5-7.26 5.68 10.06 4.63z" fill-rule="evenodd" stroke="#000" stroke-width="1.0228px" fill="#f0f"/>
      <path id="path2527" d="m272.68 243.8l7.77-6.18-9.55-4.3-7.72 5.98 9.5 4.5z" fill-rule="evenodd" stroke="#000" stroke-width="1.0228px" fill="#f0f"/>
      <path id="path2529" d="m281.41 236.85l7.51-6.01-9.06-4.43-7.82 6.04 9.37 4.4z" fill-rule="evenodd" stroke="#000" stroke-width="1.0228px" fill="#f0f"/>
      <path id="path2531" d="m171.19 264.05l9.34-6.54 9.73 5.06-8.93 6.79-10.14-5.31z" fill-rule="evenodd" stroke="#000" stroke-width="1.0228px" fill="#f0f"/>
      <path id="path2533" d="m181.56 256.75l8.6-6.07 9.45 5.16-8.38 5.89-9.67-4.98z" fill-rule="evenodd" stroke="#000" stroke-width="1.0228px" fill="#f0f"/>
      <path id="path2535" d="m191.14 249.97l8.99-6.3 9.45 5.1-9 6.36-9.44-5.16z" fill-rule="evenodd" stroke="#000" stroke-width="1.0228px" fill="#f0f"/>
      <path id="path2537" d="m201.14 242.95l7.83-5.44 9.8 4.5-8.15 6.06-9.48-5.12z" fill-rule="evenodd" stroke="#000" stroke-width="1.0228px" fill="#f0f"/>
      <path id="path2539" d="m209.94 236.71l8.55-5.93 9.68 4.41-8.37 6.13-9.86-4.61z" fill-rule="evenodd" stroke="#000" stroke-width="1.0228px" fill="#f0f"/>
      <path id="path2541" d="m219.49 230.09l8.45-5.9 9.69 4.2-8.44 6.08-9.7-4.38z" fill-rule="evenodd" stroke="#000" stroke-width="1.0228px" fill="#f0f"/>
      <path id="path2543" d="m229.05 223.35l8.59-6.07 9.55 4.22-8.52 6.18-9.62-4.33z" fill-rule="evenodd" stroke="#000" stroke-width="1.0228px" fill="#f0f"/>
      <path id="path2545" d="m238.76 216.51l7.71-5.48 9.57 4.13-7.75 5.59-9.53-4.24z" fill-rule="evenodd" stroke="#000" stroke-width="1.0228px" fill="#f0f"/>
      <path id="path2547" d="m247.53 210.3l9-6.16 9.43 4.01-8.72 6.34-9.71-4.19z" fill-rule="evenodd" stroke="#000" stroke-width="1.0228px" fill="#f0f"/>
      <path id="path2242" d="m192.43 277.38l8.61-6.45 11.78 6.01-8.56 6.52-11.83-6.08z" fill-rule="evenodd" stroke="#000" stroke-width="1.0228px" fill="#f0f"/>
      <path id="path2244" d="m202.02 270.13l8.19-6.03 11.71 5.83-8.17 6.28-11.73-6.08z" fill-rule="evenodd" stroke="#000" stroke-width="1.0228px" fill="#f0f"/>
      <path id="path2246" d="m211.22 263.35l8.3-6.21 11.54 5.66-8.2 6.41-11.64-5.86z" fill-rule="evenodd" stroke="#000" stroke-width="1.0228px" fill="#f0f"/>
      <path id="path2248" d="m220.49 256.41l11.5 5.64 7.52-5.8-11.43-5.53s-7.56 5.72-7.59 5.69z" fill-rule="evenodd" stroke="#000" stroke-width="1.0228px" fill="#f0f"/>
      <path id="path2250" d="m228.98 249.9l11.51 5.64 7.52-5.8-11.43-5.53s-7.56 5.72-7.6 5.69z" fill-rule="evenodd" stroke="#000" stroke-width="1.0228px" fill="#f0f"/>
      <path id="path2252" d="m237.57 243.45l11.41 5.54 8.09-6.41-11.05-5.21-8.45 6.08z" fill-rule="evenodd" stroke="#000" stroke-width="1.0228px" fill="#f0f"/>
      <path id="path2254" d="m247.07 236.57l11 5.28 7.91-6.15-11.27-4.88-7.64 5.75z" fill-rule="evenodd" stroke="#000" stroke-width="1.0228px" fill="#f0f"/>
      <path id="path2256" d="m255.9 229.99l11.05 4.92 7.43-5.71-11.07-4.77-7.41 5.56z" fill-rule="evenodd" stroke="#000" stroke-width="1.0228px" fill="#f0f"/>
      <path id="path2258" d="m264.32 223.68l10.99 4.77 7.59-5.86-10.99-4.6-7.59 5.69z" fill-rule="evenodd" stroke="#000" stroke-width="1.0228px" fill="#f0f"/>
      <path id="path2260" d="m272.93 217.23l10.94 4.6 6.44-4.94-10.85-4.61-6.53 4.95z" fill-rule="evenodd" stroke="#000" stroke-width="1.0228px" fill="#f0f"/>
      <path id="path2262" d="m280.51 211.48l10.7 4.69 5.94-4.62-10.76-4.49-5.88 4.42z" fill-rule="evenodd" stroke="#000" stroke-width="1.0228px" fill="#f0f"/>
      <path id="path2264" d="m187.21 279.65l8.49-6.54-10.7-5.52-8.9 6.28 11.11 5.78z" fill-rule="evenodd" stroke="#000" stroke-width="1.0228px" fill="#f0f"/>
      <path id="path2266" d="m196.93 272.24l8.76-6.45-10.97-5.62-8.9 6.29 11.11 5.78z" fill-rule="evenodd" stroke="#000" stroke-width="1.0228px" fill="#f0f"/>
      <path id="path2268" d="m206.76 265.04l8.85-6.4-10.7-5.21-8.68 6.1 10.53 5.51z" fill-rule="evenodd" stroke="#000" stroke-width="1.0228px" fill="#f0f"/>
      <path id="path2270" d="m216.56 257.79l9.17-6.67-10.43-5.14-9.35 6.67 10.61 5.14z" fill-rule="evenodd" stroke="#000" stroke-width="1.0228px" fill="#f0f"/>
      <path id="path2272" d="m226.62 250.28l7.81-5.81-10.28-4.98-7.74 5.64 10.21 5.15z" fill-rule="evenodd" stroke="#000" stroke-width="1.0228px" fill="#f0f"/>
      <path id="path2274" d="m235.32 243.66l7.6-5.45-10.04-4.99-7.68 5.56 10.12 4.88z" fill-rule="evenodd" stroke="#000" stroke-width="1.0228px" fill="#f0f"/>
      <path id="path2276" d="m244.04 237.41l7.43-5.71-9.74-4.93-7.72 5.58 10.03 5.06z" fill-rule="evenodd" stroke="#000" stroke-width="1.0228px" fill="#f0f"/>
      <path id="path2278" d="m252.65 231.11l7.65-5.83-9.71-4.64-7.69 5.45 9.75 5.02z" fill-rule="evenodd" stroke="#000" stroke-width="1.0228px" fill="#f0f"/>
      <path id="path2280" d="m261.24 224.42l7.22-5.21-9.65-4.38-7.09 4.96 9.52 4.63z" fill-rule="evenodd" stroke="#000" stroke-width="1.0228px" fill="#f0f"/>
      <path id="path2282" d="m269.53 218.44l6.31-4.83-9.48-4.3-6.55 4.79 9.72 4.34z" fill-rule="evenodd" stroke="#000" stroke-width="1.0228px" fill="#f0f"/>
      <path id="path2284" d="m276.8 212.88l5.46-4.24-9.61-3.81-5.24 3.8 9.39 4.25z" fill-rule="evenodd" stroke="#000" stroke-width="1.0228px" fill="#f0f"/>
      <path id="rect3291" opacity=".9972" d="m302.88 234.28l5.5-4.58c0.55-0.46 0.39-1.1-0.35-1.44l-7.59-3.52c-0.78-0.36-1.88-0.28-2.45 0.19l-5.77 4.7c-0.59 0.48-0.4 1.14 0.41 1.49l7.86 3.4c0.77 0.33 1.83 0.22 2.39-0.24" fill="#808080"/>
      <path id="rect3293" opacity=".9972" d="m235.37 272.48l-7.95-3.86c-0.68-0.33-1.63-0.29-2.13 0.1l-5.79 4.45c-0.5 0.39-0.36 0.98 0.32 1.32l7.93 3.95c0.7 0.34 1.67 0.3 2.18-0.1l5.8-4.54c0.5-0.39 0.34-0.98-0.36-1.32" fill="#808080"/>
      <path id="rect3299" opacity=".9972" d="m247.44 211.44l7.6 3.29c0.55 0.23 0.65 0.68 0.21 0.99l-6.16 4.45c-0.44 0.32-1.24 0.38-1.79 0.14l-7.58-3.37c-0.53-0.24-0.61-0.68-0.17-0.99l6.13-4.36c0.44-0.31 1.22-0.38 1.76-0.15" fill="#808080"/>
      <path id="rect3301" opacity=".9972" d="m211.39 264.69l9.31 4.63c0.67 0.34 0.85 0.89 0.4 1.24l-6.5 4.99c-0.47 0.37-1.4 0.37-2.08 0.02l-9.33-4.83c-0.65-0.34-0.79-0.89-0.32-1.24l6.52-4.79c0.46-0.34 1.35-0.35 2-0.02" fill="#808080"/>
      <path id="rect3305" opacity=".9972" d="m190.8 251.04l8.2 4.46c0.34 0.19 0.36 0.51 0.05 0.73l-7.26 5.11c-0.31 0.22-0.83 0.25-1.18 0.07l-8.39-4.32c-0.36-0.19-0.4-0.52-0.09-0.74l7.46-5.26c0.31-0.23 0.85-0.25 1.21-0.05" fill="#808080"/>
      <path id="rect3309" opacity=".9972" d="m200.87 319.48l-9.31 7.85c-0.47 0.4-1.26 0.48-1.78 0.18l-10.32-5.9c-0.51-0.29-0.54-0.85-0.06-1.24l9.47-7.73c0.47-0.38 1.25-0.45 1.75-0.16l10.16 5.78c0.5 0.29 0.55 0.83 0.09 1.22" fill="#808080"/>
      <path id="rect3311" opacity=".9972" d="m227.03 279.38l-8.56-4.27c-0.49-0.24-1.24-0.18-1.67 0.15l-7.45 5.74c-0.45 0.34-0.4 0.83 0.1 1.08l8.65 4.44c0.52 0.27 1.29 0.19 1.73-0.16l7.36-5.91c0.42-0.34 0.35-0.82-0.16-1.07" fill="#808080"/>
      <path id="rect3313" opacity=".9972" d="m200.88 244.07l7.94 4.29c0.42 0.22 0.44 0.63 0.05 0.91l-7.57 5.35c-0.4 0.28-1.06 0.32-1.48 0.1l-7.93-4.34c-0.42-0.23-0.43-0.63-0.03-0.91l7.56-5.3c0.39-0.28 1.04-0.32 1.46-0.1" fill="#808080"/>
      <path id="rect3317" opacity=".9972" d="m168.98 312.35l17.54-13.42c1.23-0.94 2.69-1.43 3.29-1.1l8.13 4.48c0.61 0.33 0.14 1.37-1.05 2.33l-17.04 13.82c-1.34 1.08-2.94 1.67-3.58 1.31l-8.63-4.86c-0.64-0.36-0.04-1.5 1.34-2.56" fill="#808080"/>
      <path id="rect3319" opacity=".9972" d="m192.51 290.87l-9.24-4.92c-0.72-0.39-1.73-0.39-2.24 0l-6.59 4.95c-0.54 0.4-0.38 1.05 0.35 1.45l9.29 5.1c0.76 0.41 1.79 0.41 2.32-0.01l6.54-5.12c0.51-0.4 0.32-1.05-0.43-1.45" fill="#808080"/>
      <path id="rect3321" opacity=".9972" d="m185.14 279.9l-8.51-4.4c-0.6-0.31-1.48-0.29-1.97 0.06l-7.07 4.99c-0.53 0.37-0.44 0.94 0.18 1.26l8.84 4.6c0.63 0.33 1.55 0.28 2.05-0.1l6.74-5.2c0.46-0.36 0.35-0.9-0.26-1.21" fill="#808080"/>
      <path id="rect3323" opacity=".9972" d="m161.12 272.03l8.68 4.58c0.42 0.22 0.47 0.6 0.12 0.86l-7.32 5.25c-0.36 0.26-1 0.29-1.43 0.06l-8.84-4.65c-0.43-0.23-0.48-0.62-0.11-0.87l7.49-5.19c0.36-0.24 0.99-0.26 1.41-0.04" fill="#808080"/>
      <path id="rect3325" opacity=".9972" d="m220.29 303.22l-7.1 5.96c-0.45 0.38-1.3 0.38-1.91 0.01l-9.27-5.73c-0.55-0.34-0.64-0.89-0.21-1.24l6.86-5.53c0.42-0.34 1.21-0.36 1.77-0.05l9.52 5.29c0.62 0.34 0.78 0.92 0.34 1.29" fill="#808080"/>
      <path id="rect3327" opacity=".9972" d="m250.18 231.05l-7.15-3.62c-0.72-0.37-1.74-0.34-2.3 0.06l-5.67 4.1c-0.58 0.42-0.45 1.06 0.29 1.43l7.36 3.72c0.74 0.37 1.78 0.32 2.34-0.11l5.46-4.19c0.53-0.41 0.39-1.03-0.33-1.39" fill="#808080"/>
      <path id="rect3329" opacity=".9972" d="m241.74 237.62l-7.64-3.79c-0.67-0.34-1.63-0.31-2.14 0.06l-5.84 4.23c-0.51 0.37-0.37 0.93 0.31 1.25l7.7 3.72c0.66 0.31 1.59 0.28 2.1-0.08l5.78-4.15c0.51-0.36 0.38-0.92-0.27-1.24" fill="#808080"/>
      <path id="rect3331" opacity=".9972" d="m291.07 231.67l8.87 3.79c0.55 0.24 0.69 0.68 0.3 1l-6.45 5.23c-0.39 0.32-1.14 0.37-1.68 0.11l-8.62-4.02c-0.5-0.23-0.6-0.67-0.23-0.97l6.2-5c0.38-0.3 1.09-0.37 1.61-0.14" fill="#808080"/>
      <path id="rect3333" opacity=".9972" d="m214.66 258.18l-8.87-4.32c-0.49-0.24-1.21-0.2-1.61 0.08l-7.2 5.06c-0.41 0.29-0.36 0.73 0.12 0.98l8.73 4.57c0.52 0.27 1.27 0.24 1.69-0.06l7.34-5.31c0.41-0.3 0.32-0.75-0.2-1" fill="#808080"/>
      <path id="rect3335" opacity=".9972" d="m238.62 217.71l7.58 3.36c0.55 0.24 0.61 0.71 0.13 1.06l-6.77 4.91c-0.49 0.35-1.33 0.44-1.88 0.19l-7.65-3.44c-0.54-0.24-0.58-0.72-0.09-1.07l6.84-4.83c0.48-0.34 1.3-0.42 1.84-0.18" fill="#808080"/>
      <path id="rect3337" opacity=".9972" d="m228.92 224.61l7.7 3.34c0.56 0.24 0.63 0.71 0.16 1.05l-6.71 4.83c-0.49 0.35-1.33 0.43-1.89 0.18l-7.71-3.48c-0.55-0.25-0.59-0.72-0.1-1.06l6.72-4.69c0.47-0.33 1.29-0.4 1.83-0.17" fill="#808080"/>
      <path id="rect3339" opacity=".9972" d="m257.15 204.4l8.18 3.48c0.34 0.15 0.38 0.45 0.07 0.68l-7.56 5.49c-0.33 0.25-0.89 0.31-1.25 0.16l-8.42-3.63c-0.36-0.16-0.37-0.47-0.03-0.7l7.81-5.35c0.32-0.22 0.85-0.27 1.2-0.13" fill="#808080"/>
      <path id="rect3341" opacity=".9972" d="m201.85 271.35l10.15 5.18c0.45 0.23 0.56 0.61 0.23 0.86l-7.38 5.62c-0.33 0.25-0.96 0.27-1.41 0.03l-10.2-5.24c-0.45-0.23-0.55-0.62-0.21-0.86l7.42-5.56c0.33-0.25 0.95-0.26 1.4-0.03" fill="#808080"/>
      <path id="rect3343" opacity=".9972" d="m219.22 231.11l8.2 3.74c0.42 0.18 0.47 0.54 0.13 0.79l-7.1 5.2c-0.36 0.26-0.99 0.32-1.41 0.12l-8.36-3.9c-0.41-0.2-0.44-0.56-0.07-0.82l7.24-5.02c0.35-0.24 0.96-0.29 1.37-0.11" fill="#808080"/>
      <path id="rect3345" opacity=".9972" d="m166.11 294.41l-9.07-4.89c-0.52-0.28-1.52-0.09-2.23 0.42 0 0-12.55 8.99-12.55 8.99-0.76 0.55-0.95 1.23-0.42 1.53l9.13 5.21c0.55 0.32 1.59 0.11 2.35-0.45l12.48-9.33c0.72-0.53 0.85-1.19 0.31-1.48" fill="#808080"/>
      <path id="rect3349" opacity=".9972" d="m151.01 278.7l9.36 4.92c0.31 0.16 0.35 0.45 0.09 0.63l-8.18 5.99c-0.27 0.2-0.73 0.22-1.04 0.05l-9.27-5.15c-0.29-0.17-0.31-0.45-0.04-0.63l8.09-5.75c0.26-0.19 0.7-0.21 0.99-0.06" fill="#808080"/>
      <path id="rect3351" opacity=".9972" d="m175.52 287.15l-8.72-4.62c-0.64-0.34-1.55-0.32-2.04 0.05l-6.66 4.96c-0.5 0.37-0.38 0.94 0.26 1.29l8.71 4.71c0.66 0.35 1.58 0.33 2.08-0.04l6.67-5.06c0.49-0.37 0.36-0.95-0.3-1.29" fill="#808080"/>
      <path id="rect3353" opacity=".9972" d="m201.97 283.46l-9.18-4.72c-0.71-0.36-1.7-0.34-2.22 0.05l-6.59 4.95c-0.53 0.4-0.4 1.03 0.3 1.42l9.09 4.99c0.75 0.41 1.79 0.41 2.34-0.02l6.68-5.22c0.53-0.42 0.34-1.06-0.42-1.45" fill="#808080"/>
      <path id="rect3355" opacity=".9972" d="m183.21 298.32l-9.65-5.08c-0.68-0.36-2.08-0.01-3.14 0.78l-15.22 11.32c-1.11 0.83-1.46 1.8-0.78 2.18l9.68 5.41c0.7 0.39 2.16 0.02 3.27-0.83l15.19-11.65c1.06-0.81 1.35-1.76 0.65-2.13" fill="#808080"/>
      <path id="rect3357" opacity=".9972" d="m181.25 257.89l8.28 4.3c0.4 0.21 0.44 0.6 0.09 0.87l-7.6 5.77c-0.38 0.29-1.03 0.35-1.45 0.13l-8.63-4.52c-0.42-0.22-0.43-0.62-0.03-0.9l7.95-5.56c0.37-0.26 0.99-0.3 1.39-0.09" fill="#808080"/>
      <path id="rect3359" opacity=".9972" d="m207.3 294.98l-8.71-4.44c-0.53-0.27-1.28-0.22-1.68 0.1l-6.5 5.21c-0.41 0.33-0.32 0.81 0.19 1.09l8.48 4.61c0.55 0.29 1.32 0.26 1.74-0.07l6.73-5.38c0.42-0.33 0.31-0.84-0.25-1.12" fill="#808080"/>
      <path id="rect3361" opacity=".9972" d="m210.32 311.53l-6.57 5.47c-0.67 0.55-1.89 0.61-2.74 0.13l-8.77-5.01c-0.9-0.52-1.07-1.4-0.36-1.97l7-5.6c0.69-0.55 1.94-0.57 2.81-0.04l8.34 5.14c0.81 0.5 0.94 1.34 0.29 1.88" fill="#808080"/>
      <path id="rect3363" opacity=".9972" d="m229.41 295.58l-6.37 5.37c-0.56 0.47-1.62 0.5-2.38 0.07l-8.8-4.95c-0.76-0.44-0.92-1.16-0.35-1.63l6.51-5.32c0.56-0.46 1.62-0.48 2.38-0.05l8.64 4.91c0.75 0.43 0.92 1.14 0.37 1.6" fill="#808080"/>
      <path id="rect3365" opacity=".9972" d="m217.05 287.26l-8.62-4.35c-0.51-0.26-1.27-0.21-1.69 0.11l-7.23 5.52c-0.45 0.34-0.39 0.84 0.14 1.11l8.82 4.58c0.54 0.28 1.33 0.22 1.77-0.14l7.02-5.74c0.41-0.34 0.32-0.82-0.21-1.09" fill="#808080"/>
      <path id="rect3367" opacity=".9972" d="m170.91 265.27l8.42 4.35c0.48 0.25 0.55 0.68 0.15 0.97l-7.06 5.13c-0.41 0.29-1.13 0.32-1.61 0.07l-8.49-4.44c-0.48-0.25-0.54-0.69-0.12-0.98l7.12-5.03c0.4-0.29 1.11-0.32 1.59-0.07" fill="#808080"/>
      <path id="rect3369" opacity=".9972" d="m204.55 265.21l-8.72-4.47c-0.61-0.31-1.51-0.29-2.01 0.06l-7.08 5c-0.51 0.36-0.42 0.92 0.21 1.24l8.83 4.6c0.64 0.33 1.56 0.3 2.06-0.07l6.97-5.13c0.48-0.36 0.37-0.91-0.26-1.23" fill="#808080"/>
      <path id="rect3371" opacity=".9972" d="m194.6 272.55l-8.51-4.4c-0.6-0.31-1.48-0.29-1.97 0.06l-7.07 4.99c-0.53 0.37-0.44 0.93 0.18 1.26l8.84 4.6c0.64 0.33 1.55 0.28 2.05-0.1l6.74-5.2c0.47-0.36 0.35-0.9-0.26-1.21" fill="#808080"/>
      <path id="rect3373" opacity=".9972" d="m284.73 249.18l6.91-5.72c0.29-0.24 0.2-0.58-0.2-0.77l-9.16-4.26c-0.37-0.18-0.91-0.14-1.2 0.09l-6.86 5.48c-0.3 0.24-0.23 0.58 0.14 0.76l9.12 4.52c0.39 0.19 0.95 0.15 1.25-0.1" fill="#808080"/>
      <path id="rect3375" opacity=".9972" d="m266.26 207.11l-8.04-3.43c-0.35-0.15 0.04-0.74 0.87-1.32l17.37-12.14c0.71-0.49 1.55-0.79 1.88-0.66l7.66 2.95c0.35 0.14 0.07 0.66-0.63 1.18l-16.99 12.61c-0.81 0.6-1.76 0.96-2.12 0.81" fill="#808080"/>
      <path id="rect3377" opacity=".9972" d="m150.05 290.89l-8.91-4.91c-0.44-0.25-1.16-0.17-1.63 0.16l-9.31 6.69c-0.46 0.33-0.49 0.8-0.05 1.05l8.79 5c0.45 0.25 1.18 0.18 1.65-0.16l9.42-6.78c0.47-0.33 0.49-0.8 0.04-1.05" fill="#808080"/>
      <path id="rect3379" d="m308.02 201.07l-17.77-6.89c-1.21-0.47-2.76-0.46-3.44 0.05l-11.88 8.78c-0.72 0.52-0.86 0.98 0.52 1.36l6.76 2.76c1.09 0.45 1.09 0.47 2.04-0.22l1.26-0.92c0.28-0.2 1.11-0.28 2 0.1l9.15 3.95c1.01 0.28 1.88 0.36 2.45-0.08l9.53-7.49c0.54-0.43 0.28-1.05-0.62-1.4" fill="#808080"/>
      <path id="rect3381" opacity=".9972" d="m263 250.95l-8.48-3.91c-0.43-0.2-1.05-0.15-1.39 0.11l-6.45 5.02c-0.34 0.27-0.27 0.65 0.16 0.86l8.41 4.06c0.46 0.22 1.1 0.18 1.44-0.1l6.52-5.18c0.34-0.27 0.24-0.65-0.21-0.86" fill="#808080"/>
      <path id="rect3385" opacity=".9972" d="m224.64 250.58l-8.23-4.05c-0.61-0.31-1.54-0.24-2.08 0.15l-7.38 5.26c-0.55 0.39-0.49 0.95 0.13 1.25l8.37 4.06c0.61 0.3 1.54 0.22 2.08-0.17l7.24-5.26c0.53-0.39 0.47-0.94-0.13-1.24" fill="#808080"/>
      <path id="rect3387" opacity=".9972" d="m220.8 257.76l8.95 4.4c0.73 0.36 0.91 0.96 0.41 1.35l-6.37 4.97c-0.52 0.4-1.52 0.43-2.25 0.06l-9.03-4.54c-0.72-0.36-0.87-0.96-0.34-1.36l6.44-4.82c0.5-0.38 1.48-0.4 2.19-0.06" fill="#808080"/>
      <path id="rect3389" opacity=".9972" d="m209.9 237.94l7.79 3.58c0.6 0.27 0.72 0.76 0.27 1.1l-6.48 4.81c-0.47 0.35-1.33 0.39-1.9 0.08l-7.54-4.07c-0.5-0.27-0.53-0.75-0.07-1.06l6.22-4.33c0.43-0.3 1.19-0.35 1.71-0.11" fill="#808080"/>
      <path id="rect3391" opacity=".9972" d="m300.49 221.42l17.88-14.45c0.84-0.67 1.19-1.33 0.81-1.49l-7.74-3.03c-0.36-0.14-1.32 0.26-2.14 0.91l-17.61 13.81c-0.89 0.7-1.33 1.4-0.97 1.58l7.46 3.66c0.37 0.18 1.41-0.26 2.31-0.99" fill="#808080"/>
      <path id="path13125" opacity=".9972" d="m258.97 224.64l-7.14-3.4c-0.69-0.33-1.68-0.29-2.23 0.1l-5.65 4.01c-0.58 0.41-0.5 1.03 0.2 1.39l7.16 3.68c0.74 0.38 1.81 0.34 2.39-0.11l5.62-4.28c0.55-0.42 0.39-1.04-0.35-1.39" fill="#808080"/>
      <path id="path13127" opacity=".9972" d="m245.03 264.96l-8.13-3.93c-0.6-0.29-1.48-0.21-1.98 0.17l-6.76 5.28c-0.51 0.39-0.43 0.94 0.17 1.24l8.18 4c0.61 0.29 1.51 0.21 2.01-0.19l6.71-5.34c0.5-0.39 0.41-0.94-0.2-1.23" fill="#808080"/>
      <path id="path13129" opacity=".9972" d="m241.34 254.89l5.84-4.5c0.46-0.36 0.26-0.92-0.46-1.27l-8.87-4.29c-0.71-0.34-1.65-0.34-2.12 0.01l-5.89 4.42c-0.47 0.36-0.28 0.92 0.42 1.27l8.93 4.38c0.72 0.35 1.68 0.34 2.15-0.02" fill="#808080"/>
      <path id="path13131" opacity=".9972" d="m250.1 248.11l5.94-4.71c0.57-0.46 0.37-1.13-0.45-1.52l-8.12-3.82c-0.8-0.38-1.93-0.34-2.53 0.09l-6.21 4.46c-0.64 0.46-0.5 1.16 0.33 1.56l8.38 4.08c0.85 0.41 2.04 0.35 2.66-0.14" fill="#808080"/>
      <path id="path13133" opacity=".9972" d="m270.78 244.1l-7.61-3.55c-0.57-0.26-1.36-0.22-1.77 0.1l-5.73 4.48c-0.44 0.35-0.31 0.84 0.28 1.11l7.94 3.66c0.58 0.27 1.39 0.2 1.8-0.15l5.4-4.59c0.39-0.32 0.25-0.8-0.31-1.06" fill="#808080"/>
      <path id="path13135" opacity=".9972" d="m279.36 237.13l-7.41-3.34c-0.58-0.26-1.43-0.17-1.9 0.19l-5.99 4.64c-0.49 0.38-0.42 0.9 0.16 1.17l7.38 3.49c0.6 0.29 1.48 0.2 1.96-0.18l6.03-4.79c0.48-0.38 0.38-0.91-0.23-1.18" fill="#808080"/>
      <path id="path14377" opacity=".9972" d="m259.14 241.02l5.8-4.52c0.58-0.44 0.34-1.11-0.53-1.48l-8.27-3.58c-0.79-0.34-1.87-0.28-2.43 0.14l-5.62 4.22c-0.57 0.42-0.41 1.06 0.37 1.44l8.08 3.87c0.85 0.41 2.01 0.37 2.6-0.09" fill="#808080"/>
      <path id="path14379" opacity=".9972" d="m232.79 261.44l5.94-4.58c0.43-0.34 0.24-0.87-0.43-1.19l-9.02-4.37c-0.67-0.32-1.56-0.31-1.99 0.02l-5.99 4.49c-0.45 0.33-0.28 0.86 0.39 1.19l9.08 4.45c0.68 0.34 1.58 0.33 2.02-0.01" fill="#808080"/>
      <path id="path14381" opacity=".9972" d="m254.17 257.49l-7.84-3.76c-0.62-0.3-1.54-0.21-2.05 0.19l-6.53 5.06c-0.52 0.41-0.45 0.98 0.17 1.29l7.86 3.87c0.63 0.31 1.57 0.23 2.1-0.19l6.51-5.18c0.51-0.41 0.42-0.98-0.22-1.28" fill="#808080"/>
      <path id="path14383" opacity=".9972" d="m233.04 243.79l-7.55-3.65c-0.75-0.36-1.8-0.32-2.36 0.09l-5.68 4.15c-0.58 0.42-0.45 1.05 0.29 1.43l7.5 3.78c0.77 0.38 1.85 0.35 2.43-0.08l5.73-4.28c0.57-0.42 0.41-1.06-0.36-1.44" fill="#808080"/>
      <path id="path14385" opacity=".9972" d="m282.03 224.71l5.95-4.63c0.59-0.45 1.58-0.57 2.23-0.25l6.56 3.18c0.66 0.32 0.72 0.95 0.14 1.42l-5.89 4.72c-0.6 0.48-1.62 0.6-2.29 0.27l-6.61-3.28c-0.65-0.32-0.69-0.96-0.09-1.43" fill="#808080"/>
      <path id="path20314" opacity=".9972" d="m274.59 213.05l-6.96-3.17c-0.7-0.32-1.65-0.29-2.12 0.05l-4.81 3.52c-0.49 0.36-0.31 0.91 0.41 1.23l7.14 3.19c0.71 0.31 1.66 0.28 2.13-0.08l4.63-3.55c0.46-0.35 0.27-0.88-0.42-1.19" fill="#808080"/>
      <path id="path20316" opacity=".9972" d="m292 215.55l4.37-3.39c0.43-0.34 0.12-0.88-0.69-1.22l-7.9-3.3c-0.77-0.32-1.74-0.32-2.16 0l-4.32 3.25c-0.43 0.33-0.17 0.86 0.6 1.2l7.85 3.44c0.8 0.36 1.81 0.37 2.25 0.02" fill="#808080"/>
      <path id="path20318" opacity=".9972" d="m284.73 221.17l4.72-3.63c0.48-0.36 0.22-0.92-0.58-1.26l-7.97-3.38c-0.8-0.34-1.83-0.32-2.31 0.04l-4.79 3.63c-0.48 0.36-0.22 0.93 0.59 1.27l8.03 3.38c0.8 0.34 1.83 0.32 2.31-0.05" fill="#808080"/>
      <path id="path20320" opacity=".9972" d="m280.71 208.19l-7.06-2.8c-0.66-0.26-1.49-0.25-1.87 0.03l-3.84 2.79c-0.4 0.28-0.2 0.74 0.44 1.03l6.9 3.12c0.74 0.33 1.67 0.35 2.08 0.03l4.01-3.11c0.39-0.3 0.09-0.79-0.66-1.09" fill="#808080"/>
      <path id="path20322" opacity=".9972" d="m267.13 218.61l-7.08-3.21c-0.69-0.32-1.66-0.28-2.17 0.08l-5.21 3.64c-0.52 0.37-0.4 0.93 0.28 1.27l6.98 3.4c0.73 0.35 1.74 0.32 2.28-0.07l5.3-3.83c0.53-0.38 0.36-0.95-0.38-1.28" fill="#808080"/>
      <path id="path20324" opacity=".9972" d="m287.74 230.26l-6.66-3.26c-0.67-0.33-1.67-0.24-2.24 0.19l-5.75 4.44c-0.58 0.45-0.49 1.08 0.21 1.41l6.89 3.23c0.68 0.32 1.67 0.22 2.23-0.23l5.52-4.42c0.54-0.43 0.45-1.04-0.2-1.36" fill="#808080"/>
      <path id="path20326" opacity=".9972" d="m267.95 234.14l5.45-4.19c0.55-0.42 0.32-1.04-0.51-1.4l-8.14-3.49c-0.8-0.35-1.88-0.3-2.42 0.1l-5.44 4.08c-0.55 0.41-0.35 1.03 0.45 1.39l8.12 3.61c0.83 0.37 1.94 0.32 2.49-0.1" fill="#808080"/>
      <path id="path21282" opacity=".9972" d="m276.33 227.66l5.57-4.3c0.55-0.43 0.33-1.05-0.49-1.39l-8.06-3.38c-0.8-0.33-1.88-0.27-2.43 0.15l-5.58 4.18c-0.56 0.42-0.38 1.04 0.42 1.38l8.07 3.51c0.82 0.35 1.94 0.29 2.5-0.15" fill="#808080"/>
      <g id="g5349" fill="#4d4d4d" transform="matrix(1.0228 0 0 1.0228 -6.1273 -1.9736)">
        <path id="path3281" opacity=".9972" d="m200.53 313.05l-7.5 6.32c-0.38 0.32-1.02 0.39-1.43 0.15l-8.31-4.75c-0.42-0.24-0.44-0.69-0.05-1l7.63-6.23c0.37-0.3 1-0.36 1.41-0.13l8.18 4.66c0.4 0.23 0.44 0.67 0.07 0.98"/>
        <path id="path3283" opacity=".9972" d="m172.42 306.04l15.61-11.95c1.09-0.84 2.39-1.27 2.92-0.98l7.24 3.98c0.54 0.3 0.13 1.23-0.93 2.08l-15.17 12.3c-1.19 0.96-2.62 1.48-3.19 1.16l-7.68-4.32c-0.57-0.32-0.03-1.34 1.2-2.27"/>
        <path id="path3285" opacity=".9972" d="m183.72 293.09l-8.5-4.47c-0.6-0.32-1.83-0.01-2.76 0.68l-13.4 9.97c-0.98 0.73-1.29 1.59-0.69 1.92l8.52 4.77c0.62 0.34 1.9 0.01 2.88-0.74l13.38-10.25c0.93-0.72 1.18-1.55 0.57-1.88"/>
        <path id="path3287" opacity=".9972" d="m166.83 289.13l-7.69-4.15c-0.45-0.24-1.29-0.08-1.9 0.36l-10.65 7.63c-0.64 0.46-0.8 1.03-0.35 1.29l7.75 4.43c0.46 0.26 1.35 0.09 1.99-0.39l10.59-7.91c0.61-0.45 0.72-1.02 0.26-1.26"/>
        <path id="path3289" opacity=".9972" d="m151.36 285.66l-7.51-4.15c-0.37-0.2-0.98-0.14-1.38 0.14l-7.85 5.64c-0.4 0.29-0.42 0.68-0.05 0.89l7.42 4.22c0.38 0.21 1 0.15 1.39-0.13l7.95-5.72c0.4-0.29 0.41-0.69 0.03-0.89"/>
        <path id="path3291" opacity=".9972" d="m210.7 305.78l-5.77 4.8c-0.59 0.49-1.66 0.54-2.4 0.11l-7.7-4.39c-0.8-0.46-0.94-1.23-0.32-1.73l6.15-4.92c0.6-0.49 1.7-0.5 2.46-0.03l7.33 4.51c0.71 0.44 0.82 1.17 0.25 1.65"/>
        <path id="path3293" opacity=".9972" d="m220.37 297.65l-6.17 5.19c-0.39 0.33-1.14 0.33-1.67 0l-8.06-4.98c-0.47-0.29-0.55-0.77-0.17-1.08l5.95-4.8c0.37-0.3 1.06-0.32 1.55-0.04l8.27 4.59c0.54 0.3 0.68 0.8 0.3 1.12"/>
        <path id="path3295" opacity=".9972" d="m229.28 290.15l-5.51 4.64c-0.48 0.41-1.41 0.44-2.07 0.07l-7.6-4.29c-0.67-0.37-0.8-1-0.3-1.4l5.63-4.61c0.48-0.39 1.4-0.41 2.05-0.04l7.48 4.25c0.65 0.37 0.79 0.99 0.32 1.38"/>
        <path id="path3297" opacity=".9972" d="m207.64 289.76l-7.44-3.79c-0.45-0.23-1.09-0.19-1.43 0.09l-5.55 4.44c-0.35 0.28-0.27 0.69 0.17 0.93l7.23 3.94c0.47 0.25 1.13 0.22 1.49-0.06l5.74-4.59c0.36-0.29 0.26-0.72-0.21-0.96"/>
        <path id="path3299" opacity=".9972" d="m193.31 285.78l-8.09-4.3c-0.64-0.34-1.51-0.34-1.97 0l-5.76 4.33c-0.47 0.35-0.33 0.92 0.31 1.27l8.13 4.46c0.66 0.36 1.56 0.36 2.03 0l5.72-4.49c0.45-0.35 0.28-0.92-0.37-1.27"/>
        <path id="path3301" opacity=".9972" d="m153.66 274.41l8.1 4.25c0.26 0.14 0.3 0.39 0.08 0.55l-7.09 5.18c-0.23 0.17-0.63 0.19-0.89 0.04l-8.03-4.46c-0.25-0.14-0.27-0.38-0.04-0.54l7.01-4.98c0.22-0.15 0.6-0.17 0.86-0.04"/>
        <path id="path3303" opacity=".9972" d="m176.68 282.15l-7.59-4.02c-0.56-0.29-1.35-0.27-1.77 0.05l-5.8 4.31c-0.43 0.32-0.33 0.82 0.22 1.12l7.59 4.11c0.57 0.3 1.37 0.29 1.8-0.04l5.81-4.4c0.42-0.33 0.31-0.83-0.26-1.13"/>
        <path id="path3305" opacity=".9972" d="m186.06 275.08l-7.39-3.81c-0.53-0.28-1.29-0.25-1.71 0.04l-6.15 4.34c-0.46 0.33-0.38 0.81 0.16 1.1l7.68 3.99c0.55 0.29 1.34 0.25 1.77-0.09l5.86-4.51c0.41-0.31 0.3-0.78-0.22-1.06"/>
        <path id="path3307" opacity=".9972" d="m163.52 267.88l7.64 4.04c0.38 0.2 0.43 0.53 0.12 0.75l-6.46 4.64c-0.32 0.23-0.88 0.25-1.26 0.05l-7.79-4.1c-0.38-0.2-0.43-0.55-0.1-0.77l6.6-4.57c0.32-0.22 0.87-0.24 1.25-0.04"/>
        <path id="path3309" opacity=".9972" d="m173.08 261.27l7.34 3.79c0.42 0.22 0.48 0.6 0.13 0.85l-6.15 4.47c-0.36 0.25-0.98 0.28-1.41 0.06l-7.4-3.87c-0.42-0.22-0.46-0.6-0.11-0.85l6.22-4.39c0.35-0.25 0.97-0.28 1.38-0.06"/>
        <path id="path3311" opacity=".9972" d="m183.16 254.06l7.38 3.84c0.36 0.19 0.4 0.53 0.08 0.77l-6.78 5.15c-0.34 0.26-0.92 0.31-1.29 0.11l-7.7-4.03c-0.37-0.19-0.38-0.55-0.02-0.8l7.08-4.96c0.34-0.23 0.89-0.27 1.25-0.08"/>
        <path id="path3313" opacity=".9972" d="m195.51 268l-7.59-3.92c-0.54-0.28-1.32-0.25-1.76 0.05l-6.31 4.46c-0.47 0.33-0.39 0.83 0.17 1.12l7.88 4.1c0.57 0.3 1.38 0.26 1.83-0.09l6.01-4.63c0.42-0.32 0.31-0.81-0.23-1.09"/>
        <path id="path3315" opacity=".9972" d="m202.55 278.56l-8.03-4.13c-0.62-0.32-1.49-0.3-1.94 0.04l-5.76 4.33c-0.47 0.35-0.35 0.9 0.27 1.24l7.94 4.37c0.65 0.36 1.57 0.35 2.04-0.02l5.85-4.57c0.46-0.36 0.29-0.92-0.37-1.26"/>
        <path id="path3317" opacity=".9972" d="m217.28 282.31l-7.51-3.79c-0.45-0.23-1.11-0.19-1.48 0.09l-6.3 4.81c-0.39 0.3-0.34 0.73 0.12 0.97l7.69 4c0.47 0.24 1.16 0.18 1.54-0.13l6.13-5c0.35-0.3 0.27-0.72-0.19-0.95"/>
        <path id="path5259" d="m223.63 280.97l47.57-38.16c0.57-0.46 1.74-0.46 2.63-0.03l6.33 3.11c0.91 0.45 1.19 1.18 0.63 1.64l-46.86 39.26c-0.69 0.57-2.03 0.6-3 0.06l-6.87-3.91c-0.94-0.53-1.13-1.41-0.43-1.97"/>
        <path id="path5261" opacity=".9972" d="m227.04 274.62l-7.47-3.72c-0.43-0.22-1.08-0.16-1.45 0.13l-6.51 5c-0.39 0.3-0.35 0.72 0.09 0.94l7.55 3.88c0.45 0.23 1.12 0.16 1.5-0.15l6.42-5.15c0.37-0.3 0.31-0.71-0.13-0.93"/>
        <path id="path5263" opacity=".9972" d="m192.52 247.36l7.26 3.96c0.3 0.16 0.33 0.45 0.05 0.64l-6.43 4.53c-0.28 0.19-0.74 0.22-1.05 0.06l-7.43-3.83c-0.33-0.16-0.36-0.46-0.08-0.65l6.6-4.67c0.28-0.19 0.76-0.22 1.08-0.04"/>
        <path id="path5265" opacity=".9972" d="m204.96 260.68l-7.51-3.85c-0.53-0.27-1.3-0.25-1.73 0.06l-6.09 4.3c-0.45 0.31-0.37 0.79 0.17 1.07l7.61 3.96c0.54 0.28 1.34 0.25 1.77-0.07l5.99-4.41c0.42-0.31 0.33-0.78-0.21-1.06"/>
        <path id="path5267" opacity=".9972" d="m203.43 267.21l8.8 4.49c0.39 0.2 0.48 0.54 0.2 0.75l-6.4 4.88c-0.29 0.22-0.83 0.23-1.23 0.03l-8.84-4.55c-0.39-0.2-0.48-0.54-0.19-0.75l6.44-4.83c0.29-0.21 0.83-0.22 1.22-0.02"/>
        <path id="path5269" opacity=".9972" d="m212.73 260.69l8.09 4.03c0.59 0.29 0.74 0.77 0.35 1.08l-5.65 4.33c-0.41 0.32-1.22 0.33-1.81 0.02l-8.1-4.2c-0.57-0.3-0.69-0.78-0.28-1.08l5.66-4.16c0.4-0.29 1.17-0.3 1.74-0.02"/>
        <path id="path5271" opacity=".9972" d="m235.38 267.95l-7.02-3.41c-0.6-0.29-1.44-0.25-1.88 0.09l-5.11 3.93c-0.45 0.35-0.33 0.87 0.28 1.17l7 3.48c0.62 0.31 1.47 0.27 1.92-0.08l5.13-4.02c0.44-0.34 0.3-0.86-0.32-1.16"/>
        <path id="path5273" opacity=".9972" d="m202.34 240.55l7.07 3.81c0.37 0.2 0.39 0.56 0.04 0.81l-6.73 4.75c-0.36 0.25-0.94 0.29-1.31 0.09l-7.06-3.85c-0.37-0.21-0.38-0.57-0.02-0.82l6.71-4.7c0.36-0.25 0.94-0.29 1.3-0.09"/>
        <path id="path5275" opacity=".9972" d="m214.96 253.89l-7.75-3.78c-0.43-0.21-1.06-0.17-1.41 0.07l-6.29 4.43c-0.36 0.25-0.32 0.63 0.11 0.85l7.62 4c0.45 0.23 1.11 0.21 1.48-0.06l6.41-4.64c0.36-0.26 0.28-0.65-0.17-0.87"/>
        <path id="path5277" opacity=".9972" d="m221.9 253.92l7.85 3.85c0.63 0.32 0.79 0.84 0.35 1.18l-5.58 4.36c-0.45 0.35-1.33 0.38-1.97 0.05l-7.91-3.98c-0.62-0.31-0.76-0.84-0.3-1.18l5.64-4.23c0.45-0.33 1.3-0.35 1.92-0.05"/>
        <path id="path5279" opacity=".9972" d="m244.76 260.59l-7.17-3.47c-0.53-0.25-1.31-0.18-1.75 0.16l-5.96 4.65c-0.45 0.34-0.38 0.83 0.16 1.09l7.21 3.52c0.53 0.27 1.32 0.19 1.76-0.16l5.93-4.7c0.43-0.35 0.35-0.84-0.18-1.09"/>
        <path id="path5281" opacity=".9972" d="m233.29 256.42l5.17-3.98c0.37-0.3 0.21-0.76-0.38-1.04l-7.85-3.8c-0.57-0.28-1.34-0.27-1.73 0.02l-5.21 3.9c-0.39 0.29-0.23 0.76 0.35 1.04l7.9 3.87c0.58 0.29 1.37 0.28 1.75-0.01"/>
        <path id="path5283" opacity=".9972" d="m224.85 246.56l-7.32-3.62c-0.55-0.27-1.38-0.21-1.86 0.14l-6.56 4.68c-0.5 0.35-0.44 0.85 0.11 1.12l7.45 3.61c0.55 0.27 1.38 0.2 1.86-0.15l6.44-4.68c0.47-0.35 0.42-0.84-0.12-1.1"/>
        <path id="path5285" opacity=".9972" d="m211.22 234.55l6.92 3.18c0.53 0.25 0.64 0.68 0.24 0.98l-5.76 4.28c-0.42 0.31-1.18 0.34-1.69 0.06l-6.7-3.61c-0.44-0.24-0.47-0.66-0.07-0.95l5.53-3.84c0.39-0.27 1.07-0.31 1.53-0.1"/>
        <path id="path5287" opacity=".9972" d="m233.16 239.94l-6.72-3.25c-0.66-0.32-1.59-0.28-2.09 0.09l-5.05 3.68c-0.51 0.37-0.4 0.94 0.26 1.27l6.67 3.36c0.68 0.35 1.64 0.31 2.15-0.07l5.1-3.8c0.51-0.38 0.36-0.95-0.32-1.28"/>
        <path id="path5289" opacity=".9972" d="m220.3 227.88l7.16 3.26c0.37 0.16 0.41 0.47 0.11 0.69l-6.19 4.53c-0.31 0.23-0.87 0.28-1.23 0.11l-7.29-3.41c-0.36-0.16-0.39-0.48-0.07-0.7l6.32-4.39c0.31-0.21 0.84-0.25 1.19-0.09"/>
        <path id="path5291" opacity=".9972" d="m253.83 253.35l-7.02-3.36c-0.56-0.27-1.38-0.19-1.84 0.17l-5.85 4.53c-0.47 0.37-0.4 0.88 0.16 1.16l7.03 3.46c0.57 0.28 1.41 0.21 1.88-0.17l5.84-4.63c0.46-0.37 0.37-0.88-0.2-1.16"/>
        <path id="path5293" opacity=".9972" d="m241.69 250.19l5.17-3.99c0.41-0.31 0.23-0.81-0.4-1.12l-7.86-3.8c-0.63-0.31-1.46-0.3-1.88 0.01l-5.21 3.91c-0.43 0.32-0.26 0.82 0.37 1.13l7.91 3.88c0.64 0.31 1.48 0.3 1.9-0.02"/>
        <path id="path5295" opacity=".9972" d="m262.3 246.87l-7.42-3.42c-0.38-0.18-0.92-0.13-1.22 0.09l-5.64 4.4c-0.3 0.23-0.24 0.57 0.14 0.75l7.36 3.55c0.4 0.2 0.96 0.16 1.26-0.08l5.7-4.54c0.3-0.23 0.22-0.57-0.18-0.75"/>
        <path id="path5297" opacity=".9972" d="m269.92 240.18l-6.61-3.08c-0.49-0.23-1.17-0.19-1.53 0.09l-4.97 3.89c-0.38 0.3-0.28 0.73 0.23 0.96l6.9 3.17c0.51 0.24 1.2 0.18 1.56-0.12l4.69-3.99c0.34-0.28 0.22-0.69-0.27-0.92"/>
        <path id="path5299" opacity=".9972" d="m284.16 244.26l5.93-4.91c0.25-0.21 0.17-0.5-0.17-0.66l-7.86-3.66c-0.33-0.15-0.78-0.12-1.03 0.08l-5.89 4.7c-0.26 0.2-0.2 0.5 0.12 0.66l7.82 3.87c0.34 0.17 0.82 0.13 1.08-0.08"/>
        <path id="path5301" opacity=".9972" d="m290.63 228.42l7.85 3.35c0.49 0.22 0.61 0.61 0.27 0.89l-5.71 4.62c-0.34 0.28-1.01 0.33-1.48 0.11l-7.63-3.56c-0.44-0.21-0.53-0.59-0.2-0.86l5.48-4.42c0.33-0.27 0.97-0.33 1.42-0.13"/>
        <path id="path5303" opacity=".9972" d="m301.87 230.06l4.86-4.05c0.48-0.4 0.34-0.97-0.31-1.27l-6.7-3.1c-0.69-0.32-1.66-0.24-2.16 0.17l-5.1 4.14c-0.51 0.42-0.35 1.01 0.36 1.32l6.94 3c0.68 0.29 1.62 0.19 2.11-0.21"/>
        <path id="path5305" opacity=".9972" d="m229.76 221.52l6.54 2.83c0.48 0.21 0.54 0.61 0.14 0.9l-5.7 4.1c-0.42 0.3-1.13 0.37-1.61 0.15l-6.55-2.96c-0.46-0.2-0.5-0.6-0.09-0.89l5.71-3.99c0.41-0.28 1.1-0.34 1.56-0.14"/>
        <path id="path5307" opacity=".9972" d="m241.43 233.77l-6.56-3.26c-0.58-0.28-1.4-0.26-1.84 0.06l-5.02 3.64c-0.44 0.31-0.32 0.79 0.26 1.07l6.62 3.19c0.57 0.28 1.37 0.25 1.8-0.06l4.98-3.57c0.43-0.31 0.33-0.79-0.24-1.07"/>
        <path id="path5309" opacity=".9972" d="m250.22 243.4l5.17-4.1c0.5-0.39 0.32-0.98-0.39-1.32l-7.07-3.33c-0.7-0.33-1.68-0.29-2.2 0.08l-5.4 3.89c-0.56 0.4-0.44 1.01 0.28 1.36l7.3 3.54c0.74 0.36 1.77 0.31 2.31-0.12"/>
        <path id="path5311" opacity=".9972" d="m259.03 236.38l4.97-3.86c0.49-0.39 0.29-0.95-0.45-1.27l-7.09-3.07c-0.67-0.29-1.6-0.24-2.07 0.12l-4.81 3.61c-0.49 0.37-0.35 0.92 0.31 1.23l6.92 3.32c0.72 0.35 1.72 0.32 2.22-0.08"/>
        <path id="path5313" opacity=".9972" d="m249.93 227.48l-6.35-3.22c-0.64-0.32-1.55-0.29-2.04 0.06l-5.03 3.64c-0.52 0.37-0.41 0.94 0.25 1.27l6.54 3.3c0.65 0.33 1.58 0.28 2.07-0.1l4.85-3.71c0.47-0.37 0.34-0.92-0.29-1.24"/>
        <path id="path5315" opacity=".9972" d="m278.38 233.43l-6.51-2.93c-0.51-0.23-1.26-0.16-1.68 0.16l-5.26 4.08c-0.43 0.33-0.36 0.79 0.15 1.03l6.47 3.06c0.53 0.25 1.3 0.18 1.73-0.16l5.3-4.21c0.42-0.33 0.33-0.79-0.2-1.03"/>
        <path id="path5317" opacity=".9972" d="m286.65 226.74l-5.9-2.89c-0.59-0.29-1.48-0.21-1.98 0.17l-5.09 3.94c-0.52 0.4-0.44 0.95 0.18 1.25l6.1 2.86c0.6 0.28 1.49 0.19 1.98-0.21l4.89-3.91c0.48-0.39 0.4-0.93-0.18-1.21"/>
        <path id="path5319" opacity=".9972" d="m267.68 229.91l4.79-3.67c0.47-0.37 0.27-0.91-0.45-1.23l-7.14-3.07c-0.7-0.3-1.65-0.26-2.12 0.1l-4.78 3.58c-0.48 0.36-0.3 0.9 0.4 1.21l7.12 3.17c0.72 0.32 1.7 0.28 2.18-0.09"/>
        <path id="path5321" opacity=".9972" d="m258.51 221.23l-6.32-3.02c-0.61-0.29-1.5-0.25-1.98 0.1l-5.01 3.55c-0.51 0.36-0.44 0.91 0.18 1.23l6.35 3.27c0.65 0.33 1.6 0.29 2.11-0.1l4.98-3.8c0.49-0.37 0.35-0.92-0.31-1.23"/>
        <path id="path5323" opacity=".9972" d="m239.23 214.77l6.53 2.89c0.47 0.21 0.52 0.61 0.11 0.91l-5.83 4.23c-0.42 0.3-1.14 0.38-1.61 0.16l-6.59-2.96c-0.47-0.21-0.5-0.62-0.07-0.92l5.88-4.15c0.41-0.29 1.12-0.36 1.58-0.16"/>
        <path id="path5325" opacity=".9972" d="m247.91 208.65l6.63 2.86c0.48 0.2 0.56 0.59 0.18 0.87l-5.37 3.87c-0.39 0.28-1.08 0.33-1.56 0.12l-6.6-2.93c-0.47-0.21-0.54-0.6-0.15-0.87l5.34-3.8c0.38-0.27 1.06-0.33 1.53-0.12"/>
        <path id="path5327" opacity=".9972" d="m266.54 215.36l-6.3-2.85c-0.61-0.28-1.47-0.25-1.92 0.07l-4.62 3.24c-0.47 0.32-0.36 0.82 0.24 1.11l6.2 3.02c0.64 0.32 1.55 0.29 2.02-0.05l4.71-3.4c0.47-0.34 0.32-0.85-0.33-1.14"/>
        <path id="path5329" opacity=".9972" d="m275.86 223.5l4.84-3.74c0.47-0.37 0.29-0.91-0.43-1.21l-7-2.92c-0.69-0.29-1.63-0.24-2.11 0.12l-4.83 3.63c-0.49 0.37-0.33 0.9 0.36 1.2l7 3.04c0.71 0.31 1.68 0.26 2.17-0.12"/>
        <path id="path5331" opacity=".9972" d="m282.59 221.05l5.13-3.99c0.51-0.4 1.36-0.49 1.93-0.22l5.65 2.74c0.57 0.28 0.62 0.82 0.12 1.22l-5.08 4.07c-0.52 0.42-1.4 0.52-1.97 0.24l-5.7-2.83c-0.56-0.28-0.6-0.83-0.08-1.23"/>
        <path id="path5333" opacity=".9972" d="m273.82 209.91l-6.14-2.8c-0.62-0.28-1.46-0.26-1.88 0.05l-4.25 3.11c-0.43 0.31-0.27 0.8 0.37 1.08l6.3 2.81c0.63 0.28 1.46 0.25 1.88-0.07l4.1-3.13c0.4-0.3 0.23-0.78-0.38-1.05"/>
        <path id="path5335" opacity=".9972" d="m257.37 201.77l7.27 3.09c0.31 0.13 0.34 0.4 0.06 0.6l-6.71 4.89c-0.3 0.21-0.79 0.28-1.11 0.14l-7.49-3.23c-0.32-0.14-0.33-0.42-0.03-0.62l6.94-4.75c0.29-0.2 0.77-0.25 1.07-0.12"/>
        <path id="path5337" opacity=".9972" d="m284.09 217.4l4.2-3.22c0.41-0.32 0.18-0.82-0.52-1.12l-7.07-3c-0.71-0.3-1.63-0.29-2.05 0.04l-4.26 3.22c-0.43 0.32-0.19 0.83 0.52 1.13l7.14 3c0.71 0.29 1.62 0.27 2.04-0.05"/>
        <path id="path5339" opacity=".9972" d="m300.1 217.07l16.22-13.1c0.76-0.61 1.08-1.22 0.73-1.35l-7.02-2.75c-0.33-0.13-1.19 0.23-1.94 0.82l-15.97 12.53c-0.81 0.63-1.21 1.27-0.89 1.43l6.77 3.32c0.34 0.16 1.28-0.24 2.1-0.9"/>
        <path id="path5341" opacity=".9972" d="m291.15 211.82l3.81-2.96c0.38-0.3 0.11-0.77-0.6-1.07l-6.9-2.88c-0.67-0.28-1.51-0.28-1.88 0l-3.77 2.84c-0.38 0.29-0.15 0.75 0.52 1.05l6.85 3c0.71 0.31 1.59 0.32 1.97 0.02"/>
        <path id="path5343" opacity=".9972" d="m279.79 205.16l-6.14-2.44c-0.58-0.22-1.3-0.21-1.63 0.02l-3.35 2.43c-0.34 0.25-0.17 0.65 0.39 0.91l6 2.71c0.65 0.29 1.46 0.3 1.82 0.03l3.48-2.71c0.35-0.27 0.09-0.69-0.57-0.95"/>
        <path id="path5345" opacity=".9972" d="m266.64 203.45l-7.42-3.16c-0.32-0.14 0.04-0.68 0.81-1.22l16.02-11.19c0.65-0.46 1.43-0.74 1.74-0.62l7.06 2.73c0.32 0.12 0.06 0.6-0.58 1.08l-15.67 11.63c-0.75 0.56-1.63 0.9-1.96 0.75"/>
        <path id="path5347" d="m306.09 198.05s-16.23-6.29-16.23-6.29c-1.11-0.43-2.52-0.42-3.14 0.04l-10.85 8.02c-0.65 0.48-0.78 0.89 0.48 1.25l6.17 2.52c1 0.41 0.99 0.43 1.86-0.21l1.15-0.84c0.26-0.18 1.01-0.25 1.83 0.1l8.35 3.6c0.93 0.26 1.73 0.33 2.25-0.08l8.69-6.83c0.5-0.39 0.26-0.96-0.56-1.28"/>
      </g>
      <path id="path2379" d="m195.84 316.18c2.18 1.34 1.89 2.3-0.57 4.51-2.48 2.22 0.73-0.99 1.4-2.02 0.71-1.06-2.96-3.81-0.83-2.49z" fill="#fff" fill-rule="evenodd"/>
      <path id="path3350" d="m216.17 300.17c2.18 1.34 2.62 2.01 0.16 4.22-2.48 2.22 0.48-0.96 1.28-2.05 0.78-1.06-3.57-3.49-1.44-2.17z" fill="#fff" fill-rule="evenodd"/>
      <path id="path3352" d="m206.46 308.32c2.17 1.34 2.74 1.82 0.28 4.03-2.48 2.22 0.61-1.22 1.09-1.86 0.56-0.75-3.51-3.49-1.37-2.17z" fill="#fff" fill-rule="evenodd"/>
      <path id="path3354" d="m225.51 292.47c2.17 1.34 2.74 1.82 0.28 4.02-2.48 2.23 1.22-0.86 0.99-2.08-0.22-1.2-3.41-3.26-1.27-1.94z" fill="#fff" fill-rule="evenodd"/>
      <path id="path3356" d="m203.5 293.36c2.13 1.32 2.52 1.77-0.02 3.9-2.55 2.13 1.06-1.49 1.31-1.98 0.25-0.48-3.43-3.24-1.29-1.92z" fill="#fff" fill-rule="evenodd"/>
      <path id="path3358" d="m189 289.3c2.59 1.44 2.95 1.91 0.29 4.03-2.67 2.13 1.09-1.12 1.09-2.11 0-1.02-3.95-3.35-1.38-1.92z" fill="#fff" fill-rule="evenodd"/>
      <path id="path3360" d="m171.17 285.43c2.3 1.22 3 1.95 0.29 4.03-2.72 2.07 1.37-1.12 1.15-2.08-0.24-1.02-3.72-3.15-1.44-1.95z" fill="#fff" fill-rule="evenodd"/>
      <path id="path3362" d="m155.95 281.5c2.18 1.28 2.88 2.05 0.29 4.03-2.6 1.99 1.18-0.86 0.96-2.14s-3.45-3.18-1.25-1.89z" fill="#fff" fill-rule="evenodd"/>
      <path id="path3364" d="m161.1 292.56c2.17 1.34 2.87 1.93 0.29 4.03-2.58 2.09-4.23 3.21-0.74 0.13 3.52-3.1-1.69-5.48 0.45-4.16z" fill="#fff" fill-rule="evenodd"/>
      <path id="path3366" d="m178.74 296.62c3.62 1.92 3.07 1.69-2.62 6.23-5.67 4.53 2.64-2.76 3.49-3.7 0.81-0.92-4.45-4.43-0.87-2.53z" fill="#fff" fill-rule="evenodd"/>
      <path id="path3368" d="m193.22 300.42c2.18 1.35 2.27 2.94-3.83 7.87-6.13 4.93 5.67-4.4 4.12-6.4-1.5-1.94-2.42-2.79-0.29-1.47z" fill="#fff" fill-rule="evenodd"/>
      <path id="path3370" d="m145.18 288.69c2.62 1.54 2.69 2.21 0 4.22-2.65 1.99 1.44-1.28 1.22-2.23-0.22-0.93-3.81-3.51-1.22-1.99z" fill="#fff" fill-rule="evenodd"/>
      <path id="path3372" d="m165.74 274.57c2.17 1.34 2.87 2.01 0.28 4.02-2.62 2.04 0.77-1.34 1.19-1.85 0.38-0.47-3.61-3.49-1.47-2.17z" fill="#fff" fill-rule="evenodd"/>
      <path id="path3374" d="m181.27 278.15c2.17 1.34 2.75 1.82 0.29 4.02-2.48 2.23 1.02-0.83 0.8-2.11-0.23-1.27-3.23-3.23-1.09-1.91z" fill="#fff" fill-rule="evenodd"/>
      <path id="path3376" d="m198.27 281.88c2.17 1.35 2.74 1.83 0.28 4.03-2.48 2.22 1.03-0.83 0.8-2.11-0.22-1.27-3.22-3.24-1.08-1.92z" fill="#fff" fill-rule="evenodd"/>
      <path id="path3378" d="m213.09 285.58c2.81 1.38 3.2 1.77 0.29 4.02-2.87 2.22 1.34-1.33 1.25-2.2-0.09-0.82-4.38-3.23-1.54-1.82z" fill="#fff" fill-rule="evenodd"/>
      <path id="path3380" d="m175.13 267.66c2.18 1.34 2.87 1.97 0.29 4.03-2.55 2.03 1.02-0.9 0.99-2.05s-3.41-3.3-1.28-1.98z" fill="#fff" fill-rule="evenodd"/>
      <path id="path3382" d="m190.73 270.86c2.24 1.21 2.88 1.88 0.29 4.03-2.55 2.1 1.21-0.77 0.99-2.05-0.22-1.27-3.53-3.2-1.28-1.98z" fill="#fff" fill-rule="evenodd"/>
      <path id="path3384" d="m207.56 274.68c2.17 1.34 2.75 1.82 0.29 4.03-2.49 2.22 1.02-0.84 0.79-2.11-0.22-1.28-3.22-3.24-1.08-1.92z" fill="#fff" fill-rule="evenodd"/>
      <path id="path3386" d="m223.2 277.63c3.04 1.66 2.75 1.83 0.29 4.03-2.48 2.23 1.26-1.42 1.16-2.24-0.09-0.73-4.44-3.43-1.45-1.79z" fill="#fff" fill-rule="evenodd"/>
      <path id="path3388" d="m277.38 248.7c4.57 2.57 4.11 1.43-6.49 10.22-10.51 8.72 3.45-4.23 6.23-6.78 2.76-2.52-4.38-6.04 0.26-3.44z" fill="#fff" fill-rule="evenodd"/>
      <path id="path3390" d="m231.58 270.35c2.17 1.34 2.75 1.82 0.29 4.02-2.49 2.23 1.02-0.83 0.79-2.11-0.22-1.27-3.22-3.23-1.08-1.91z" fill="#fff" fill-rule="evenodd"/>
      <path id="path3392" d="m241.29 263.7c2.18 1.34 2.75 1.82 0.29 4.03-2.48 2.22 1.03-0.83 0.8-2.11-0.22-1.28-3.22-3.24-1.09-1.92z" fill="#fff" fill-rule="evenodd"/>
      <path id="path3394" d="m250.24 256.54c2.18 1.34 2.75 1.82 0.29 4.03-2.48 2.22 1.02-0.83 0.8-2.11s-3.22-3.24-1.09-1.92z" fill="#fff" fill-rule="evenodd"/>
      <path id="path3396" d="m258.68 249.38c2.18 1.34 2.75 1.82 0.29 4.03-2.48 2.22 1.02-0.83 0.8-2.11s-3.22-3.24-1.09-1.92z" fill="#fff" fill-rule="evenodd"/>
      <path id="path3398" d="m215.09 267.41c2.17 1.34 2.74 1.82 0.28 4.02-2.48 2.23 1.03-0.83 0.8-2.11-0.22-1.27-3.22-3.23-1.08-1.91z" fill="#fff" fill-rule="evenodd"/>
      <path id="path3400" d="m200.55 263.45c3.77 1.98 3.13 1.95 0.29 4.03-2.79 2.03 0.43-0.83 1.2-1.93 0.74-1.06-5.24-4.07-1.49-2.1z" fill="#fff" fill-rule="evenodd"/>
      <path id="path3402" d="m185.49 260.5c2.81 1.66 3.19 1.76 0.29 4.03-2.87 2.24 1.27-0.77 1.05-2.05-0.22-1.27-4.11-3.61-1.34-1.98z" fill="#fff" fill-rule="evenodd"/>
      <path id="path3404" d="m194.5 253.47c2.17 1.34 2.75 1.82 0.29 4.03-2.48 2.22 1.02-0.83 0.8-2.11-0.22-1.27-3.22-3.24-1.09-1.92z" fill="#fff" fill-rule="evenodd"/>
      <path id="path3406" d="m204.79 246.89c2.18 1.34 2.75 1.82 0.29 4.02-2.48 2.23 1.02-0.83 0.8-2.11-0.22-1.27-3.22-3.23-1.09-1.91z" fill="#fff" fill-rule="evenodd"/>
      <path id="path3408" d="m209.97 256.35c2.17 1.34 2.75 1.82 0.29 4.02-2.48 2.23 1.02-0.83 0.8-2.1-0.22-1.28-3.22-3.24-1.09-1.92z" fill="#fff" fill-rule="evenodd"/>
      <path id="path3410" d="m219.94 249c2.18 1.34 2.75 1.82 0.29 4.02-2.48 2.23 1.02-0.83 0.8-2.11-0.22-1.27-3.22-3.23-1.09-1.91z" fill="#fff" fill-rule="evenodd"/>
      <path id="path3412" d="m226.08 260.57c2.17 1.34 2.75 1.82 0.29 4.02-2.48 2.23 1.02-0.83 0.8-2.11-0.23-1.27-3.23-3.23-1.09-1.91z" fill="#fff" fill-rule="evenodd"/>
      <path id="path3414" d="m234.39 254.11c2.17 1.34 2.75 1.82 0.29 4.03-2.48 2.22 1.02-0.83 0.8-2.11-0.23-1.28-3.23-3.24-1.09-1.92z" fill="#fff" fill-rule="evenodd"/>
      <path id="path3416" d="m229.28 242.22c2.17 1.34 2.75 1.82 0.28 4.03-2.48 2.22 1.03-0.83 0.8-2.11-0.22-1.28-3.22-3.24-1.08-1.92z" fill="#fff" fill-rule="evenodd"/>
      <path id="path3418" d="m243.01 247.59c2.38 1.2 2.84 1.82 0.38 4.03-2.48 2.22 1.3-1.51 1.21-2.2s-4.04-3.06-1.59-1.83z" fill="#fff" fill-rule="evenodd"/>
      <path id="path3420" d="m213.87 239.98c2.17 1.35 2.75 1.82 0.29 4.03-2.48 2.22 1.02-0.83 0.8-2.11-0.23-1.27-3.23-3.24-1.09-1.92z" fill="#fff" fill-rule="evenodd"/>
      <path id="path3422" d="m222.92 233.04c2.4 1.16 3.02 1.96 0.29 4.03-2.73 2.06 1.43-1.65 1.34-2.29-0.1-0.74-4.01-2.89-1.63-1.74z" fill="#fff" fill-rule="evenodd"/>
      <path id="path3424" d="m246.65 229.49c2.35 1.25 3.24 1.6 0.28 4.03-2.93 2.41 1.43-0.92 1.21-2.2-0.22-1.27-3.83-3.07-1.49-1.83z" fill="#fff" fill-rule="evenodd"/>
      <path id="path3426" d="m237.71 235.85c2.31 1.18 2.93 2 0.29 4.02-2.64 2.03 1.38-1.37 1.25-2.2-0.15-0.92-3.84-3-1.54-1.82z" fill="#fff" fill-rule="evenodd"/>
      <path id="path3428" d="m284.38 228.84c2.29 1.21 2.67 2.01 0.29 4.03-2.39 2.03 0.84-1.13 1.18-1.8 0.34-0.64-3.74-3.43-1.47-2.23z" fill="#fff" fill-rule="evenodd"/>
      <path id="path3430" d="m232.52 226.41c2.27 1.12 2.89 1.73 0.29 3.76-2.62 2.04 1.43-1.38 1.25-2.07-0.17-0.68-3.76-2.79-1.54-1.69z" fill="#fff" fill-rule="evenodd"/>
      <path id="path3432" d="m242.5 219.69c3.37 1.84 2.25 1.55-0.3 3.62-2.52 2.05 1.56-1.47 1.34-2.2-0.22-0.72-4.41-3.25-1.04-1.42z" fill="#fff" fill-rule="evenodd"/>
      <path id="path3434" d="m255.29 223.29c2.47 1.3 3 1.96 0.29 4.03s1.32-1.44 1.23-2.11c-0.09-0.69-3.97-3.2-1.52-1.92z" fill="#fff" fill-rule="evenodd"/>
      <path id="path3436" d="m269.1 227.39c2.18 1.34 2.75 1.82 0.29 4.03-2.48 2.22 1.02-0.83 0.8-2.11s-3.22-3.24-1.09-1.92z" fill="#fff" fill-rule="evenodd"/>
      <path id="path3438" d="m260.47 233.78c2.18 1.34 2.75 1.82 0.29 4.03-2.48 2.22 1.02-0.83 0.8-2.11-0.22-1.27-3.22-3.24-1.09-1.92z" fill="#fff" fill-rule="evenodd"/>
      <path id="path3440" d="m252 240.42c2.77 1.43 2.89 1.87 0.29 4.03-2.59 2.15 1.3-1.47 1.21-2.29-0.1-0.89-4.17-3.13-1.5-1.74z" fill="#fff" fill-rule="evenodd"/>
      <path id="path3442" d="m266.74 242.22c2.17 1.34 2.75 1.82 0.28 4.03-2.48 2.22 1.03-0.83 0.8-2.11-0.22-1.28-3.22-3.24-1.08-1.92z" fill="#fff" fill-rule="evenodd"/>
      <path id="path3444" d="m275.78 235.81c2.51 1.21 2.91 1.75 0.31 3.89-2.58 2.13 1.43-1.4 1.34-2.2-0.09-0.78-4.11-2.87-1.65-1.69z" fill="#fff" fill-rule="evenodd"/>
      <path id="path3446" d="m286.95 240.94c2.69 1.44 2.98 1.81 0.29 4.03-2.67 2.21 0.2-0.57 1.01-1.6 0.78-1-3.96-3.86-1.3-2.43z" fill="#fff" fill-rule="evenodd"/>
      <path id="path3448" d="m295.77 234.09c2.52 1.14 2.93 1.77 0.29 4.02-2.62 2.24-0.01-0.48 1.05-1.72 1.04-1.22-3.82-3.43-1.34-2.3z" fill="#fff" fill-rule="evenodd"/>
      <path id="path3450" d="m304.37 227.14c2.46 1.3 2.75 1.83 0.28 4.03-2.48 2.23 0.08-0.67 0.71-1.86 0.68-1.27-3.43-3.45-0.99-2.17z" fill="#fff" fill-rule="evenodd"/>
      <path id="path3452" d="m293.12 221.54c2.35 1.15 2.86 1.89 0.29 4.03s1.2-1.43 1.13-2.24c-0.06-0.79-3.77-2.94-1.42-1.79z" fill="#fff" fill-rule="evenodd"/>
      <path id="path3454" d="m277.51 220.7c2.86 1.62 2.89 2.01 0.29 4.03-2.62 2.04-1.03 0.14 0.76-1.25 1.81-1.41-3.79-4.33-1.05-2.78z" fill="#fff" fill-rule="evenodd"/>
      <path id="path3456" d="m263.22 217.42c2.17 1.34 2.75 1.82 0.29 4.02-2.48 2.23 1.02-0.83 0.8-2.11-0.23-1.27-3.23-3.23-1.09-1.91z" fill="#fff" fill-rule="evenodd"/>
      <path id="path3458" d="m251.16 213.32c3.23 1.46 3.2 1.55 0.19 3.66-3.02 2.13 1.52-1.13 1.25-2.06-0.26-0.96-4.64-3.05-1.44-1.6z" fill="#fff" fill-rule="evenodd"/>
      <path id="path3460" d="m260.86 206.1c2.17 1.34 2.74 1.82 0.28 4.03-2.48 2.22 1.03-0.83 0.8-2.11-0.22-1.27-3.22-3.24-1.08-1.92z" fill="#fff" fill-rule="evenodd"/>
      <path id="path3462" d="m271.02 211.73c2.17 1.34 2.75 1.82 0.29 4.03-2.48 2.22 1.02-0.84 0.8-2.11-0.23-1.28-3.23-3.24-1.09-1.92z" fill="#fff" fill-rule="evenodd"/>
      <path id="path3464" d="m284.99 215c2.72 1.25 3.11 1.82 0.29 4.03-2.77 2.16-0.24 0.07 1.07-1.75 1.21-1.68-4-3.5-1.36-2.28z" fill="#fff" fill-rule="evenodd"/>
      <path id="path3466" d="m276.9 206.81c2.17 1.34 2.75 1.82 0.29 4.02-2.48 2.23 1.02-0.83 0.8-2.11-0.23-1.27-3.23-3.23-1.09-1.91z" fill="#fff" fill-rule="evenodd"/>
      <path id="path3468" d="m292.18 209.68c2.17 1.34 2.75 1.82 0.29 4.03-2.48 2.22 1.02-0.83 0.8-2.11-0.23-1.27-3.23-3.24-1.09-1.92z" fill="#fff" fill-rule="evenodd"/>
      <path id="path3470" d="m314.68 204.25c3.07 1.15 3.2 1.31-3.29 6.55-6.46 5.21 1.59-1.72 3.77-3.77 2.19-2.06-3.54-3.93-0.48-2.78z" fill="#fff" fill-rule="evenodd"/>
      <path id="path3472" d="m303.62 199.97c2.17 1.34 2.75 1.82 0.29 4.02-2.48 2.23 1.02-0.83 0.8-2.11-0.22-1.27-3.22-3.23-1.09-1.91z" fill="#fff" fill-rule="evenodd"/>
      <path id="path3474" d="m281.08 191.31c3.89 1.56 3.74 1.41-2.38 6.1s2.69-2.55 3.96-3.78-5.51-3.91-1.58-2.32z" fill="#fff" fill-rule="evenodd"/>
      <path id="path3477" d="m247.05 21.87l-205.94 67.633 7.387 49.637c68.053-35 144.38-12.53 197.65-35.41l0.9-81.86z" fill="url(#linearGradient2500)" fill-rule="evenodd"/>
      <path id="path2180" stroke-linejoin="round" d="m27.882 75.747c4.183-1.54 5.507-0.966 7.068 0.887l30.138 201.16-8.447-4.25-28.759-197.79z" fill-rule="evenodd" stroke="#333" stroke-linecap="round" stroke-width=".81824" fill="#1a1a1a"/>
      <path id="path13298" d="m92.829 259.35l138.08-84.63c1.74 1.06 3.26 2.26 3.32 4.34l-137.57 84.77c-0.239-1.97-1.543-3.45-3.831-4.48z" fill="#808080" fill-rule="evenodd"/>
      <path id="path14269" opacity=".67" d="m166.44 236.84l62.49-41.19 0.53 0.88-61.43 41.72-1.59-1.41z" fill-rule="evenodd" transform="matrix(1.0228 0 0 1.0228 -6.1273 -1.9736)" filter="url(#filter16257)" fill="#fff"/>
      <path id="path16261" opacity=".67" d="m114.55 270.07l15.56-10.08 0.53 0.89-14.5 10.6-1.59-1.41z" fill-rule="evenodd" transform="matrix(1.0228 0 0 1.0228 -6.1273 -1.9736)" filter="url(#filter16257)" fill="#fff"/>
      <path id="path16263" opacity=".67" d="m114.55 270.07l15.56-10.08 0.53 0.89-14.5 10.6-1.59-1.41z" fill-rule="evenodd" transform="matrix(1.0228 0 0 1.0228 -6.1273 -1.9736)" filter="url(#filter16257)" fill="#fff"/>
      <path id="path16267" opacity=".67" d="m166.44 236.84l62.49-41.19 0.53 0.88-61.43 41.72-1.59-1.41z" fill-rule="evenodd" transform="matrix(1.0228 0 0 1.0228 -6.1273 -1.9736)" filter="url(#filter16257)" fill="#fff"/>
      <path id="path16269" opacity=".9972" stroke-linejoin="round" d="m104.06 273.38c2.54-2.35 9.08 2.06 8.43 4.99l-8.43-4.99z" fill-rule="evenodd" stroke="#000" stroke-linecap="round" stroke-width=".20456" fill="#666"/>
      <path id="path25800" d="m304.07 248.2c-1.9 0.09-3.62 0.6-4.73 1.53l-38.77 32.44c-2.64 2.21-1.71 5.49 2.14 7.35 0 0 5.03 2.41 9.97 4.77 33.99-6.14 11.32-41.26 41.27-43.28-1.34-0.59-4.06-1.79-4.06-1.79-1.82-0.78-3.92-1.12-5.82-1.02z" fill="url(#linearGradient2490)"/>
    </g>
  </g>
  <metadata>
    <rdf:RDF>
      <cc:Work>
        <dc:format>image/svg+xml</dc:format>
        <dc:type rdf:resource="http://purl.org/dc/dcmitype/StillImage"/>
        <cc:license rdf:resource="http://creativecommons.org/licenses/publicdomain/"/>
        <dc:publisher>
          <cc:Agent rdf:about="http://openclipart.org/">
            <dc:title>Openclipart</dc:title>
          </cc:Agent>
        </dc:publisher>
        <dc:title>Laptop</dc:title>
        <dc:date>2007-08-27T04:44:25</dc:date>
        <dc:description>its a detailed clip art of a laptop, with buttons, touch pad and a shiny monitor, &#xD;\n&#xD;\nyou can modify this in any way you like, you can use this any way you like with no conditions&#xD;\n&#xD;\nthe thumbnail makes it look a little messed up,the shadow of the monitor is unblurred :(, open it with inkscape for best results</dc:description>
        <dc:source>http://openclipart.org/detail/5012/laptop-by-metalmarious</dc:source>
        <dc:creator>
          <cc:Agent>
            <dc:title>metalmarious</dc:title>
          </cc:Agent>
        </dc:creator>
        <dc:subject>
          <rdf:Bag>
            <rdf:li>clip art</rdf:li>
            <rdf:li>clipart</rdf:li>
            <rdf:li>computer</rdf:li>
            <rdf:li>how i did it</rdf:li>
            <rdf:li>image</rdf:li>
            <rdf:li>laptop</rdf:li>
            <rdf:li>media</rdf:li>
            <rdf:li>png</rdf:li>
            <rdf:li>public domain</rdf:li>
            <rdf:li>svg</rdf:li>
            <rdf:li>technology</rdf:li>
          </rdf:Bag>
        </dc:subject>
      </cc:Work>
      <cc:License rdf:about="http://creativecommons.org/licenses/publicdomain/">
        <cc:permits rdf:resource="http://creativecommons.org/ns#Reproduction"/>
        <cc:permits rdf:resource="http://creativecommons.org/ns#Distribution"/>
        <cc:permits rdf:resource="http://creativecommons.org/ns#DerivativeWorks"/>
      </cc:License>
    </rdf:RDF>
  </metadata>
</svg>
