<?xml version="1.0" encoding="UTF-8" standalone="no"?>
<!-- Created with Inkscape (http://www.inkscape.org/) -->
<svg xmlns:rdf="http://www.w3.org/1999/02/22-rdf-syntax-ns#" xmlns="http://www.w3.org/2000/svg" xmlns:cc="http://creativecommons.org/ns#" xmlns:xlink="http://www.w3.org/1999/xlink" xmlns:dc="http://purl.org/dc/elements/1.1/" xmlns:svg="http://www.w3.org/2000/svg" xmlns:inkscape="http://www.inkscape.org/namespaces/inkscape" xmlns:sodipodi="http://sodipodi.sourceforge.net/DTD/sodipodi-0.dtd" xmlns:ns1="http://sozi.baierouge.fr" id="svg2" style="fill-rule:evenodd" xml:space="preserve" version="1.1" viewBox="0 0 102.261 200.655" inkscape:version="0.91 r13725">
 <defs id="defs4"><style id="style149" type="text/css"/><linearGradient id="id2" y2="40.946" gradientUnits="userSpaceOnUse" x2="61.718" y1="56.95" x1="61.718">
   <stop id="stop164" style="stop-color:#00923f" offset="0"/>
   <stop id="stop166" style="stop-color:#7fc99f" offset=".72157"/>
   <stop id="stop168" style="stop-color:#ffffff" offset="1"/>
  </linearGradient><linearGradient id="id3" y2="151.2" gradientUnits="userSpaceOnUse" x2="40.749" gradientTransform="translate(1.4317)" y1="167.2" x1="40.749">
   <stop id="stop171" style="stop-color:#974578" offset="0"/>
   <stop id="stop173" style="stop-color:#cba2bb" offset=".72157"/>
   <stop id="stop175" style="stop-color:#ffffff" offset="1"/>
  </linearGradient><linearGradient id="id4" y2="40.946" gradientUnits="userSpaceOnUse" x2="84.149" y1="56.95" x1="84.149">
   <stop id="stop178" style="stop-color:#fff500" offset="0"/>
   <stop id="stop180" style="stop-color:#fffa7f" offset=".72157"/>
   <stop id="stop182" style="stop-color:#ffffff" offset="1"/>
  </linearGradient><linearGradient id="id5" y2="71.072" gradientUnits="userSpaceOnUse" x2="61.556" gradientTransform="translate(0 2.6569)" y1="87.076" x1="61.556">
   <stop id="stop185" style="stop-color:#3300cc" offset="0"/>
   <stop id="stop187" style="stop-color:#997fe5" offset=".72157"/>
   <stop id="stop189" style="stop-color:#ffffff" offset="1"/>
  </linearGradient><linearGradient id="id6" y2="71.072" gradientUnits="userSpaceOnUse" x2="38.962" gradientTransform="translate(0 2.6569)" y1="87.076" x1="38.962">
   <stop id="stop192" style="stop-color:#ff6600" offset="0"/>
   <stop id="stop194" style="stop-color:#ffb37f" offset=".72157"/>
   <stop id="stop196" style="stop-color:#ffffff" offset="1"/>
  </linearGradient><linearGradient id="id7" y2="100.8" gradientUnits="userSpaceOnUse" x2="16.325" y1="116.8" x1="16.325">
   <stop id="stop199" style="stop-color:#006633" offset="0"/>
   <stop id="stop201" style="stop-color:#7fb399" offset=".72941"/>
   <stop id="stop203" style="stop-color:#ffffff" offset="1"/>
  </linearGradient><linearGradient id="id8" y2="150.98" xlink:href="#id7" gradientUnits="userSpaceOnUse" x2="62.73" gradientTransform="translate(.46388)" y1="166.98" x1="62.73">
  </linearGradient><linearGradient id="id9" y2="151.02" gradientUnits="userSpaceOnUse" x2="85.216" gradientTransform="translate(.0000015707)" y1="167.03" x1="85.216">
   <stop id="stop207" style="stop-color:#00ccff" offset="0"/>
   <stop id="stop209" style="stop-color:#7fe5ff" offset=".72941"/>
   <stop id="stop211" style="stop-color:#ffffff" offset="1"/>
  </linearGradient><linearGradient id="id10" y2="71.072" gradientUnits="userSpaceOnUse" x2="16.368" gradientTransform="translate(0 2.6569)" y1="87.076" x1="16.368">
   <stop id="stop214" style="stop-color:#990000" offset="0"/>
   <stop id="stop216" style="stop-color:#cc7f7f" offset=".72941"/>
   <stop id="stop218" style="stop-color:#ffffff" offset="1"/>
  </linearGradient><linearGradient id="id11" y2="151.24" gradientUnits="userSpaceOnUse" x2="16.489" gradientTransform="translate(.12172)" y1="167.24" x1="16.489">
   <stop id="stop221" style="stop-color:#ff0000" offset="0"/>
   <stop id="stop223" style="stop-color:#ff7f7f" offset=".72941"/>
   <stop id="stop225" style="stop-color:#ffffff" offset="1"/>
  </linearGradient><linearGradient id="id12" y2="71.072" gradientUnits="userSpaceOnUse" x2="84.149" gradientTransform="translate(0 2.6569)" y1="87.076" x1="84.149">
   <stop id="stop228" style="stop-color:#003333" offset="0"/>
   <stop id="stop230" style="stop-color:#7f9999" offset=".74902"/>
   <stop id="stop232" style="stop-color:#ffffff" offset="1"/>
  </linearGradient><linearGradient id="id13" y2="40.946" gradientUnits="userSpaceOnUse" x2="16.368" y1="56.95" x1="16.368">
   <stop id="stop235" style="stop-color:#000000" offset="0"/>
   <stop id="stop237" style="stop-color:#7f7f7f" offset=".85882"/>
   <stop id="stop239" style="stop-color:#ffffff" offset="1"/>
  </linearGradient><linearGradient id="linearGradient3157" y2="100.8" xlink:href="#id7" gradientUnits="userSpaceOnUse" x2="16.325" gradientTransform="translate(-.042279 4.251)" y1="116.8" x1="16.325"/>
 <linearGradient id="linearGradient3269" y2="168.68" gradientUnits="userSpaceOnUse" x2="51.116" y1="144.93" x1="51.116"><stop id="stop159" style="stop-color:#1f1a17" offset="0"/><stop id="stop161" style="stop-color:#ffffff" offset="1"/></linearGradient><linearGradient id="linearGradient3272" y2="46.196" gradientUnits="userSpaceOnUse" x2="39.036" y1="41.923" x1="39.036"><stop id="stop152" style="stop-color:#ffffff" offset="0"/><stop id="stop154" style="stop-color:#d894b3" offset=".090196"/><stop id="stop156" style="stop-color:#b12967" offset="1"/></linearGradient><linearGradient id="linearGradient3277" y2="197.57" gradientUnits="userSpaceOnUse" x2="54.853" y1="187.3" x1="45.351"><stop id="stop242" style="stop-color:#1f1a17" offset="0"/><stop id="stop244" style="stop-color:#4d4948" offset="1"/></linearGradient><linearGradient id="linearGradient4056" y2="85.61" gradientUnits="userSpaceOnUse" x2="97.301" y1="85.61" x1="45.93"><stop id="stop4052" style="stop-color:#838281;stop-opacity:.40556" offset="0"/><stop id="stop4054" style="stop-color:#838281;stop-opacity:0" offset="1"/></linearGradient>
  </defs>
 <rect id="rect248" style="stroke:#1f1a17;stroke-width:.18828;fill:#dededd" rx="7.2755" ry="7.2755" height="200.47" width="102.07" y=".094145" x=".094140"/><rect id="rect250" style="stroke:#1f1a17;stroke-width:.18828;fill:#1f1a17" rx="7.2755" ry="7.2755" height="197.99" width="99.868" y="1.431" x="1.3622"/><circle id="circle252" cy="186.64" cx="50.16" r="9.6862" style="stroke:#4d4948;stroke-width:.18828;fill:#1f1a17"/><path id="path254" style="stroke:#1f1a17;stroke-width:.18828;fill:url(#linearGradient3277)" d="m59.523 188.9c-5.7972 2.2952-12.078 2.527-18.842 0.69561 1.1671 3.771 4.9832 6.382 9.3302 6.382 4.6437 0 8.6362-2.97 9.5123-7.0776z"/><rect id="rect256" style="stroke:#c2c1c1;stroke-width:.18828;fill:none" rx=".41055" ry=".41055" height="6.8079" width="6.8079" y="183.24" x="46.756"/><rect id="rect258" style="stroke:#1f1a17;stroke-width:.18067;fill:#ffffff" rx="2.5358" ry="2.6035" height="15.823" width="15.823" y="42.215" x="30.793"/><path id="path260" style="stroke:#ffffff;stroke-width:.18706;fill:url(#linearGradient3272)" d="m33.233 42.595h10.985c1.1473 0 2.086 0.98623 2.086 2.1918v2.0816h-15.157v-2.0816c0-1.2056 0.93875-2.1918 2.0859-2.1918z"/><rect id="rect262" style="stroke:#1f1a17;stroke-width:.18828;fill:url(#linearGradient3269)" height="23.752" width="94.251" y="144.93" x="3.9904"/><g id="_147005968">
   <rect id="_147006064" style="stroke:#383431;stroke-width:.18828;fill:#1f1a17" rx=".73308" ry=".73308" height="2.8742" width="20.121" y="14.054" x="41.233"/>
   <path id="_147005992" style="fill-rule:nonzero;stroke:#383431;stroke-width:.18828;fill:#72706f" d="m41.863 16.24h18.866 0.68676l-0.53755 0.43258c-0.19581 0.15731-0.43192 0.28506-0.69354 0.37129-0.24929 0.08228-0.52296 0.12813-0.80755 0.12813h-16.163c-0.28459 0-0.55826-0.04585-0.80755-0.12813-0.26162-0.08623-0.49773-0.21398-0.69354-0.37129l-0.53783-0.43258h0.68704z"/>
  </g><g id="_146909992">
   <g id="g268">
    <circle id="_147005896" cy="34.692" cx="34.616" r=".48558" style="stroke:#ffffff;stroke-width:.071736;fill:#ffffff"/>
    <path id="_147005824" style="stroke:#ffffff;stroke-width:.18828;fill:none" d="m32.646 33.204c1.177-0.60721 2.4301-0.60721 3.7588 0"/>
    <path id="_147005752" style="stroke:#ffffff;stroke-width:.18828;fill:none" d="m32.344 32.404c1.4082-0.72649 2.9072-0.72649 4.4968 0"/>
    <path id="_147005680" style="stroke:#ffffff;stroke-width:.18828;fill:none" d="m33.269 33.825c0.78043-0.40255 1.6112-0.40255 2.4922 0"/>
   </g>
   <rect id="_147005584" style="fill:#ffffff" height="2.6173" width=".97128" y="32.56" x="11.889"/>
   <rect id="_147005512" style="fill:#ffffff" height="2.2295" width=".98148" y="32.948" x="10.723"/>
   <rect id="_146910568" style="fill:#ffffff" height="1.9446" width=".97128" y="33.233" x="9.5676"/>
   <rect id="_146910496" style="fill:#ffffff" height="1.5842" width=".98148" y="33.593" x="8.402"/>
   <rect id="_146910424" style="fill:#ffffff" height=".69523" width=".97128" y="34.482" x="7.2468"/>
   <text id="_146910304" y="35.129501" x="14.5185" style="font-size:4.1308px;font-family:Arial;stroke:#ffffff;stroke-width:.071736;fill:#ffffff">t-online</text>
   <text id="_146910184" y="35.129501" x="46.295898" style="font-size:4.1308px;font-family:Arial;stroke:#ffffff;stroke-width:.071736;fill:#ffffff">11:45</text>
   <g id="g281">
    <rect id="_146910112" style="fill:#ffffff" height="2.6569" width="5.1189" y="32.521" x="90.915"/>
    <rect id="_146910040" style="fill:#ffffff" height="1.6342" width=".71442" y="33.019" x="96.147"/>
   </g>
  </g><text id="text285" y="56.038799" x="32.300861" style="font-size:11.899px;font-weight:bold;font-family:Arial;fill:#1f1a17">20</text>
<text id="text287" y="45.747139" x="32.678406" style="font-size:3.584px;font-family:Arial;fill:#ffffff">Montag</text>
<text id="text289" y="90.062546" x="81.10112" style="font-size:4.2833px;font-family:Arial;fill:#ffffff">Uhr</text>
<text id="text291" y="90.062546" x="56.458923" style="font-size:4.2833px;font-family:Arial;fill:#ffffff">Börse</text>
<text id="text293" y="90.065239" x="32.736923" style="font-size:4.2833px;font-family:Arial;fill:#ffffff">Wetter</text>
<text id="text295" y="90.065239" x="10.525548" style="font-size:4.2833px;font-family:Arial;fill:#ffffff">Musik</text>
<text id="text297" y="117.54996" x="9.0394239" style="font-size:4.2833px;font-family:Arial;fill:#ffffff">Kamera</text>
<text id="text299" y="172.99699" x="9.302454" style="font-size:4.2833px;font-family:Arial;fill:#ffffff">Telefon</text>
<text id="text301" y="173.10899" x="33.168423" style="font-size:4.2833px;font-family:Arial;fill:#ffffff">E-Mail</text>
<text id="text303" y="173.27" x="53.977249" style="font-size:4.2833px;font-family:Arial;fill:#ffffff">Kontakte</text>
<text id="text305" y="173.132" x="79.509521" style="font-size:4.2833px;font-family:Arial;fill:#ffffff">Safari</text>
<text id="text307" y="62.899223" x="29.779472" style="font-size:4.2833px;font-family:Arial;fill:#ffffff">Kalender</text>
<text id="text309" y="62.855022" x="55.11055" style="font-size:4.2833px;font-family:Arial;fill:#ffffff">iTunes</text>
<text id="text311" y="62.855022" x="77.502541" style="font-size:4.2833px;font-family:Arial;fill:#ffffff">iBooks</text>
<text id="text313" y="62.845024" x="4.7739272" style="font-size:4.2833px;font-family:Arial;fill:#ffffff">Nachrichten</text>
<g id="_111408184">
   <g id="g318">
    <path id="_111408376" style="fill:url(#id13)" d="m20.391 56.95h-8.0469c-2.1882 0-3.9785-1.7903-3.9785-3.9785v-8.047c0-2.1881 1.7903-3.9785 3.9785-3.9785h8.0469c2.1881 0 3.9784 1.7904 3.9784 3.9785v8.047c0 2.1882-1.7903 3.9785-3.9784 3.9785z"/>
    <path id="_111408304" style="fill-opacity:.49020;fill:#ffffff" d="m10.734 40.946h11.268c1.3024 0 2.3679 1.4382 2.3679 3.1961v0.000094c0 1.7579-1.0655 3.1961-2.3679 3.1961h-11.268c-1.3024 0-2.3679-1.4382-2.3679-3.1961v-0.000094c0-1.7579 1.0655-3.1961 2.3679-3.1961z"/>
   </g>
   <path id="_111408208" style="fill-rule:nonzero;fill:#ffffff" d="m14.895 52.891c0.62576 0.19732 1.2245 0.28412 1.8711 0.28412 2.7896 0 5.0527-1.7894 5.0527-3.9953 0-2.2058-2.2631-3.9953-5.0527-3.9953-2.7897 0-5.0527 1.7894-5.0527 3.9953 0 1.1219 0.58575 2.1373 1.528 2.8628-0.27207 0.58829-0.54404 1.177-0.81611 1.7653 2.4697-0.91694 1.6462-0.61145 2.4697-0.91694zm-0.35538 0.13048m0.08228-0.03163m-0.000565-0.0018m-0.01638 0.004m0.0034-0.0036m-0.0062-0.000471m-0.0045-0.0013"/>
  </g><g id="g324">
    <path id="_111408112" style="fill:url(#id4)" d="m88.173 56.95h-8.0469c-2.1882 0-3.9785-1.7903-3.9785-3.9785v-8.047c0-2.1881 1.7903-3.9785 3.9785-3.9785h8.0469c2.1881 0 3.9784 1.7904 3.9784 3.9785v8.047c0 2.1882-1.7903 3.9785-3.9784 3.9785z"/>
    <path id="_111408040" style="fill-opacity:.49020;fill:#ffffff" d="m78.515 40.946h11.268c1.3024 0 2.3679 1.4382 2.3679 3.1961v0.000094c0 1.7579-1.0655 3.1961-2.3679 3.1961h-11.268c-1.3024 0-2.3679-1.4382-2.3679-3.1961v-0.000094c0-1.7579 1.0655-3.1961 2.3679-3.1961z"/>
   </g><path id="_111407944" style="stroke:#1f1a17;stroke-width:.071736;fill:#fff500" d="m90.132 47.572c0 0.29899-0.05978 0.6171-0.17454 0.95186-0.12681 0.36113-0.27263 0.59554-0.43531 0.70794l0.39229 0.1124v0.44727l-0.3229 0.10516c-0.03587 0.13641-0.07654 0.36357-0.11956 0.68168-0.0048 0.33486 0.03587 0.66003 0.11956 0.97342l0.3229 0.14582v0.42816l-6.3331 3.2095-4.092-3.5108c-0.46393-0.39709-0.68403-1.0404-0.66012-1.9349 0.0048-0.27979 0.06703-0.48304 0.18179-0.6074 0.06223-0.07183 0.20325-0.16032 0.42816-0.26793 0.16258-0.07889 0.66483-0.1961 1.5066-0.34917l-1.093-0.51175v-0.35162l0.421-0.10996c0.08849-0.33722 0.13152-0.67923 0.13152-1.0237 0-0.07889-0.0072-0.1913-0.01911-0.33722l-2.0544-0.44002v-0.35152l0.26793-0.03351c0.098-0.25832 0.14582-0.56447 0.14582-0.91844 0-0.36113-0.04782-0.67198-0.14582-0.93266h-0.26793v-0.25832l3.6592-0.41375 6.4861 0.42091c0.3085 0.02156 0.56447 0.15788 0.76772 0.4018 0.20335 0.24637 0.30615 0.56447 0.30615 0.95667 0 0.53331-0.26068 0.93511-0.77968 1.2054 0.42091-0.0048 0.70314 0.04547 0.84906 0.15307 0.14347 0.1076 0.26783 0.32526 0.37064 0.65287 0.09329 0.29419 0.14112 0.55967 0.14112 0.79879zm-0.32997 0.02156c0.0047-0.36593-0.07183-0.68403-0.23206-0.95431-0.14827-0.25588-0.3085-0.37544-0.48313-0.35633l-3.9365 0.46882c0.16258 0.42561 0.24392 0.89444 0.24392 1.4086 0 0.54527-0.08369 1.1025-0.25117 1.667l4.1614-0.98058c0.12681-0.02871 0.23921-0.16503 0.33722-0.41375 0.09809-0.24637 0.15072-0.52851 0.16032-0.83946zm-6.7181-3.0063c0.0072-0.4113-0.1028-0.73421-0.33477-0.97098-0.22961-0.23677-0.51185-0.33722-0.84426-0.3037l-3.1953 0.29419c0.1028 0.2941 0.15543 0.61936 0.15543 0.98048 0 0.35397-0.05262 0.69844-0.15543 1.0284l2.9656 0.47833c0.05498 0.0096 0.1124 0.01196 0.16738 0.01196 0.33722 0 0.62425-0.14112 0.86572-0.42326 0.23921-0.28224 0.36593-0.64816 0.37553-1.0954zm2.1931 3.5731c0-0.5142-0.08614-0.98303-0.25352-1.4086l-1.2054-0.22481c-0.80359 0.11231-1.3632 0.16974-1.6813 0.16974-0.07889 0-0.14112-0.0048-0.18179-0.01431l-1.4517-0.31575c0.01431 0.15307 0.02146 0.27028 0.02146 0.34926 0 0.34672-0.05733 0.72941-0.17454 1.1503l4.6732 1.9612c0.16738-0.56447 0.25352-1.1217 0.25352-1.667zm4.2667 3.6161c-0.11721-0.38024-0.17463-0.76283-0.16983-1.1503 0-0.17218 0.03832-0.40415 0.1124-0.69354l-5.7806 1.9755c-0.09329 0.3085-0.13867 0.67198-0.13867 1.093 0 0.5046 0.05018 1.002 0.15307 1.4923l5.8236-2.7169zm-5.9767 2.7169c-0.0981-0.49029-0.14827-0.98773-0.14827-1.4923 0-0.421 0.05018-0.78448 0.14827-1.093l-3.6449-2.3965c-0.1076-0.06929-0.21285-0.10516-0.31566-0.10516-0.27508 0-0.4066 0.22236-0.39944 0.66728 0.0144 0.62416 0.14827 1.0379 0.39944 1.2388l3.9605 3.1808z"/><g id="g330">
    <path id="_111407848" style="fill:url(#id2)" d="m65.741 56.95h-8.0469c-2.1882 0-3.9785-1.7903-3.9785-3.9785v-8.047c0-2.1881 1.7903-3.9785 3.9785-3.9785h8.0469c2.1881 0 3.9784 1.7904 3.9784 3.9785v8.047c0 2.1882-1.7903 3.9785-3.9784 3.9785z"/>
    <path id="_111407776" style="fill-opacity:.49020;fill:#ffffff" d="m56.084 40.946h11.268c1.3024 0 2.3679 1.4382 2.3679 3.1961v0.000094c0 1.7579-1.0655 3.1961-2.3679 3.1961h-11.268c-1.3024 0-2.3679-1.4382-2.3679-3.1961v-0.000094c0-1.7579 1.0655-3.1961 2.3679-3.1961z"/>
   </g><rect id="_111407680" style="stroke:#ffffff;stroke-width:.18828;fill:#ffffff" height="1.7329" width="7.5668" y="47.799" x="58.107"/><rect id="_111407536" style="fill:#ffffff" transform="matrix(.89423 .44762 -.45377 .89112 0 0)" height="4.4287" width=".78796" y="15.05" x="75.491"/><rect id="_111407464" style="fill:#ffffff" transform="matrix(.89120 .45360 -.44862 .89372 0 0)" height=".76352" width=".78793" y="13.777" x="75.405"/><path id="_111407392" style="fill:#ffffff" d="m61.021 46.517 0.70192 0.35783 0.15279-0.30812c0.02523-0.05084-0.11212-0.17294-0.30511-0.27141-0.19308-0.09838-0.37167-0.13726-0.3969-0.08642l-0.153 0.307z"/><path id="_111407320" style="fill-rule:nonzero;fill:#ffffff" d="m58.592 52.162h-0.000094l0.08416-1.0132 0.68733 0.35105-0.7714 0.6621zm0.04199-0.50658m0.38579-0.3311m-0.04208 0.50658"/><circle id="_111407032" cy="48.789" cx="61.877" r="5.4296" style="stroke:#ffffff;stroke-width:.18828;fill:none"/><circle id="_111406960" cy="48.789" cx="61.877" r="6.3921" style="stroke:#1f1a17;stroke-width:.071736;fill:none"/><path id="_111406888" style="stroke:#ffffff;stroke-width:.18828;fill:#ffffff" d="m68.269 48.789c0-3.5296-2.8625-6.3921-6.3921-6.3921-3.5297 0-6.3922 2.8625-6.3922 6.3921 0 3.5297 2.8625 6.3921 6.3922 6.3921 3.5296 0 6.3921-2.8624 6.3921-6.3921zm-6.3921-5.4296c2.9981 0 5.4296 2.4315 5.4296 5.4296 0 2.9982-2.4315 5.4296-5.4296 5.4296-2.9982 0-5.4296-2.4314-5.4296-5.4296 0-2.9981 2.4314-5.4296 5.4296-5.4296z"/><g id="g347" transform="translate(0 -2.6569)">
    <path id="_111368040" style="fill:url(#id10)" d="m20.391 87.076h-8.0469c-2.1882 0-3.9785-1.7903-3.9785-3.9785v-8.047c0-2.1881 1.7903-3.9785 3.9785-3.9785h8.0469c2.1881 0 3.9784 1.7904 3.9784 3.9785v8.047c0 2.1882-1.7903 3.9785-3.9784 3.9785z"/>
    <path id="_111367968" style="fill-opacity:.49020;fill:#ffffff" d="m10.734 71.072h11.268c1.3024 0 2.3679 1.4382 2.3679 3.1961v0.000094c0 1.7579-1.0655 3.1961-2.3679 3.1961h-11.268c-1.3024 0-2.3679-1.4382-2.3679-3.1961v-0.000094c0-1.7579 1.0655-3.1961 2.3679-3.1961z"/>
   </g><path id="_111367872" style="fill:#ffffff" d="m20.941 77.812c0 0.52305-0.31434 0.96674-0.93727 1.328-0.54649 0.3085-1.1018 0.46421-1.6718 0.46421-0.45254 0-0.85208-0.08228-1.1959-0.24091-0.44661-0.20862-0.67283-0.50827-0.67283-0.90489 0-0.49368 0.33787-0.89613 1.0078-1.2046 0.54066-0.25277 1.0872-0.37901 1.6454-0.37901 0.39662 0 0.74626 0.06166 1.0488 0.18216v-3.8578l-5.1476 2.28v5.3297c0 0.51712-0.30558 0.96081-0.91967 1.334-0.54056 0.32611-1.087 0.49057-1.6453 0.49057-0.44661 0-0.84322-0.07927-1.187-0.24091-0.44661-0.19977-0.67283-0.50234-0.67283-0.90489 0-0.48775 0.33496-0.88738 0.99903-1.2046 0.54056-0.25268 1.087-0.37901 1.6453-0.37901 0.37901 0 0.71689 0.05874 1.0166 0.17332v-6.8693l6.6872-2.944v7.548z"/><g id="_111367584" transform="translate(0 -2.6569)">
   <g id="g353">
    <path id="_111367776" style="fill:url(#id6)" d="m42.985 87.076h-8.0469c-2.1882 0-3.9785-1.7903-3.9785-3.9785v-8.047c0-2.1881 1.7903-3.9785 3.9785-3.9785h8.0469c2.1881 0 3.9784 1.7904 3.9784 3.9785v8.047c0 2.1882-1.7903 3.9785-3.9784 3.9785z"/>
    <path id="_111367704" style="fill-opacity:.49020;fill:#ffffff" d="m33.328 71.072h11.268c1.3024 0 2.3679 1.4382 2.3679 3.1961v0.000094c0 1.7579-1.0655 3.1961-2.3679 3.1961h-11.268c-1.3024 0-2.3679-1.4382-2.3679-3.1961v-0.000094c0-1.7579 1.0655-3.1961 2.3679-3.1961z"/>
   </g>
   <path id="_111367608" style="fill:#667ab3" d="m46.709 80.041h-14.9c0.2572-0.70051 0.69721-1.0965 1.3165-1.1879 0.0068-0.15232 0.02372-0.33166 0.05074-0.53472l-0.36546 0.10836 0.04735-0.62614-0.63282-0.06769 0.26736-0.55496-0.5753-0.2877 0.4467-0.43653-0.43654-0.46704 0.58547-0.24703-0.22001-0.59563 0.61587-0.03041v-0.62275l0.59563 0.20645 0.23695-0.58547 0.47711 0.39935 0.41629-0.45687 0.29777 0.53472 0.56513-0.26736 0.08802 0.6058 0.62614-0.05084-0.14893 0.62614 0.21652 0.05752c0.50761-0.6396 1.1913-0.96109 2.0441-0.96109 0.81894 0 1.5635 0.31133 2.2301 0.93059 0.40274-0.23686 0.84605-0.35529 1.3266-0.35529 1.2047 0 1.8883 0.67 2.0542 2.0136 0.11843-0.04067 0.26058-0.06091 0.42637-0.06091 0.46365 0 0.8291 0.13867 1.1 0.4162 0.27066 0.27753 0.40603 0.64638 0.40603 1.11 0 0.12521-0.01017 0.27075-0.03041 0.43653 0.53124 0.13199 0.82233 0.45009 0.87307 0.95102zm-2.0406 1.2419c-0.10158 0.31472-0.14893 0.68366-0.14893 1.0999 0 0.3824-0.16578 0.5753-0.49754 0.5753-0.34173 0-0.5143-0.16578-0.5143-0.49744 0-0.48728 0.38579-0.88324 1.1608-1.1777zm-3.8072 0c-0.08124 0.2572-0.1253 0.51778-0.12869 0.78175-0.0067 0.31142-0.02702 0.50761-0.06091 0.59563-0.06769 0.19628-0.21652 0.29777-0.45687 0.29777-0.32818 0-0.49406-0.16578-0.49406-0.49744 0-0.49406 0.37901-0.89001 1.1405-1.1777zm1.8138 2.0102c-0.10148 0.3181-0.14884 0.68366-0.14884 1.0999 0 0.38579-0.16588 0.5753-0.49744 0.5753-0.33505 0-0.50432-0.159-0.50432-0.48389 0-0.49744 0.3824-0.8934 1.1506-1.1913zm-3.8072 0c-0.08115 0.2572-0.12182 0.52117-0.1286 0.78514-0.0068 0.30803-0.02363 0.50761-0.05074 0.59224-0.07108 0.19967-0.2233 0.29777-0.45687 0.29777-0.33505 0-0.50422-0.159-0.50422-0.48389 0-0.50422 0.37901-0.90018 1.1404-1.1913zm-2.857-7.347c-0.2571-0.7987-0.81216-1.198-1.665-1.198-0.48389 0-0.8934 0.16927-1.2352 0.51109-0.34173 0.33834-0.511 0.75125-0.511 1.2318 0 0.56184 0.2234 1.0187 0.66332 1.3706 0.13538-0.44331 0.38918-0.79521 0.76481-1.0524 0.37562-0.25729 0.7987-0.38579 1.2691-0.38579 0.17934 0 0.34173 0.02024 0.48728 0.06091 0.03719-0.15232 0.11504-0.33166 0.22669-0.53811z"/>
  </g><g id="_111367320" transform="translate(0 -2.6569)">
   <g id="g359">
    <path id="_111367512" style="fill:url(#id5)" d="m65.579 87.076h-8.0469c-2.1882 0-3.9785-1.7903-3.9785-3.9785v-8.047c0-2.1881 1.7903-3.9785 3.9785-3.9785h8.0469c2.1881 0 3.9784 1.7904 3.9784 3.9785v8.047c0 2.1882-1.7903 3.9785-3.9784 3.9785z"/>
    <path id="_111367440" style="fill-opacity:.49020;fill:#ffffff" d="m55.922 71.072h11.268c1.3024 0 2.3679 1.4382 2.3679 3.1961v0.000094c0 1.7579-1.0655 3.1961-2.3679 3.1961h-11.268c-1.3024 0-2.3679-1.4382-2.3679-3.1961v-0.000094c0-1.7579 1.0655-3.1961 2.3679-3.1961z"/>
   </g>
   <path id="_111367344" style="fill:#fff500" d="m67.901 83.993h-12.557v-11.029h12.557v11.029zm-0.38099-7.4604v-3.188h-3.7026v2.9959l0.91506-0.8662 1.231 1.0583h1.5565zm0 1.3351v-1.1072h-1.2896l1.2896 1.1072zm-2.4717-1.3351-0.29626-0.25729-0.27678 0.25729h0.57304zm2.4717 3.6732v-1.5565l-2.2046-1.8888h-1.0779l-0.42006 0.39078v3.0545h3.7026zm-3.9305-3.6732v-3.188h-3.95v3.188h3.95zm3.9305 7.0794v-3.1783h-3.7026v3.1783h3.7026zm-4.1422-6.8515h-3.7383v1.651l1.0583 0.87919 2.6799-2.5302zm0.21172 3.4453v-2.8331l-2.8722 2.7191-1.0778-0.89877v1.0128h3.95zm-4.1812-3.6732v-3.188h-3.683v3.188h3.683zm4.1812 7.0794v-3.1783h-3.95v3.1783h3.95zm-4.1812-5.3893v-1.4622h-3.683v3.1392l2.8461-2.374 0.83692 0.69693zm0 1.9831v-1.2016l-0.83692-0.69684-2.273 1.8985h3.1099zm0 3.4062v-3.1783h-3.3867l-0.29626 0.2475v2.9308h3.683z"/>
  </g><g id="_111367056" transform="translate(0 -2.6569)">
   <g id="g365">
    <path id="_111367248" style="fill:url(#id12)" d="m88.173 87.076h-8.0469c-2.1882 0-3.9785-1.7903-3.9785-3.9785v-8.047c0-2.1881 1.7903-3.9785 3.9785-3.9785h8.0469c2.1881 0 3.9784 1.7904 3.9784 3.9785v8.047c0 2.1882-1.7903 3.9785-3.9784 3.9785z"/>
    <path id="_111367176" style="fill-opacity:.49020;fill:#ffffff" d="m78.515 71.072h11.268c1.3024 0 2.3679 1.4382 2.3679 3.1961v0.000094c0 1.7579-1.0655 3.1961-2.3679 3.1961h-11.268c-1.3024 0-2.3679-1.4382-2.3679-3.1961v-0.000094c0-1.7579 1.0655-3.1961 2.3679-3.1961z"/>
   </g>
   <path id="_111367080" style="fill:#ffffff" d="m84.179 72.867c1.7679 0 3.2759 0.62265 4.5242 1.8711 1.2484 1.2484 1.8712 2.7565 1.8712 4.5242 0 1.7708-0.62275 3.2788-1.8712 4.5273-1.2483 1.2484-2.7564 1.8711-4.5242 1.8711-1.7707 0-3.2788-0.62265-4.5272-1.8711s-1.8712-2.7565-1.8712-4.5273c0-1.7678 0.62275-3.2758 1.8712-4.5242 1.2483-1.2484 2.7565-1.8711 4.5272-1.8711zm0 0.42496c-1.6497 0-3.0574 0.58434-4.2233 1.7501-1.1657 1.1658-1.7501 2.5736-1.7501 4.2203 0 1.6497 0.58443 3.0575 1.7501 4.2233 1.1658 1.1658 2.5736 1.7501 4.2233 1.7501 1.6468 0 3.0546-0.58434 4.2204-1.7501s1.7501-2.5736 1.7501-4.2233c0-1.6467-0.58434-3.0545-1.7501-4.2203s-2.5736-1.7501-4.2204-1.7501zm0 11.513-0.74664-1.4874h0.42496v-3.7334h-0.64044v-0.64035h0.64044v-0.64044h0.64044v0.64044h2.0128v-0.42505l1.4963 0.74372-1.4963 0.74372v-0.42204h-2.0128v3.7334h0.42204l-0.7408 1.4874zm-4.8696-5.8346v0.58726h-0.58726v-0.58726h0.58726zm9.7274 0h0.58726v0.58726h-0.58726v-0.58726zm-5.1529-4.5657v-0.58726h0.58735v0.58726h-0.58735zm-4.0638 7.0388 0.29212 0.50761-0.50761 0.29513-0.29513-0.51053 0.51062-0.29222zm8.4111-4.8607 0.51053-0.29212 0.29513 0.50761-0.51053 0.29513-0.29513-0.51062zm-1.877 7.0358 0.51053-0.29222 0.29513 0.51062-0.51062 0.29212-0.29504-0.51053zm-4.8578-8.4199-0.29222-0.49886 0.50761-0.30398 0.29513 0.51062-0.51053 0.29222zm-0.0088 8.1277 0.51053 0.29222-0.29212 0.51053-0.51062-0.29212 0.29222-0.51062zm4.8666-8.4111 0.29504-0.51062 0.50177 0.29513-0.29513 0.5077-0.50168-0.29222zm1.8947 7.0358 0.28628-0.50761 0.51053 0.29222-0.29513 0.51053-0.50168-0.29513zm-8.4199-4.8666-0.51062-0.29513 0.29513-0.49876 0.50761 0.29212-0.29212 0.50177z"/>
  </g><g id="_111366480" transform="translate(-1.4317)">
   <g id="g371">
    <path id="_111366312" style="fill:url(#id3)" d="m44.772 167.2h-8.0469c-2.1882 0-3.9785-1.7903-3.9785-3.9785v-8.047c0-2.1881 1.7903-3.9785 3.9785-3.9785h8.0469c2.1881 0 3.9784 1.7904 3.9784 3.9785v8.047c0 2.1882-1.7903 3.9785-3.9784 3.9785z"/>
    <path id="_111366240" style="fill-opacity:.49020;fill:#ffffff" d="m35.115 151.2h11.268c1.3024 0 2.3679 1.4382 2.3679 3.1961v0.00009c0 1.7579-1.0655 3.1961-2.3679 3.1961h-11.268c-1.3024 0-2.3679-1.4382-2.3679-3.1961v-0.00009c0-1.7579 1.0655-3.1961 2.3679-3.1961z"/>
   </g>
   <g id="g375">
    <rect id="_111366144" style="stroke:#ffffff;stroke-width:.18828;fill:none" height="9.0498" width="11.955" y="154.68" x="34.873"/>
    <path id="_111072176" style="stroke:#ffffff;stroke-width:.18828;fill:none" d="m39.143 159.2-3.9734-3.9714v7.9428l3.9734-3.9714zm3.2045 0.21295-1.0729 1.0647c-0.11786 0.12191-0.25851 0.18188-0.42382 0.18188-0.16541 0-0.30803-0.06-0.43004-0.18188l-1.0668-1.0647-3.9714 3.9714h10.93l-3.9652-3.9714zm0.21088-0.21295 3.9673 3.9714v-7.9428l-3.9673 3.9714zm-7.1758-4.1843 5.2553 5.2573c0.0579 0.0558 0.12813 0.0847 0.21295 0.0847 0.08473 0 0.15505-0.0289 0.21295-0.0847l5.2552-5.2573h-10.936zm-0.51062-0.29777h11.956v8.9642h-11.956v-8.9642z"/>
   </g>
  </g><g id="_111366384" transform="translate(-.12172)">
   <path id="_147366912" style="fill:url(#id11)" d="m20.513 167.24h-8.0469c-2.1882 0-3.9785-1.7903-3.9785-3.9785v-8.047c0-2.1881 1.7903-3.9785 3.9785-3.9785h8.0469c2.1881 0 3.9784 1.7904 3.9784 3.9785v8.047c0 2.1882-1.7903 3.9785-3.9784 3.9785z"/>
   <path id="_147367008" style="fill-opacity:.49020;fill:#ffffff" d="m10.855 151.24h11.268c1.3024 0 2.3679 1.4382 2.3679 3.1961v0.00009c0 1.7579-1.0655 3.1961-2.3679 3.1961h-11.268c-1.3024 0-2.3679-1.4382-2.3679-3.1961v-0.00009c0-1.7579 1.0655-3.1961 2.3679-3.1961z"/>
   <path id="_111366408" style="fill:#ffffff" d="m21.71 163.14c-0.08925 0.24674-0.23968 0.60674-0.4483 1.0735-0.59799 0.48473-1.278 0.81056-2.0431 0.98415-1.3457-0.81027-2.8267-2.2125-4.4389-4.2015-0.59704-0.73656-1.2447-1.6405-1.9404-2.714-0.81658-1.2645-1.3362-2.2256-1.5612-2.8809 0.32611-0.71519 0.78354-1.3156 1.3796-1.8028 0.23997-0.0713 0.62331-0.14384 1.1471-0.21115l1.5838 2.3055-0.53849 1.6442c0.05874 0.56051 0.20739 1.0482 0.45517 1.464 0.11476 0.20456 0.42806 0.62265 0.93567 1.2489 0.56786 0.7006 1.09 1.0982 1.5622 1.1875 0.21125 0.0457 0.86883 0.002 1.9748-0.12917l1.9319 2.0319z"/>
  </g><g id="_147368376" transform="translate(-.46388)">
   <path id="_147366744" style="fill:url(#id8)" d="m66.754 166.98h-8.0469c-2.1882 0-3.9785-1.7903-3.9785-3.9785v-8.047c0-2.1881 1.7903-3.9785 3.9785-3.9785h8.0469c2.1881 0 3.9784 1.7904 3.9784 3.9785v8.047c0 2.1882-1.7903 3.9785-3.9784 3.9785z"/>
   <path id="_147368448" style="fill-opacity:.49020;fill:#ffffff" d="m57.096 150.98h11.268c1.3024 0 2.3679 1.4382 2.3679 3.1961v0.00009c0 1.7579-1.0655 3.1961-2.3679 3.1961h-11.268c-1.3024 0-2.3679-1.4382-2.3679-3.1961v-0.00009c0-1.7579 1.0655-3.1961 2.3679-3.1961z"/>
   <circle id="_111071888" cy="155.28" cx="62.837" r="3.2094" style="stroke:#ffffff;stroke-width:.33213;fill:none"/>
   <path id="_111071816" style="stroke:#ffffff;stroke-width:.33213;fill:none" d="m57.635 164.91h10.292v-2.6007c0-1.4305-1.1703-2.6008-2.6007-2.6008h-5.0908c-1.4305 0-2.6008 1.1703-2.6008 2.6008v2.6007z"/>
  </g><g id="_111366504" transform="translate(-.0000015707)">
   <path id="_147366408" style="fill:url(#id9)" d="m89.24 167.03h-8.0469c-2.1882 0-3.9785-1.7903-3.9785-3.9785v-8.047c0-2.1881 1.7903-3.9785 3.9785-3.9785h8.0469c2.1881 0 3.9784 1.7904 3.9784 3.9785v8.047c0 2.1882-1.7903 3.9785-3.9784 3.9785z"/>
   <path id="_147368352" style="fill-opacity:.49020;fill:#ffffff" d="m79.582 151.02h11.268c1.3024 0 2.3679 1.4382 2.3679 3.1961v0.00009c0 1.7579-1.0655 3.1961-2.3679 3.1961h-11.268c-1.3024 0-2.3679-1.4382-2.3679-3.1961v-0.00009c0-1.7579 1.0655-3.1961 2.3679-3.1961z"/>
   <path id="_111071552" style="fill:#ffffff" d="m92.281 159-5.5924 1.3162-1.3974 5.633-1.3162-5.6005-5.633-1.3892 5.6006-1.3162 1.3892-5.6412 1.3162 5.6087 5.633 1.3892zm-5.9417-1.3243-0.96683-4.2925v5.2837l0.96683-0.99122zm4.6256 1.3406h-5.2756l0.98312 0.97493 4.2925-0.97493zm-6.023-0.0731-0.99122-0.97493-4.2925 0.97493h5.2837zm0.31952 5.6357v-5.2863l-0.97766 0.99385 0.97766 4.2925z"/>
   <path id="_111071480" style="fill:#ffffff" d="m89.296 155.02-2.4375 3.9379 2.4144 4.0075-3.9426-2.4421-4.0029 2.419 2.4422-3.9426-2.4237-4.0075 3.9473 2.4468 4.0029-2.419zm-4.1418 2.632-2.9978-1.8957 3.0118 3.0118-0.01393-1.116zm3.4009-1.8726-3.0072 3.0072 1.116-0.005 1.8911-3.0026zm-3.475 3.3915-1.1207 0.009-1.8911 3.0025 3.0118-3.0118zm3.3946 3.0303-3.0133-3.0133 0.0092 1.1238 3.0041 1.8895z"/>
  </g><g id="_111366576" transform="translate(.042279 -4.251)">
   <path id="_147365160" style="fill:url(#linearGradient3157)" d="m20.349 116.8h-8.0469c-2.1882 0-3.9785-1.7903-3.9785-3.9785v-8.047c0-2.1881 1.7903-3.9785 3.9785-3.9785h8.0469c2.1881 0 3.9784 1.7904 3.9784 3.9785v8.047c0 2.1882-1.7903 3.9785-3.9784 3.9785z"/>
   <path id="_147366624" style="fill-opacity:.49020;fill:#ffffff" d="m10.691 100.8h11.268c1.3024 0 2.3679 1.4382 2.3679 3.1961v0.00009c0 1.7579-1.0655 3.1961-2.3679 3.1961h-11.268c-1.3024 0-2.3679-1.4382-2.3679-3.1961v-0.00009c0-1.7579 1.0655-3.1961 2.3679-3.1961z"/>
   <g id="g396">
    <rect id="_111366816" style="stroke:#ffffff;stroke-width:.33213;fill:none" rx="1.173" ry="1.173" height="8.6083" width="11.478" y="104.8" x="10.374"/>
    <circle id="_111366744" cy="109.54" cx="18.026" r="2.0563" style="stroke:#ffffff;stroke-width:.33213;fill:none"/>
    <rect id="_111366672" style="stroke:#ffffff;stroke-width:.33213;fill:none" height="1.4347" width="2.6086" y="105.71" x="11.678"/>
   </g>
  </g><path id="path315" style="fill-rule:nonzero;fill:url(#linearGradient4056)" d="m97.819 124.21-53.579-93.888h53.579v93.888zm-26.79-46.944m0-46.944m26.789 46.944"/>
<g id="g4087" transform="translate(-8.145 -4.0196)"><path id="_111407176" style="fill:#ffffff" d="m72.87 55.228 0.36875-0.20137 0.59582 0.93398c0.04029 0.06326 0.02457 0.14422-0.02721 0.1703l-0.29598 0.14931c-0.05168 0.02617-0.12483-0.0019-0.15797-0.06919l-0.48341-0.98303z"/><path id="_111407104" style="fill-rule:nonzero;fill:#ffffff" d="m73.232 55.018-0.37214 0.20316-0.62886-0.70964 0.74409-0.40622 0.25691 0.9127zm-0.18602 0.10158m-0.50055-0.25324m0.05761-0.55798m0.50055 0.25324"/><rect id="rect4085" style="fill:#ffffff" transform="matrix(.87341 -.48699 .41879 .90808 0 0)" rx=".34865" ry=".54796" height="5.16" width=".92974" y="78.155" x="42.846"/></g><metadata><rdf:RDF><cc:Work><dc:format>image/svg+xml</dc:format><dc:type rdf:resource="http://purl.org/dc/dcmitype/StillImage"/><cc:license rdf:resource="http://creativecommons.org/licenses/publicdomain/"/><dc:publisher><cc:Agent rdf:about="http://openclipart.org/"><dc:title>Openclipart</dc:title></cc:Agent></dc:publisher><dc:title>Smartphone (German Version)</dc:title><dc:date>2012-02-22T05:10:00</dc:date><dc:description/><dc:source>https://openclipart.org/detail/168448/smartphone-german-version-by-zorro</dc:source><dc:creator><cc:Agent><dc:title>zorro</dc:title></cc:Agent></dc:creator><dc:subject><rdf:Bag><rdf:li>Handy</rdf:li><rdf:li>Mobile Phone</rdf:li><rdf:li>Phone</rdf:li><rdf:li>Smartphone</rdf:li><rdf:li>Telefon</rdf:li><rdf:li>iPhone</rdf:li></rdf:Bag></dc:subject></cc:Work><cc:License rdf:about="http://creativecommons.org/licenses/publicdomain/"><cc:permits rdf:resource="http://creativecommons.org/ns#Reproduction"/><cc:permits rdf:resource="http://creativecommons.org/ns#Distribution"/><cc:permits rdf:resource="http://creativecommons.org/ns#DerivativeWorks"/></cc:License></rdf:RDF></metadata></svg>
