<?xml version="1.0" encoding="iso-8859-1"?>
<!-- Generator: Adobe Illustrator 19.0.0, SVG Export Plug-In . SVG Version: 6.00 Build 0)  -->
<svg version="1.1" id="Layer_1" xmlns="http://www.w3.org/2000/svg" xmlns:xlink="http://www.w3.org/1999/xlink" x="0px" y="0px"
	 viewBox="0 0 512.159 512.159" style="enable-background:new 0 0 512.159 512.159;" xml:space="preserve">
<g transform="translate(0 -1)">
	<path style="fill:#805333;" d="M150.148,407.067c6.082-26.721,29.908-180.083,8.828-238.345
		c-22.546-62.314,0.009-106.169,8.828-123.586c13.418,13.418,47.501,16.472,70.621,17.17v9.313h35.31v-9.313
		c23.119-0.697,57.203-3.752,70.621-17.17c8.819,17.417,31.373,61.272,8.828,123.586c-21.08,58.262,2.745,211.624,8.828,238.345
		c6.762,29.705,17.655,88.276,17.655,88.276c-25.106,19.588-75.591,27.586-105.931,0c0,0,8.828-132.414,8.828-167.724
		s-26.483-141.135-26.483-167.724c0,26.589-26.483,132.414-26.483,167.724s8.828,167.724,8.828,167.724
		c-30.349,27.586-80.825,19.588-105.931,0C132.493,495.343,143.386,436.772,150.148,407.067"/>
	<g>
		<path style="fill:#5B3821;" d="M256.079,168.722c-10.39,0-27.171-8.13-30.429-9.754c-4.361-2.189-6.135-7.486-3.955-11.847
			c2.18-4.352,7.486-6.118,11.847-3.955c6.382,3.187,17.955,7.901,22.537,7.901c4.599,0,16.163-4.714,22.537-7.901
			c4.352-2.163,9.657-0.415,11.847,3.955c2.18,4.361,0.406,9.657-3.955,11.847C283.251,160.592,266.47,168.722,256.079,168.722"/>
		<polygon style="fill:#5B3821;" points="238.424,71.621 273.735,71.621 273.735,1 238.424,1 		"/>
	</g>
	<g>
		<path style="fill:#3A2113;" d="M273.735,62.304c23.119-0.697,57.203-3.752,70.621-17.17c0,0-5.791-14.071-17.655-35.037
			l-52.966-0.203V62.304z"/>
		<path style="fill:#3A2113;" d="M238.424,9.895l-52.966,0.203c-11.864,20.966-17.655,35.037-17.655,35.037
			c13.418,13.418,47.501,16.472,70.621,17.17V9.895z"/>
	</g>
	<g>
		<path style="fill:#5B3821;" d="M149.557,124.238c33.368-3.293,59.71-30.27,62.129-63.885
			c-17.567-2.154-35.125-6.462-43.882-15.219C161.262,58.048,147.218,85.52,149.557,124.238"/>
		<path style="fill:#5B3821;" d="M362.602,124.238c-33.368-3.293-59.71-30.27-62.129-63.885
			c17.567-2.154,35.125-6.462,43.882-15.219C350.897,58.048,364.941,85.52,362.602,124.238"/>
	</g>
</g>
<g>
</g>
<g>
</g>
<g>
</g>
<g>
</g>
<g>
</g>
<g>
</g>
<g>
</g>
<g>
</g>
<g>
</g>
<g>
</g>
<g>
</g>
<g>
</g>
<g>
</g>
<g>
</g>
<g>
</g>
</svg>
