<svg xmlns="http://www.w3.org/2000/svg" viewBox="0 0 1333.34 442.71" shape-rendering="geometricPrecision" text-rendering="geometricPrecision" image-rendering="optimizeQuality" fill-rule="evenodd" clip-rule="evenodd"><g fill-rule="nonzero"><path d="M986.39 259.91l-1.87-108.23h34.12V288.1h-49.06l-34.06-111.95h-.74l1.9 111.95h-33.93V151.68h51.2l31.69 108.23h.75zm346.12-154.5c9.64 55.27-65.72 119.61-193.58 177.41 7.3-5.41 12.2-13.39 13.22-24.59.42-4.6.47-6.5.5-9.09v-37.02h-48.89v20.12h14.13v20.01c.03 1.74-.06 3.67-.3 5.24-.64 3.67-4.13 9.98-14.11 9.98s-13.45-6.31-14-9.92c-.28-1.57-.39-3.5-.36-5.24v-63.06c0-2.23.17-4.69.58-6.5.74-3.44 3.67-10.06 13.73-10.06 10.53 0 13.17 7 13.75 10.06.39 1.96.47 5.27.44 5.24v7.72h34.75v-4.6s.14-4.72-.3-9.09c-2.54-25.83-23.94-34.07-48.39-34.07-24.47 0-45.36 8.3-48.42 34.07-.28 2.31-.58 6.64-.58 9.09l-.03 58.04c.06 2.59.11 4.49.5 9.09 2.34 25.08 24.06 34.04 48.53 34.04 6.37 0 12.55-.61 18.26-1.96-111.19 48.04-258.39 90.99-422.42 119.56C331.79 473.93 18.96 441.44.83 337.29c-9.82-56.39 68.89-122.22 201.54-180.91-6.7 4.84-11.31 11.84-12.89 21.5-.99 6.2-1.13 11.71.3 18.63 6.04 28.14 54.98 36.3 62.09 54.15 1.35 3.33.94 7.63.3 10.22-1.16 4.57-4.27 9.26-13.42 9.26-8.65 0-13.89-4.96-13.89-12.51v-13.34h-36.98l-.03 10.67c0 30.73 24.2 40.02 50.13 40.02 24.94 0 45.48-8.52 48.73-31.5 1.68-11.91.41-19.7-.14-22.65-5.81-28.86-58.15-37.48-62.04-53.61-.66-2.76-.47-5.7-.14-7.28.96-4.38 3.97-9.23 12.59-9.23 8.05 0 12.81 4.99 12.81 12.52v8.51h34.37v-9.67c0-30.04-26.96-34.72-46.47-34.72-6.81 0-13.28.63-19.15 2.01 110.33-46.8 254.79-88.52 415.32-116.47 367.76-64.1 680.53-31.58 698.64 72.54zM815.9 268.92c9.56 0 12.54-6.61 13.2-10 .28-1.49.36-3.47.33-5.26V151.63h34.87v98.89c.08 2.54-.17 7.74-.3 9.04-2.45 25.74-22.79 34.09-48.12 34.09-25.35 0-45.72-8.35-48.15-34.09-.11-1.3-.36-6.53-.3-9.04v-98.89h34.83v102c0 1.79.06 3.8.33 5.26.77 3.39 3.67 10.03 13.31 10.03zM700.12 250.4c1.35 3.31.91 7.5.3 10.09-1.13 4.57-4.22 9.18-13.31 9.18-8.52 0-13.73-4.96-13.73-12.35l-.02-13.23h-36.6l-.06 10.53c0 30.43 23.98 39.6 49.63 39.6 24.67 0 45-8.41 48.23-31.17 1.68-11.82.5-19.51-.11-22.41-5.79-28.58-57.57-37.13-61.43-53.11-.66-2.76-.47-5.65-.14-7.14.99-4.44 3.94-9.15 12.48-9.15 7.99 0 12.65 4.85 12.65 12.35v8.44h34.12v-9.59c0-29.71-26.73-34.37-46.08-34.37-24.26 0-44.12 7.99-47.7 30.29-.99 6.12-1.1 11.52.33 18.41 5.92 27.86 54.4 35.96 61.43 53.63zm-173.35 6.67l17.03-105.39h56.22L603 289.53h-34.45l-.91-123.94h-.72l-23.04 123.94h-34.97l-23.07-123.94h-.75l-.85 123.94H449.7l3.06-137.85h56.25l17 105.39h.74zm-160.76-92.6l-18.88 125.07H309.9l25.55-137.85h61.32l25.46 137.85h-37.09l-18.35-125.07h-.77z" fill="#034ea2"/><path d="M986.39 259.91l-1.87-108.23h34.12V288.1h-49.06l-34.06-111.95h-.74l1.9 111.95h-33.93V151.68h51.2l31.69 108.23h.75zm117.1 7.55c9.98 0 13.48-6.31 14.11-9.98.24-1.57.33-3.5.3-5.24v-20.01h-14.13v-20.12h48.89v37.02c-.03 2.59-.08 4.49-.5 9.09-2.29 25.08-24.06 34.04-48.48 34.04-24.47 0-46.19-8.96-48.53-34.04-.39-4.6-.44-6.5-.5-9.09l.03-58.04c0-2.46.3-6.78.58-9.09 3.06-25.77 23.95-34.07 48.42-34.07 24.45 0 45.86 8.24 48.39 34.07.44 4.38.3 9.09.3 9.09v4.6h-34.75v-7.72c.03.03-.06-3.28-.44-5.24-.57-3.06-3.22-10.06-13.75-10.06-10.06 0-12.98 6.61-13.73 10.06-.41 1.82-.58 4.28-.58 6.5v63.06c-.03 1.74.08 3.67.36 5.24.55 3.61 4.02 9.92 14 9.92zm-287.58 1.46c9.56 0 12.54-6.61 13.2-10 .28-1.49.36-3.47.33-5.26V151.63h34.87v98.89c.08 2.54-.17 7.74-.3 9.04-2.45 25.74-22.79 34.09-48.12 34.09-25.35 0-45.72-8.35-48.15-34.09-.11-1.3-.36-6.53-.3-9.04v-98.89h34.83v102c0 1.79.06 3.8.33 5.26.77 3.39 3.67 10.03 13.31 10.03zM700.13 250.4c1.35 3.31.91 7.5.3 10.09-1.13 4.57-4.22 9.18-13.31 9.18-8.52 0-13.73-4.96-13.73-12.35l-.02-13.23h-36.6l-.06 10.53c0 30.43 23.98 39.6 49.63 39.6 24.67 0 45-8.41 48.23-31.17 1.68-11.82.5-19.51-.11-22.41-5.79-28.58-57.57-37.13-61.43-53.11-.66-2.76-.47-5.65-.14-7.14.99-4.44 3.94-9.15 12.48-9.15 7.99 0 12.65 4.85 12.65 12.35v8.44h34.12v-9.59c0-29.71-26.73-34.37-46.08-34.37-24.26 0-44.12 7.99-47.7 30.29-.99 6.12-1.1 11.52.33 18.41 5.92 27.86 54.4 35.96 61.43 53.63zm-448.26.25c1.35 3.33.94 7.63.3 10.22-1.16 4.57-4.27 9.26-13.42 9.26-8.65 0-13.89-4.96-13.89-12.51v-13.34h-36.98l-.03 10.67c0 30.73 24.2 40.02 50.13 40.02 24.94 0 45.48-8.52 48.73-31.5 1.68-11.91.41-19.7-.14-22.65-5.81-28.86-58.15-37.48-62.04-53.61-.66-2.76-.47-5.7-.14-7.28.96-4.38 3.97-9.23 12.59-9.23 8.05 0 12.81 4.99 12.81 12.52v8.51h34.37v-9.67c0-30.04-26.96-34.72-46.47-34.72-24.53 0-44.56 8.1-48.23 30.54-.99 6.2-1.13 11.71.3 18.63 6.04 28.14 54.98 36.3 62.09 54.15zm274.91 6.42l17.03-105.39h56.22l2.98 137.85h-34.45l-.91-123.94h-.72l-23.04 123.94h-34.97l-23.07-123.94h-.75l-.85 123.94h-34.54l3.06-137.85h56.25l17 105.39h.74zm-160.76-92.6l-18.88 125.07h-37.23l25.55-137.85h61.32l25.46 137.85h-37.09L366.8 164.47h-.77z" fill="#fff"/></g></svg>