<?xml version="1.0"?>
<svg xmlns:rdf="http://www.w3.org/1999/02/22-rdf-syntax-ns#" xmlns="http://www.w3.org/2000/svg" xmlns:cc="http://creativecommons.org/ns#" xmlns:xlink="http://www.w3.org/1999/xlink" xmlns:dc="http://purl.org/dc/elements/1.1/" xmlns:svg="http://www.w3.org/2000/svg" id="svg2" viewBox="0 0 172.37 156.87" version="1.0">
  <title id="title4526">Blue Polo Shirt Remix by Merlin2525.svg</title>
  <defs id="defs4">
    <filter id="filter4619-4" width="1.6977" y="-.05975" x="-.34883" height="1.1195" color-interpolation-filters="sRGB">
      <feGaussianBlur id="feGaussianBlur4621-4" stdDeviation="1.2810301"/>
    </filter>
    <filter id="filter22155-9" height="1.157" width="2.3718" y="-.078509" x="-.68589" color-interpolation-filters="sRGB">
      <feGaussianBlur id="feGaussianBlur22157-6" stdDeviation="2.3457246"/>
    </filter>
    <filter id="filter22189-8" height="1.09" width="2.0018" y="-.045006" x="-.50088" color-interpolation-filters="sRGB">
      <feGaussianBlur id="feGaussianBlur22191-8" stdDeviation="1.3520084"/>
    </filter>
    <filter id="filter21900-3" height="1.1037" width="1.5587" y="-.051838" x="-.27935" color-interpolation-filters="sRGB">
      <feGaussianBlur id="feGaussianBlur21902-7" stdDeviation="1.5308489"/>
    </filter>
    <filter id="filter4567-9" width="1.522" y="-.079143" x="-.261" height="1.1583" color-interpolation-filters="sRGB">
      <feGaussianBlur id="feGaussianBlur4569-1" stdDeviation="1.8204586"/>
    </filter>
    <linearGradient id="linearGradient4505-2" y2="64.654" gradientUnits="userSpaceOnUse" y1="72.514" x2="47.431" x1="56.824">
      <stop id="stop22169-6" offset="0"/>
      <stop id="stop22171-1" stop-color="#b3b3b3" stop-opacity="0" offset="1"/>
    </linearGradient>
    <filter id="filter4173-0" color-interpolation-filters="sRGB">
      <feGaussianBlur id="feGaussianBlur4175-8" stdDeviation="0.62121813"/>
    </filter>
    <filter id="filter22006-9" height="1.1939" width="1.3625" y="-.09693" x="-.18127" color-interpolation-filters="sRGB">
      <feGaussianBlur id="feGaussianBlur22008-4" stdDeviation="1.2123305"/>
    </filter>
    <filter id="filter22014-2" height="1.2195" width="1.4337" y="-.10975" x="-.21687" color-interpolation-filters="sRGB">
      <feGaussianBlur id="feGaussianBlur22016-4" stdDeviation="1.6043371"/>
    </filter>
    <filter id="filter4535-8" width="1.5125" y="-.097152" x="-.25626" height="1.1943" color-interpolation-filters="sRGB">
      <feGaussianBlur id="feGaussianBlur4537-8" stdDeviation="1.3248077"/>
    </filter>
    <filter id="filter22228-0" height="1.3534" width="1.3102" y="-.17668" x="-.15509" color-interpolation-filters="sRGB">
      <feGaussianBlur id="feGaussianBlur22230-3" stdDeviation="1.7328573"/>
    </filter>
    <filter id="filter4527-0" width="1.2932" y="-.1269" x="-.14658" height="1.2538" color-interpolation-filters="sRGB">
      <feGaussianBlur id="feGaussianBlur4529-4" stdDeviation="1.8078158"/>
    </filter>
    <filter id="filter4195-2" height="1.0595" width="1.3378" y="-.02975" x="-.16888" color-interpolation-filters="sRGB">
      <feGaussianBlur id="feGaussianBlur4197-0" stdDeviation="0.94011737"/>
    </filter>
    <filter id="filter22163-6" height="1.114" width="1.2445" y="-.056985" x="-.12224" color-interpolation-filters="sRGB">
      <feGaussianBlur id="feGaussianBlur22165-4" stdDeviation="1.3165579"/>
    </filter>
    <filter id="filter4203-8" height="1.1243" width="1.445" y="-.062155" x="-.2225" color-interpolation-filters="sRGB">
      <feGaussianBlur id="feGaussianBlur4205-1" stdDeviation="1.0689097"/>
    </filter>
    <filter id="filter4541-0" width="1.4573" y="-.04207" x="-.22864" height="1.0841" color-interpolation-filters="sRGB">
      <feGaussianBlur id="feGaussianBlur4543-5" stdDeviation="1.323434"/>
    </filter>
    <filter id="filter4603-4" width="1.3278" y="-.13122" x="-.1639" height="1.2624" color-interpolation-filters="sRGB">
      <feGaussianBlur id="feGaussianBlur4605-4" stdDeviation="1.6631027"/>
    </filter>
    <radialGradient id="radialGradient5605" gradientUnits="userSpaceOnUse" cy="124.97" cx="108.39" gradientTransform="matrix(1.9063 -.0098651 .016571 3.1906 -135.81 -308.26)" r="80.775">
      <stop id="stop22207-8" stop-color="#d00000" offset="0"/>
      <stop id="stop22209-6" stop-color="#650101" offset="1"/>
    </radialGradient>
    <filter id="filter4519-7" color-interpolation-filters="sRGB">
      <feGaussianBlur id="feGaussianBlur4521-4" stdDeviation="2.4615559"/>
    </filter>
    <linearGradient id="linearGradient5883" y2="60.899" gradientUnits="userSpaceOnUse" y1="125.41" gradientTransform="translate(-36.374 -31.781)" x2="118.19" x1="118.23">
      <stop id="stop4185-6-7" stop-opacity=".44615" offset="0"/>
      <stop id="stop4187-5-6" stop-opacity="0" offset="1"/>
    </linearGradient>
    <filter id="filter7160" color-interpolation-filters="sRGB">
      <feGaussianBlur id="feGaussianBlur7162" stdDeviation="10.840151"/>
    </filter>
    <radialGradient id="radialGradient6237" gradientUnits="userSpaceOnUse" cy="306.83" cx="298.86" gradientTransform="matrix(1.9901 .00021103 -.00018758 1.7691 -333.04 -271.62)" r="189.29">
      <stop id="stop6210" stop-color="#fff" offset="0"/>
      <stop id="stop6212" stop-color="#333" offset="1"/>
    </radialGradient>
    <radialGradient id="radialGradient6239" gradientUnits="userSpaceOnUse" cy="406.01" cx="310.42" gradientTransform="matrix(1.9901 .00021103 -.00018758 1.7691 -333.04 -271.62)" r="189.29">
      <stop id="stop6216" stop-color="#fff" offset="0"/>
      <stop id="stop6218" offset="1"/>
    </radialGradient>
    <radialGradient id="radialGradient6241" gradientUnits="userSpaceOnUse" cy="423.23" cx="294.5" gradientTransform="matrix(1.9901 .00021103 -.00018758 1.7691 -333.04 -271.62)" r="189.29">
      <stop id="stop6204" stop-color="#fff" offset="0"/>
      <stop id="stop6206" stop-color="#888" offset="1"/>
    </radialGradient>
    <linearGradient id="linearGradient5686-0-4" y2="49.164" gradientUnits="userSpaceOnUse" x2="130.06" gradientTransform="translate(-36.374 -31.781)" y1="53.251" x1="135.62">
      <stop id="stop21779-7-6-3" stop-color="#ccc" offset="0"/>
      <stop id="stop21781-6-4-1" stop-color="#fff" offset="1"/>
    </linearGradient>
    <linearGradient id="linearGradient6340" y2="48.755" gradientUnits="userSpaceOnUse" y1="53.414" gradientTransform="translate(-36.374 -31.781)" x2="105.94" x1="97.443">
      <stop id="stop21769-9-7-9" stop-color="#808080" offset="0"/>
      <stop id="stop21771-8-0-1" stop-color="#fff" offset="1"/>
    </linearGradient>
    <filter id="filter6407" color-interpolation-filters="sRGB">
      <feGaussianBlur id="feGaussianBlur6409" stdDeviation="0.42992765"/>
    </filter>
    <filter id="filter6427" color-interpolation-filters="sRGB">
      <feGaussianBlur id="feGaussianBlur6429" stdDeviation="0.42855016"/>
    </filter>
    <linearGradient id="linearGradient6446" y2="25.727" gradientUnits="userSpaceOnUse" y1="34.474" gradientTransform="translate(-14.402 -20.909)" x2="95.801" x1="95.964">
      <stop id="stop21789-4-6-7" stop-color="#666" offset="0"/>
      <stop id="stop21791-7-9-0" stop-color="#fff" offset="1"/>
    </linearGradient>
    <linearGradient id="linearGradient6480" y2="28.219" gradientUnits="userSpaceOnUse" y1="50.645" gradientTransform="translate(-14.402 -20.467)" x2="96.179" x1="95.948">
      <stop id="stop21799-2-2" offset="0"/>
      <stop id="stop21801-8-5" stop-color="#666" stop-opacity="0" offset="1"/>
    </linearGradient>
    <filter id="filter4384" color-interpolation-filters="sRGB">
      <feGaussianBlur id="feGaussianBlur4386" stdDeviation="0.33681905"/>
    </filter>
    <filter id="filter4410" color-interpolation-filters="sRGB">
      <feGaussianBlur id="feGaussianBlur4412" stdDeviation="0.28694332"/>
    </filter>
    <filter id="filter4424" color-interpolation-filters="sRGB">
      <feGaussianBlur id="feGaussianBlur4426" stdDeviation="0.23886637"/>
    </filter>
    <filter id="filter4434" height="1.0266" width="1.2786" y="-.013306" x="-.1393" color-interpolation-filters="sRGB">
      <feGaussianBlur id="feGaussianBlur4436" stdDeviation="0.2023608"/>
    </filter>
    <filter id="filter4440" height="1.4358" width="1.0203" y="-.2179" x="-.01017" color-interpolation-filters="sRGB">
      <feGaussianBlur id="feGaussianBlur4442" stdDeviation="0.36548822"/>
    </filter>
    <filter id="filter4464" color-interpolation-filters="sRGB">
      <feGaussianBlur id="feGaussianBlur4466" stdDeviation="0.21604081"/>
    </filter>
    <filter id="filter4482" color-interpolation-filters="sRGB">
      <feGaussianBlur id="feGaussianBlur4484" stdDeviation="0.42512894"/>
    </filter>
    <filter id="filter4508" height="1.0451" width="1.2798" y="-.022568" x="-.13992" color-interpolation-filters="sRGB">
      <feGaussianBlur id="feGaussianBlur4510" stdDeviation="0.21862348"/>
    </filter>
    <filter id="filter4522" height="1.0213" width="1.2204" y="-.010656" x="-.1102" color-interpolation-filters="sRGB">
      <feGaussianBlur id="feGaussianBlur4524" stdDeviation="0.16460332"/>
    </filter>
  </defs>
  <g id="layer4" transform="translate(2.1015 2.3053)">
    <path id="path4513" filter="url(#filter4519-7)" d="m69.456 4.0024c11.262 1.5119 20.644 1.1439 29.25 0l5.25 7.25c22.644 8.5823 35.766 7.6457 60 21-3.1189 10.486-3.7062 21.984-13 30-7.75-6.088-15.5-4.7999-23.25-6.75 0 0 1.0423 13.155 0 19.42-1.4026 8.4308 1.4592 17.719 0 25.64-1.3092 7.1069 1.0423 15.704 0 21.679-1.232 7.0636 0 21.511 0 21.511-29.128 5.3015-58.037 6.6657-86.5 0 0 0-1.1111-11.531 0-17.133 1.6676-8.4077-1.2875-18.158 0-27.099 1.2507-8.6856 2.3833-17.296 0-25.432-1.8761-6.4039 0-18.586 0-18.586-6.7408 0.75138-12.342 0.20025-23.5 6-8.3758-6.9854-10.991-18.452-13.5-30 25.954-11.671 39.005-13.262 60.25-19.75z" fill-rule="evenodd" fill-opacity=".29224"/>
  </g>
  <g id="layer3" transform="translate(2.1015 2.3053)">
    <path id="path4942" d="m65.715 0.56831c11.262 1.5119 20.644 1.1439 29.25 0l5.25 7.25c22.644 8.5823 35.766 7.6457 60 21-3.1189 10.486-3.7062 21.984-13 30-7.75-6.088-15.5-4.7999-23.25-6.75 0 0 1.0423 13.155 0 19.42-1.4026 8.4308 1.4592 17.719 0 25.64-1.3092 7.1069 1.0423 15.704 0 21.679-1.232 7.0636 0 21.511 0 21.511-29.128 5.3015-58.037 6.6657-86.5 0 0 0-1.1111-11.531 0-17.133 1.6676-8.4077-1.2875-18.158 0-27.099 1.2507-8.6856 2.3833-17.296 0-25.432-1.8761-6.4039 0-18.586 0-18.586-6.7408 0.75138-12.342 0.20025-23.5 6-8.3759-6.9854-10.991-18.452-13.5-30 25.949-11.673 39-13.264 60.245-19.753z" fill="url(#radialGradient5605)" fill-rule="evenodd"/>
  </g>
  <g id="layer6">
    <path id="path3300" d="m42.081 23.955s7.5566-1.7712 11.335-3.9765c3.1436-1.8349 10.336-3.5235 10.336-3.5235" stroke-opacity=".21918" stroke="#d40000" stroke-width="1px" fill="none"/>
    <path id="path3318" d="m123.48 23.868s-8.5137-1.4268-11.933-4.2461c-3.2498-2.6797-11.294-3.6669-11.294-3.6669" stroke-opacity=".21961" stroke="#d40000" stroke-width="1px" fill="none"/>
    <path id="path3320" d="m157.93 28.81c-1.5068 2.8206-3.892 7.6536-3.6133 11.389 0.39558 5.3017-1.0741 8.4646-4.3221 10.808-4.1436 2.9902-4.3721 5.2216-4.6346 7.2352" stroke-opacity=".21961" stroke="#d40000" stroke-width="1px" fill="none"/>
    <path id="path3302" d="m6.3697 28.834c0.63299 1.2466 0.82265 3.321 0.84895 4.7315 0.050021 2.6831 1.0382 5.5318 2.4604 7.6655 1.3374 2.0064 2.5462 4.1906 3.1103 6.5311 0.54053 2.2426 1.3264 3.964 3.2806 5.4958 2.0555 1.6112 2.1401 3.544 3.2683 5.2972" stroke-opacity=".21961" stroke="#d40000" stroke-width="1px" fill="none"/>
    <path id="path3304" d="m39.501 138.96c5.4126 1.9642 11.259 0.48347 16.238 2.0288 4.4542 1.3825 9.6245 2.1971 13.766 1.9541 3.5578-0.20873 7.159-0.11034 10.735-0.30484 5.4876-0.29851 10.988 0.74416 16.482-0.16025 4.0113-0.66032 8.1315-1.3368 12.266-1.2372 5.7041 0.13736 11.4-0.82594 16.764-2.2806" stroke-opacity=".21961" stroke="#f9a" stroke-width="1px" fill="none"/>
    <path id="path3316" d="m125.28 17.232c-2.061 11.043-5.9702 25.399 0.52265 37.072" stroke-opacity=".21961" stroke="#d40000" stroke-width="1px" fill="none"/>
    <path id="path3298" d="m40.12 16.994c2.061 11.043 5.9134 25.617-0.5795 37.291" stroke-opacity=".21961" stroke="#d40000" stroke-width="1px" fill="none"/>
    <path id="path3322" d="m70.501 11.455c7.4037-2.3148 14.936-1.9888 23 0" stroke-opacity=".21961" stroke="#e35c72" stroke-width="1px" fill="none"/>
    <path id="rect3324" d="m80.251 22.205h3.75v23.25h-3.75v-23.25z" stroke-opacity=".21961" stroke="#ffb899" stroke-linecap="round" fill="url(#linearGradient5883)"/>
    <path id="path4388" d="m123.2 24.375s-8.787-1.5138-12.206-4.3331c-3.2498-2.6797-11.294-3.6669-11.294-3.6669" stroke-opacity=".031373" filter="url(#filter4410)" stroke="#000" stroke-width="1px" fill="none"/>
    <path id="path4414" d="m41.971 24.615s7.8861-1.7712 11.664-3.9765c3.1436-1.8349 10.336-3.5235 10.336-3.5235" stroke-opacity=".031373" filter="url(#filter4424)" stroke="#000" stroke-width="1px" fill="none"/>
    <path id="path4428" d="m41.131 17.235c2.061 11.043 6.2429 24.826-0.25 36.5" stroke-opacity=".03653" filter="url(#filter4434)" stroke="#000" stroke-width="1px" fill="none"/>
    <path id="path4438" d="m39.285 139.61c5.4126 1.9642 11.259 0.48347 16.238 2.0288 4.4542 1.3825 9.6245 2.1971 13.766 1.9541 3.5578-0.20873 7.159-0.11034 10.735-0.30484 5.4876-0.29851 10.988 0.74416 16.482-0.16025 4.0113-0.66032 8.1315-1.3368 12.266-1.2372 5.7041 0.13736 11.4-0.82594 16.764-2.2806" stroke-opacity=".063927" filter="url(#filter4440)" stroke="#000" stroke-width="1px" fill="none"/>
    <path id="path4458" d="m6.8749 28.834c0.63299 1.2466 0.82265 3.321 0.84895 4.7315 0.050021 2.6831 1.0382 5.5318 2.4604 7.6655 1.3374 2.0064 2.5462 4.1906 3.1103 6.5311 0.54053 2.2426 1.3264 3.964 3.2806 5.4958 2.0555 1.6112 2.1401 3.544 3.2683 5.2972" stroke-opacity=".054795" filter="url(#filter4464)" stroke="#000" stroke-width="1px" fill="none"/>
    <path id="path4468" d="m158.41 29.455c-1.5068 2.8206-3.892 7.6536-3.6133 11.389 0.39558 5.3017-1.0741 8.4646-4.3221 10.808-4.1436 2.9902-4.3721 5.2216-4.6346 7.2352" stroke-opacity=".054795" filter="url(#filter4482)" stroke="#000" stroke-width="1px" fill="none"/>
    <path id="path4486" d="m80.823 22.396h3.75v23.25h-3.75v-23.25z" stroke-opacity=".050228" filter="url(#filter4508)" stroke="#000" stroke-linecap="round" fill="none"/>
    <path id="path4512" d="m126.02 17.48c-2.061 11.043-5.9702 25.399 0.52265 37.072" stroke-opacity=".041096" filter="url(#filter4522)" stroke="#000" stroke-width="1px" fill="none"/>
  </g>
  <g id="layer9" fill="#eee">
    <g id="g3516" transform="matrix(.035838 0 0 .035838 92.178 18.106)">
      <g id="text3518" fill="#eee">
        <path id="path3545" d="m225.33 646.05c3.1234 0.73762 5.8163 1.9039 8.0764 3.4982 2.2882 1.601 4.0788 3.5289 5.3712 5.7834 1.3205 2.2612 2.1213 4.8152 2.4032 7.6624 0.31652 2.8267 0.0779 5.852-0.71333 9.0764-0.79801 3.2515-1.9922 6.0655-3.5803 8.4424-1.5602 2.3836-3.445 4.2892-5.6537 5.7171-2.1808 1.4344-4.6477 2.3571-7.4012 2.7677-2.7191 0.39009-5.6249 0.22015-8.7197-0.51043s-5.7795-1.8803-8.0562-3.4498c-2.2424-1.59-4.0235-3.5156-5.3441-5.7767-1.3206-2.2612-2.1483-4.8073-2.4825-7.6384-0.33424-2.831-0.11787-5.8761 0.65151-9.1346 0.76295-3.2314 1.9284-6.038 3.4989-8.4193 1.5768-2.4084 3.4693-4.3267 5.678-5.7546 2.2087-1.4278 4.6851-2.3481 7.4284-2.761 2.7714-0.40621 5.7201-0.24024 8.8435 0.49731zm-8.8558 36.782c4.1873 0.98852 7.6413 0.37061 10.368-1.8524 2.7327-2.2501 4.6963-5.8142 5.8851-10.693 1.1954-4.9063 1.0895-8.9733-0.32315-12.202-1.4127-3.2289-4.2296-5.3417-8.4452-6.3372-2.1359-0.50435-4.0756-0.5897-5.818-0.25583-1.7425 0.33394-3.306 1.0398-4.6902 2.1176-1.3562 1.0845-2.5332 2.541-3.5314 4.3694-0.96365 1.8079-1.7356 3.9334-2.3166 6.3763-0.58114 2.4429-0.84886 4.6874-0.80414 6.7334 0.0727 2.0526 0.46743 3.8658 1.184 5.4397 0.75091 1.5533 1.8236 2.8672 3.2183 3.9418s3.1522 1.8622 5.2739 2.363z"/>
        <path id="path3547" d="m241.21 708.79 13.637-55.086 4.4734 1.0564c1.0691 0.25251 1.6197 0.91283 1.6515 1.9809-0.19359 1.6742-0.38741 3.3484-0.58145 5.0224 0.057-0.0413 0.11415-0.0823 0.17136-0.12299 2.3176-1.5951 4.7914-2.72 7.4218-3.368 2.7239-0.65629 5.6542-0.55498 8.775 0.31558 2.4908 0.69491 4.6322 1.7986 6.406 3.3005 1.7814 1.4751 3.1274 3.3139 4.0287 5.5058 0.90907 2.1652 1.349 4.6615 1.3235 7.4835-0.0256 2.822-0.56052 5.9125-1.5841 9.2748-0.90998 2.9888-2.1691 5.6501-3.7566 7.9939-1.5795 2.3171-3.3933 4.1997-5.4394 5.656-2.0383 1.4295-4.2935 2.3792-6.7799 2.8543-2.4524 0.4559-5.0292 0.30821-7.7586-0.4447-2.5154-0.69387-4.5722-1.6973-6.1693-3.0205-1.5701-1.316-2.8594-2.9274-3.8664-4.837l-4.5387 18.191c-0.0782-0.0206-0.15633-0.0413-0.23452-0.0619zm31.468-45.078c-2.4665-0.67916-4.7758-0.72406-6.917-0.14114-2.113 0.59052-4.1897 1.6726-6.2268 3.2437l-4.9642 19.897c0.90003 2.1408 2.0451 3.786 3.439 4.9384 1.421 1.1597 3.1036 2.0033 5.0514 2.5363 3.8143 1.0437 7.0897 0.50769 9.8997-1.6169 2.8099-2.1246 4.9528-5.6801 6.3889-10.695 0.76022-2.6551 1.1645-5.0078 1.2042-7.0594 0.0675-2.0435-0.19355-3.8046-0.78493-5.2813-0.58393-1.5035-1.4803-2.732-2.6854-3.6809-1.2051-0.94886-2.6756-1.6639-4.4049-2.1401z"/>
        <path id="path3549" d="m319.81 672.67c2.6862 1.0686 5.0296 2.5299 6.9603 4.3398 0.14674 0.13483 0.29064 0.27117 0.43166 0.40899 1.6422 1.5945 3.0211 3.5436 3.9343 5.7029 1.0004 2.3109 1.3878 4.8253 1.0859 7.4072-0.25862 2.5754-1.2801 5.1035-2.8899 7.645-0.62609 0.98837-1.1517 1.5781-1.5704 1.7774-0.41878 0.19934-0.9163 0.12172-1.5149-0.22374-2.3646-1.3645-4.8915-2.5573-7.4576-3.7282-5.789-2.6226-11.779-4.856-17.841-6.9566-0.38896-0.13476-0.77814-0.26891-1.1675-0.40244-0.8136 2.5527-1.2182 4.8766-1.2295 6.9694-0.00063 0.11763-0.00022 0.23455 0.001 0.35077 0.0266 1.9526 0.34942 3.7072 0.95575 5.2645 0.65173 1.6237 1.5957 3.0163 2.8183 4.1854 1.2323 1.1429 2.7178 2.0525 4.453 2.7508 1.6146 0.64977 3.0466 1.0312 4.3346 1.1406 0.56812 0.0404 1.1068 0.0662 1.6172 0.0765 0.70429 0.043 1.3414 0.0398 1.9211-0.00089 1.0161-0.0714 1.8498-0.18273 2.5291-0.31732 0.71307-0.14918 1.2428-0.13369 1.5875 0.0425 0.44604 0.22796 0.66294 0.61198 0.65691 1.1472 0.027 1.044 0.00041 2.068-0.091 3.0667-1.0906 0.64859-2.1956 1.1587-3.3994 1.4904-1.1908 0.30698-2.4328 0.45866-3.7959 0.38871-0.62714-0.0278-1.2727-0.10048-1.9406-0.22399-0.71852-0.0939-1.4376-0.22396-2.16-0.39124-1.3675-0.28848-2.69-0.68372-3.9759-1.1953-2.455-0.97673-4.6421-2.3047-6.5473-4.0256-0.95982-0.89177-1.8251-1.8676-2.5893-2.9288-0.7178-1.0037-1.3399-2.0815-1.8658-3.2352-1.0452-2.3869-1.62-5.0729-1.7082-8.066s0.4078-6.2323 1.5222-9.7125c0.90175-2.816 2.1818-5.3054 3.8648-7.4561 1.7108-2.1415 3.7224-3.8158 6.0442-5.0073 1.3352-0.69767 2.7603-1.2165 4.2747-1.553 1.1236-0.25339 2.2999-0.40396 3.5308-0.44729 2.8911-0.12769 5.9734 0.425 9.2204 1.7166zm-1.8493 5.165c-3.7106-1.4788-6.9763-1.5431-9.7574-0.31012-1.6839 0.73312-3.1594 1.8656-4.4372 3.3833-0.82644 0.97997-1.5698 2.1212-2.2329 3.4219 0.31212 0.10717 0.62412 0.21474 0.93602 0.3227 6.1315 2.1217 12.254 4.4077 18.236 7.1144 1.0684 0.47892 2.1439 0.97264 3.2181 1.4913 0.75393-1.5616 1.2119-3.0967 1.3503-4.6086 0.15027-1.5372-0.031-2.9941-0.5208-4.3394-0.0935-0.26811-0.1989-0.53018-0.3156-0.78585-0.50187-1.0756-1.2219-2.063-2.154-2.9515-1.119-1.1178-2.5683-2.0387-4.3229-2.738z"/>
        <path id="path3551" d="m327.68 725.34 17.15-38.812c0.59347 0.19695 1.4115 0.45285 2.4174 0.80929 0.66048 0.2341 1.0424 0.84533 1.052 1.7727-0.00056 0.0829-0.004 0.16866-0.0107 0.25732-0.28154 1.5177-0.55037 3.0379-0.80687 4.5606 2.0672-1.5254 4.0998-2.7219 6.2224-3.5765 2.1456-0.84988 4.4524-1.1048 7.1269-0.73504 0.7847 0.10852 1.538 0.26431 2.2584 0.46945 1.1823 0.33148 2.2558 0.78794 3.2249 1.3763 1.5874 0.92128 2.8844 2.1253 3.8897 3.6327 1.0341 1.4818 1.793 3.2256 2.2629 5.2416 0.46982 2.0161 0.64236 4.22 0.49181 6.6138l-1.6942 26.931c-2.8173-0.17887-5.6455-0.40456-8.4835-0.6817l2.6538-26.855c0.31539-3.1921-0.17864-5.7314-1.4167-7.6377-0.4629-0.73989-1.0445-1.3636-1.7448-1.8748-1.1285-0.82653-2.5523-1.3554-4.2573-1.6123-2.022-0.30464-3.9355-0.10209-5.85 0.58379-1.89 0.69104-3.7526 1.716-5.6771 3.0622l-8.3152 30.086c-0.46696-0.1271-0.9354-0.25766-1.4053-0.39178-2.6263-0.57348-5.6923-1.6058-9.0889-3.2197z"/>
        <path id="path3553" d="m413.4 698.64c-0.20135 0.32196-0.40812 0.57413-0.61996 0.75647-0.21189 0.18242-0.52757 0.28786-0.94666 0.31555-0.41915 0.0277-0.89133-0.10951-1.4146-0.41236-0.49713-0.33236-1.1343-0.68479-1.91-1.0593-0.43321-0.20913-0.91704-0.40295-1.4514-0.58204-0.42407-0.14232-0.87971-0.27541-1.3668-0.39959-1.0767-0.31041-2.3908-0.43114-3.9441-0.36957-2.0526 0.0815-3.8499 0.51407-5.4108 1.307-1.5616 0.76506-2.8738 1.8482-3.9455 3.2577-1.0438 1.4092-1.8472 3.1031-2.4063 5.0876-0.53082 1.9844-0.80276 4.2037-0.79964 6.6602 0.003 2.5683 0.31162 4.8575 0.94306 6.865 0.6313 1.9796 1.526 3.6497 2.6861 5.0037 1.1598 1.3261 2.5695 2.3362 4.2202 3.0216 1.6802 0.65671 3.5544 0.94731 5.6039 0.86455 1.959-0.0791 3.5562-0.36791 4.7918-0.85231 0.43887-0.18216 0.85016-0.36888 1.234-0.55991 0.69884-0.34464 1.308-0.70379 1.8278-1.0762 0.80665-0.57795 1.4638-1.0939 1.9738-1.5456 0.50821-0.47953 1.0288-0.73726 1.5644-0.77334 0.68433-0.0461 1.2064 0.15485 1.568 0.6047 0.80963 0.85162 1.6243 1.7008 2.444 2.5474-1.8069 2.406-4.1911 4.2404-7.1365 5.4738-0.63102 0.25812-1.2721 0.49159-1.9229 0.70027-2.3741 0.77272-4.8914 1.2134-7.5397 1.3108-2.9103 0.10698-5.6567-0.31644-8.1985-1.2608-2.511-0.94473-4.6923-2.355-6.5181-4.2114-1.8257-1.8844-3.2337-4.2-4.225-6.9298-0.96137-2.7291-1.3724-5.8263-1.2776-9.2849 0.0864-3.1518 0.61426-6.0531 1.5435-8.7124 0.95724-2.6586 2.2692-4.9373 3.9284-6.8519 1.6868-1.9422 3.7196-3.4654 6.1211-4.5892s5.147-1.7364 8.2856-1.8566c2.0163-0.0772 3.8904 0.0736 5.6275 0.45967 0.75105 0.16591 1.4754 0.37601 2.1736 0.63076 2.3024 0.81291 4.3844 2.0245 6.2585 3.6456-0.58218 0.93968-1.1693 1.878-1.7612 2.8149z"/>
        <path id="path3555" d="m428.52 670.3 7.4433 61.205c-2.7061 0.32959-5.4138 0.63033-8.1224 0.90279l-6.165-61.35c2.2871-0.22939 4.5688-0.48174 6.8442-0.75764z"/>
        <path id="path3557" d="m451.49 686.25 7.7511 41.682c-2.6912 0.50016-5.386 0.96984-8.0836 1.4096l-6.8178-41.845c2.3897-0.38916 4.7733-0.80458 7.1503-1.2468zm-0.89843-13.375c0.13626 0.7126 0.12405 1.4111-0.0395 2.0953-0.14297 0.65205-0.401 1.2688-0.77547 1.8494-0.35367 0.54841-0.80528 1.0147-1.3545 1.3976-0.54926 0.38298-1.1645 0.63425-1.8436 0.75268-0.67906 0.11853-1.3434 0.0905-1.9906-0.0837-0.62104-0.17848-1.2049-0.46392-1.7504-0.85567-0.52395-0.42344-0.96377-0.9181-1.3201-1.4829-0.36069-0.59229-0.59666-1.2472-0.71013-1.9637-0.11347-0.71647-0.0914-1.412 0.0636-2.0866 0.15065-0.70207 0.40456-1.322 0.76096-1.8608 0.37739-0.57028 0.82107-1.0394 1.3319-1.4082 0.53614-0.37299 1.1313-0.6162 1.7875-0.73077 0.65626-0.11444 1.298-0.087 1.9279 0.0825 0.62988 0.16962 1.2051 0.46075 1.7268 0.87438 0.5419 0.3816 1.0024 0.87659 1.3813 1.4862 0.39904 0.57745 0.66793 1.2219 0.8042 1.9344z"/>
        <path id="path3559" d="m476.64 739.04-12.638-55.399c1.3943-0.3202 2.7812-0.64848 4.1598-0.98605 0.98848-0.24198 1.7344 0.10242 2.2487 1.0386 0.6071 1.5756 1.2181 3.1499 1.8331 4.7229 1.1777-2.5787 2.6434-4.8019 4.3919-6.6889 1.774-1.8942 3.9818-3.2474 6.6535-4.1193 2.1325-0.69583 4.1875-0.91467 6.226-0.65889 2.0288 0.22975 3.9766 0.94339 5.8824 2.1516 1.8952 1.1825 3.719 2.8569 5.471 5.0443 1.752 2.1875 3.3658 4.8718 4.7877 8.0848 1.2638 2.856 2.0424 5.7 2.2684 8.5474 0.21487 2.8218-0.12239 5.4944-1.0368 7.9979-0.92495 2.4777-2.4474 4.734-4.5528 6.7194-2.0845 1.9481-4.7256 3.4528-7.857 4.4521-2.8858 0.92094-5.4824 1.2332-7.7579 0.97716-2.2451-0.26466-4.3356-0.97844-6.2626-2.1246l4.6862 18.179c-2.8534 0.74108-5.6891 1.4263-8.5034 2.0614zm6.2795-54.988c-2.2243 0.69587-4.0401 1.8042-5.4702 3.3639-1.4039 1.5524-2.591 3.5013-3.5716 5.8594l5.1255 19.884c1.8983 1.4137 3.8236 2.2441 5.7539 2.4863 1.9601 0.23389 4.0302 0.0237 6.1846-0.64221 4.219-1.3041 7.0295-3.7818 8.288-7.2338s0.87326-7.615-0.99346-12.482c-0.9883-2.5763-2.079-4.6948-3.248-6.3687-1.143-1.6836-2.3494-2.9578-3.6184-3.8317-1.2786-0.89997-2.6118-1.4174-4.0165-1.5579-1.4048-0.14041-2.8744 0.0348-4.4339 0.52269z"/>
        <path id="path3561" d="m551.56 694.76c-0.97896 0.4171-1.9599 0.84063-2.9432 1.27-0.64722 0.28263-1.2154 0.41098-1.7047 0.38305-0.48934-0.0279-0.94347-0.3453-1.3619-0.95343-0.78051-1.0886-1.5635-2.1759-2.3487-3.2621-0.60614 1.3701-1.2213 2.6419-1.8491 3.8155-0.63927 1.1482-1.3728 2.2201-2.2037 3.2171-0.84259 0.97165-1.8139 1.8675-2.9179 2.6895-1.0786 0.81015-2.3592 1.5632-3.8478 2.262-1.5143 0.71081-3.0417 1.1831-4.5808 1.4139-1.5251 0.19339-2.9835 0.1085-4.3703-0.25746s-2.6816-1.0379-3.8806-2.0171c-1.1846-1.0168-2.1873-2.3965-3.0082-4.139-0.71382-1.5152-0.96514-3.1704-0.75803-4.9652 0.1952-1.8201 0.98728-3.7222 2.3762-5.706 1.4149-1.996 3.5093-4.068 6.2956-6.2025 2.7745-2.1597 6.3937-4.3339 10.88-6.4523l-1.3446-3.0218c-1.339-3.009-3.0306-4.9773-5.0865-5.8902-2.0406-0.95033-4.3999-0.81857-7.0357 0.39747-1.7306 0.79846-3.0863 1.6928-4.0724 2.6784-0.97154 0.94803-1.7636 1.8915-2.3793 2.8298-0.60138 0.90078-1.1135 1.7139-1.5381 2.4396-0.41036 0.68811-0.91523 1.1739-1.515 1.4575-0.46935 0.22202-0.93989 0.3056-1.4118 0.25082-0.4578-0.0923-0.87414-0.26601-1.2492-0.52105-0.75607-0.52265-1.5117-1.0454-2.2666-1.5685 1.215-3.0773 2.8492-5.7232 4.9243-7.9363 2.0751-2.213 4.6909-4.0565 7.8635-5.514 2.2853-1.0498 4.4992-1.6213 6.6184-1.7106 2.1192-0.0891 4.0815 0.23977 5.8712 0.98418 1.7897 0.74452 3.3873 1.8976 4.7905 3.4528 1.4032 1.5553 2.5604 3.4284 3.4847 5.6115zm-19.358 3.7224c1.2066-0.5642 2.2539-1.1904 3.1451-1.8803 0.87948-0.71531 1.653-1.4869 2.3229-2.3162 0.68375-0.86632 1.2767-1.796 1.7808-2.7904 0.52956-1.0059 0.99582-2.0878 1.4008-3.2467l-3.5914-8.0707c-3.1635 1.5314-5.7667 3.0352-7.8147 4.476-2.0598 1.4154-3.6414 2.7741-4.7474 4.065s-1.7812 2.5203-2.0259 3.6855c-0.21871 1.153-0.0777 2.26 0.42308 3.3208 0.4769 1.0104 1.0572 1.8021 1.7404 2.3756 0.68311 0.57353 1.423 0.96598 2.2187 1.178 0.78379 0.18673 1.6164 0.21171 2.4969 0.0759 0.86855-0.16108 1.7522-0.45213 2.6508-0.8723z"/>
        <path id="path3563" d="m561.59 690.71-14.985-39.611c1.4737-0.5574 2.9572-1.1051 4.4511-1.6418 0.84945-0.30516 1.4895-0.3679 1.914-0.19209 0.42453 0.1759 0.81872 0.59949 1.1821 1.27 0.89632 2.0202 1.788 4.0424 2.6749 6.0665 0.41671-2.6422 1.23-4.9701 2.4464-6.9704 0.30764-0.50338 0.64122-0.98577 1.0008-1.4467 1.8117-2.3304 4.3621-3.9695 7.6072-4.8213 1.3232-0.34727 2.5662-0.51164 3.7151-0.49823 1.1423-0.0136 2.2325 0.11184 3.2623 0.3735 0.0291 1.8924 0.0725 3.7834 0.1296 5.6728-0.0608 0.72889-0.45531 1.1753-1.1846 1.3472-0.42547 0.10036-1.1067 0.13338-2.0458 0.10883-0.94592-0.0515-2.2085 0.12693-3.768 0.55558-2.7891 0.76675-4.882 2.2001-6.2489 4.2193-0.16029 0.24079-0.31263 0.48975-0.45702 0.74682-1.0569 1.8877-1.6883 4.2098-1.8949 6.9524l8.7228 25.529c-2.169 0.73277-4.3422 1.5149-6.5221 2.3398z"/>
        <path id="path3565" d="m600.48 682.5c-2.4695 0.0513-4.4673-0.6575-6.095-2.2376-0.0673-0.0646-0.134-0.1307-0.20001-0.1982-1.6562-1.7191-2.7876-4.278-3.2345-7.7635l-3.299-25.726c-1.9468 0.25198-3.8781 0.54695-5.7935 0.881-0.50239 0.0876-0.94709 0.0406-1.3378-0.14275-0.3958-0.21073-0.64667-0.58896-0.75026-1.1371l-0.55157-2.9188c2.6252-0.79033 5.3032-1.5127 8.0363-2.1568 0.13915-4.418 0.35053-8.8407 0.63744-13.268 0.0288-0.4244 0.23451-0.78501 0.62089-1.08 0.14529-0.12222 0.30929-0.22612 0.49196-0.31154 0.30291-0.14019 0.65641-0.2304 1.0597-0.26929 1.7187-0.16559 3.449-0.29461 5.1893-0.38604l0.75412 14.596c4.972-0.25959 10.009-0.18097 15.067 0.27019l-0.4708 5.3763c-4.7934-0.42557-9.5809-0.49786-14.318-0.25121l1.3138 25.429c0.0922 1.7845 0.54259 3.087 1.3125 3.9242 0.76986 0.83713 1.7081 1.2435 2.846 1.2409 0.65019-0.001 1.206-0.0924 1.6742-0.27839 0.49202-0.21347 0.91817-0.43742 1.278-0.67529 0.35981-0.23785 0.66321-0.44736 0.90809-0.63072 0.26975-0.21005 0.50041-0.30889 0.68858-0.29773 0.32924 0.0195 0.60767 0.2759 0.82777 0.76715 0.51539 1.2256 0.99754 2.4565 1.4453 3.6916-1.1234 1.0942-2.3786 1.9481-3.7939 2.5882-1.4141 0.61227-2.829 0.93334-4.3071 0.96403z"/>
        <path id="path3567" d="m613.21 678.14c0.12475-0.7142 0.34012-1.3702 0.65489-1.9648 0.33712-0.59056 0.73331-1.0842 1.1894-1.4774 0.47895-0.38864 1.0156-0.6626 1.6055-0.81723 0.13011-0.0341 0.26069-0.0608 0.39161-0.08 0.58625-0.0437 1.1801-0.00081 1.7834 0.12846 0.77395 0.16587 1.4742 0.4548 2.1041 0.86865 0.62986 0.41386 1.1531 0.90255 1.5704 1.4681 0.4173 0.56562 0.7014 1.1886 0.85093 1.8704 0.17971 0.68762 0.20281 1.3872 0.0658 2.0989-0.14228 0.7391-0.42638 1.3945-0.85569 1.9649-0.39332 0.54889-0.89818 1.005-1.5159 1.3665-0.61776 0.36146-1.3094 0.59326-2.0735 0.69357-0.76983 0.12761-1.5603 0.10584-2.3677-0.066-0.62938-0.13392-1.2124-0.34695-1.7474-0.63819-0.0906-0.0705-0.1788-0.14699-0.26462-0.22956-0.395-0.3471-0.71771-0.78511-0.96945-1.3189-0.23163-0.52976-0.39942-1.1145-0.4996-1.7565-0.0744-0.6656-0.0518-1.3693 0.0778-2.111z"/>
        <path id="path3569" d="m656.16 645.97c2.9668 0.24562 5.6116 0.93358 7.9639 2.0949 2.3793 1.1628 4.3898 2.7104 6.0331 4.6665 1.6708 1.9571 2.9483 4.2935 3.817 7.0232 0.89743 2.7025 1.3319 5.7133 1.2687 9.0369-0.0638 3.3515-0.61513 6.3595-1.6883 9.0159-1.0436 2.6571-2.5475 4.9084-4.5263 6.7354-1.9486 1.8281-4.3399 3.1917-7.1683 4.0627-2.7962 0.84494-5.9325 1.1334-9.3734 0.83655-3.441-0.29691-6.5167-1.122-9.1818-2.4428-2.6311-1.3449-4.7813-3.1058-6.4344-5.2518-1.6531-2.1461-2.7691-4.6291-3.3614-7.4298-0.59234-2.8007-0.59574-5.8518-0.0571-9.1519 0.5341-3.2725 1.5006-6.1484 2.8549-8.6432 1.3586-2.5222 3.0227-4.592 4.9843-6.23 1.9616-1.6379 4.1767-2.8224 6.6675-3.575 2.5174-0.74957 5.2347-0.99292 8.2016-0.74737zm-3.184 37.678c4.5646 0.39198 8.0709-0.79975 10.438-3.4675 2.3685-2.6956 3.6171-6.5736 3.8309-11.594 0.21493-5.0483-0.67941-9.0211-2.594-11.943-1.9147-2.9214-4.8888-4.498-8.984-4.8392-2.075-0.17284-3.9032 0.0153-5.5067 0.57746-1.6035 0.56228-3.0052 1.4542-4.2132 2.6855-1.1805 1.2346-2.1671 2.809-2.9554 4.7304-0.75678 1.8974-1.3073 4.087-1.6346 6.5734-0.32737 2.4864-0.36091 4.7448-0.0832 6.7754 0.30711 2.0344 0.93159 3.7995 1.8796 5.2887 0.98127 1.4652 2.2862 2.6542 3.9092 3.5544 1.623 0.90023 3.6006 1.4594 5.9134 1.658z"/>
        <path id="path3571" d="m685.01 690.1-0.30081-42.466c1.3972-0.0107 2.796-0.0292 4.1964-0.055 0.79625-0.0146 1.3489 0.12681 1.6585 0.42734 0.30957 0.30061 0.52883 0.82656 0.6576 1.5783 0.21912 2.2034 0.44105 4.4067 0.66575 6.6098 1.3858-2.9986 3.0923-5.3557 5.1321-7.0821 2.0664-1.7553 4.5-2.6996 7.3409-2.8502 1.1584-0.0614 2.215 0.0185 3.1718 0.24152 0.93312 0.19074 1.8087 0.48914 2.6277 0.89602 0.0191 0.009 0.0382 0.019 0.0573 0.0286-0.0111 0.10844-0.0223 0.21689-0.0335 0.32533-0.18285 1.7635-0.36881 3.5272-0.55795 5.2911-0.15049 0.70867-0.56323 1.0846-1.237 1.1257-0.39304 0.024-1.0047-0.0647-1.8329-0.26886-0.82992-0.23191-1.9724-0.30777-3.4291-0.23419-2.6054 0.1317-4.7519 0.9747-6.4685 2.5473-1.6886 1.5716-3.0898 3.8081-4.2138 6.7174l0.71251 27.032c-2.7093 0.0723-5.4253 0.1182-8.1471 0.1357z"/>
        <path id="path3573" d="m731.89 643.94c1.8006-0.21375 3.5011-0.21687 5.1094-0.006 1.3672 0.1506 2.649 0.44404 3.8488 0.88271 0.23231 0.0849 0.46137 0.17529 0.68721 0.27116 2.7038-0.38477 5.3753-0.79289 8.0114-1.2381 0.75854-0.12811 1.4974-0.25602 2.2161-0.3864 0.18572-0.0337 0.3614-0.0659 0.52697-0.0969 0.0344-0.006 0.0637-0.0119 0.088-0.0165 0.82916 4.2582 1.6585 8.5167 2.4881 12.776 0.28771 1.4771 0.57547 2.9542 0.86323 4.4314 0.00045 0.002 0.0009 0.005 0.001 0.007-0.00001-0.00004-0.00038-0.002-0.001-0.006-0.0185-0.0947-0.26115-1.3361-0.71795-3.6728-0.46111-2.3587-1.1405-5.8334-2.029-10.378v-0.00001c0.006 0.13912-0.001 0.27074-0.0304 0.39632h-0.00001c-0.074 0.25188-0.21659 0.47693-0.44274 0.67719-0.20892 0.18504-0.47965 0.34713-0.81439 0.48589-0.44809 0.14721-0.90231 0.29361-1.3623 0.43977-1.0602 0.33691-2.1269 0.66778-3.1995 0.99345 1.2106 1.6462 2.0045 3.566 2.3607 5.7697 0.32941 2.0384 0.22561 3.964-0.33286 5.775-0.53449 1.779-1.4467 3.3746-2.7392 4.7776-0.67942 0.75199-1.4577 1.4345-2.3334 2.0461-0.75334 0.52608-1.5794 0.99975-2.4777 1.4198-1.9136 0.90447-4.0836 1.5054-6.4973 1.7921-2.0648 0.24525-4.0424 0.22656-5.9234-0.0522-0.87175 0.65307-1.5248 1.3224-1.9569 2.0109-0.40294 0.68557-0.57568 1.3334-0.51519 1.9443 0.099 0.99965 0.60043 1.7217 1.5086 2.1621 0.90533 0.41264 2.0794 0.6555 3.5206 0.72226 1.4412 0.0668 3.067 0.0225 4.8746-0.1389 1.8076-0.16142 3.6496-0.29587 5.5273-0.40491 1.0923-0.0807 2.1744-0.13166 3.247-0.15273 0.79646-0.0156 1.5893-0.015 2.3787 0.002 1.8524 0.0391 3.5521 0.28458 5.1022 0.74191 0.96086 0.28351 1.834 0.68048 2.6192 1.1932 0.48138 0.31444 0.93375 0.67159 1.3552 1.0722 1.1088 1.0538 1.8646 2.5324 2.2114 4.4546 0.32189 1.7849 0.0839 3.6159-0.68956 5.4766-0.21308 0.53325-0.46608 1.0564-0.75581 1.5687-0.71863 1.2699-1.6932 2.4785-2.9177 3.618-1.641 1.5573-3.7174 2.9094-6.1888 4.0344-0.11022 0.0502-0.2213 0.0999-0.33324 0.14923-2.6188 1.1828-5.6666 1.9925-9.1214 2.405-3.4549 0.41255-6.5253 0.43217-9.1958 0.0824-2.6395-0.35287-4.8543-0.97887-6.643-1.8602-1.7887-0.88134-3.1634-1.975-4.1295-3.2705-0.93328-1.2701-1.451-2.6444-1.5633-4.1191-0.15898-2.0868 0.41964-3.9062 1.7166-5.4665 1.3248-1.5905 3.1862-2.922 5.583-4.0142-1.3351-0.43606-2.4286-1.0819-3.2804-1.9325-0.82456-0.88091-1.299-2.1016-1.43-3.6587-0.0515-0.61172 0.0138-1.2472 0.19436-1.9067 0.17819-0.68723 0.47395-1.3706 0.88586-2.0507 0.44113-0.68268 0.98484-1.3471 1.6302-1.9944 0.64531-0.64721 1.4105-1.2369 2.2954-1.7709-2.2872-0.95649-4.1299-2.3495-5.5285-4.1627-1.3723-1.8434-2.1521-4.063-2.3621-6.6496-0.16711-2.0581 0.0774-3.9532 0.72006-5.6872 0.66821-1.7641 1.6559-3.291 2.959-4.5871 1.3006-1.3238 2.8761-2.3994 4.7294-3.236 1.8807-0.83941 3.9612-1.3903 6.2529-1.6624zm19.723 43.155c-0.1601-1.0482-0.60978-1.84-1.3419-2.3791-0.73218-0.53908-1.6642-0.89454-2.7931-1.0711-0.38213-0.0689-0.78069-0.12467-1.1956-0.16753-0.81536-0.0841-1.6962-0.11786-2.643-0.10242-1.4288 0.0233-2.9238 0.10509-4.4866 0.24333-1.5663 0.11058-3.1622 0.2166-4.7875 0.31728-1.6254 0.10069-3.1833 0.11478-4.6719 0.0445-1.6273 0.92596-2.9322 1.9776-3.9134 3.1634-0.95106 1.183-1.3638 2.5226-1.2272 4.0232 0.086 0.94482 0.42376 1.7969 1.0172 2.5546 0.62648 0.78261 1.5191 1.4137 2.6796 1.8888 1.1632 0.50284 2.5931 0.83573 4.2885 0.99135 1.7291 0.18007 3.7351 0.13924 6.0118-0.13329 2.2152-0.26519 4.1774-0.69865 5.8806-1.2908 1.2596-0.43788 2.3543-0.94406 3.2835-1.515 0.32717-0.20101 0.63444-0.41017 0.9216-0.62735 1.1331-0.83822 1.9578-1.7647 2.4676-2.7724s0.67825-2.0642 0.50979-3.1675zm-17.082-20.918c1.5528-0.1844 2.8928-0.56265 4.0155-1.1288 1.1513-0.56981 2.0762-1.2844 2.7741-2.1394 0.69781-0.8549 1.1724-1.8225 1.426-2.9006 0.0547-0.24226 0.0991-0.48784 0.13326-0.73672 0.12161-0.88698 0.11259-1.8159-0.0247-2.7868-0.14067-0.99436-0.39002-1.8931-0.74604-2.6968-0.5639-1.2731-1.395-2.3077-2.4895-3.1087-1.7579-1.3104-4.1132-1.7727-7.0977-1.4183-2.9569 0.35115-5.1412 1.3532-6.5725 3.0425-1.4034 1.6865-1.9933 3.8161-1.7428 6.399 0.12117 1.2498 0.43097 2.3834 0.93362 3.3994 0.52837 0.98548 1.2314 1.8131 2.1104 2.4803 0.87905 0.66724 1.9313 1.1463 3.1553 1.4335 1.224 0.28721 2.6008 0.34247 4.1249 0.16144z"/>
      </g>
    </g>
    <path id="path3522" style="block-progression:tb;color:#000000;text-transform:none;text-indent:0" d="m95.178 39.815c-0.24367-0.03254-0.51189 0.04793-0.62316 0.25768-0.15519 0.2497-0.02752 0.59426 0.27829 0.73512 0.001 0.000442 0.0025 0.000044 0.0034 0.000473 0.32997 0.1791 0.75501 0.28898 1.1244 0.72298 0.04614 0.05428 0.09278 0.10834 0.13995 0.16218-0.04727 0.04318-0.09493 0.08614-0.14299 0.12888-0.42781 0.38496-0.91334 0.39909-1.3128 0.47671-0.000889 0.000281-0.0028-0.000787-0.0037-0.000519-0.36167 0.04749-0.61967 0.32096-0.53521 0.60939 0.000302 0.000862-0.000768 0.002-0.000466 0.0029 0.06536 0.28855 0.49018 0.47692 0.8544 0.44463 0.0012-0.000062 0.0027 0.000512 0.004 0.000449 0.3711-0.01601 0.68856-0.26251 0.62751-0.53888-0.03012-0.13636-0.0762-0.20238-0.12038-0.24334-0.02208-0.02047-0.04168-0.03383-0.05404-0.04566-0.01235-0.01183-0.06553-0.04661-0.06553-0.04661 0.03683-0.02048 0.05801-0.02988 0.08918-0.04469 0.04669-0.02333 0.1268-0.05012 0.22926-0.08316 0.20314-0.06551 0.50058-0.16124 0.83165-0.33681 0.58311 0.34092 1.4049 0.724 1.8832 0.90967 0.47835 0.18567 0.93949-0.0095 1.1118-0.15026-0.88918-0.27746-1.7045-0.64031-2.4531-1.0638 0.74116-0.44761 1.4112-0.95257 1.9846-1.5081-0.34353-0.15115-0.66859-0.01542-0.89104 0.1368-0.48975 0.38412-1.0336 0.73492-1.617 1.0512-0.25905-0.15204-0.52893-0.30048-0.75849-0.42559-0.0878-0.04784-0.15468-0.08724-0.19225-0.1183-0.01879-0.01554-0.06656-0.05001-0.06656-0.05001 0.04888-0.02387 0.10238-0.07158 0.14109-0.10831 0.03871-0.03672 0.08497-0.09224 0.11668-0.19304 0.08384-0.26652-0.13073-0.5514-0.41723-0.64197-0.05505-0.02035-0.1159-0.02966-0.16545-0.04002-0.000003 0.000022-0.000006 0.000043-0.000009 0.000064zm-0.06122 0.22383c0.11132 0.0083 0.22136 0.05436 0.28834 0.12714 0.10034 0.10904 0.1096 0.24502 0.05484 0.3506s-0.1697 0.17616-0.31987 0.15787c-0.0011-0.000135-0.0023-0.000271-0.0034-0.000407-0.1385-0.0098-0.26399-0.09505-0.32885-0.20441-0.06486-0.10935-0.06787-0.23438 0.02356-0.32842l0.000417-0.0029c0.06527-0.07953 0.17373-0.10772 0.28498-0.0995-0.000008-0.000002-0.000016-0.000003-0.000024-0.000005zm-0.21248 2.4669c0.01146 0.0012 0.02328 0.0024 0.0306 0.0037 0.16826 0.02014 0.27921 0.11301 0.31834 0.22791s0.0026 0.24746-0.14077 0.3305c-0.09556 0.05536-0.2422 0.07563-0.3752 0.05291-0.133-0.02268-0.24666-0.08501-0.29614-0.18128-0.0012-0.0011-0.0023-0.0023-0.0035-0.0034-0.0723-0.11451-0.02922-0.2257 0.06838-0.31023 0.09758-0.08453 0.24948-0.13609 0.39829-0.12006-0.00001-0.000003-0.00002-0.000007-0.00003-0.000011z"/>
  </g>
  <g id="layer1" stroke-width="1px" fill="none">
    <path id="path3580" stroke="#d40000" stroke-opacity=".68037" d="m92.71 39.542 0.34683 5.244c3.5038-0.56501 6.4043-0.52085 10.248 0.74082 4.5018 1.4779 6.6278-0.1283 10.423-0.93662 1.8419-0.39228 5.0362-0.52231 6.9213 0.25213 0.14875-2.0642 0.88366-3.8984-0.44732-5.5692 0 0-2.5393-0.72412-5.8767 0.21457-5.6639 1.593-7.8271 1.8719-13.018 0.06057-2.5029-0.87334-4.7177-1.2015-8.5967-0.0063z"/>
    <path id="path3584" stroke="#000" stroke-opacity=".050228" d="m92.71 39.183 0.34683 5.244c3.5038-0.56501 6.4043-0.52085 10.248 0.74082 4.5018 1.4779 6.6278-0.1283 10.423-0.93662 1.8419-0.39228 5.0362-0.52231 6.9213 0.25213 0.14875-2.0642 0.88366-3.8984-0.44732-5.5692 0 0-2.5393-0.72412-5.8767 0.21457-5.6639 1.593-7.8271 1.8719-13.018 0.06057-2.5029-0.87334-4.7177-1.2015-8.5967-0.0063z"/>
    <path id="path3582" stroke="#d40000" stroke-opacity=".77626" d="m93.068 45.162c1.0056 4.3596 0.44507 8.7015 0.16775 13.11 1.8993 1.7511 3.1905 3.5782 3.9383 5.4733 2.2407-0.01339 5.2651 0.52852 8.1953-0.04031 1.8553-0.36016 4.7498-0.17461 6.0792 0.03471 4.2368 0.6671 6.3157-0.08279 6.3157-0.08279 0.96847-1.7685 2.3182-3.0604 3.861-4.1109 0 0-1.5479-9.5737-0.93581-14.512"/>
    <path id="path4370" filter="url(#filter4384)" stroke="#000" stroke-opacity=".059361" d="m93.068 45.641c1.0056 4.3596 0.44507 8.7015 0.16775 13.11 1.8993 1.7511 3.1905 3.5782 3.9383 5.4733 2.2407-0.01339 5.2651 0.52852 8.1953-0.04031 1.8553-0.36016 4.7498-0.17461 6.0792 0.03471 4.2368 0.6671 6.3157-0.08279 6.3157-0.08279 0.96847-1.7685 2.3182-3.0604 3.861-4.1109 0 0-1.5479-9.5737-0.93581-14.512"/>
  </g>
  <g id="g6369">
    <path id="path6371" opacity=".206" filter="url(#filter6427)" d="m80.306 22.789-7.0939 8.8901c-7.733-5.938-8.595-13.761-10.674-20.326"/>
    <path id="path6373" opacity=".206" filter="url(#filter6407)" d="m84.16 22.24 7.2152 8.6108c7.7328-5.9371 8.975-13.243 10.838-20.562"/>
    <path id="path21795" d="m79.157 21.257c-2.1537-1.6765-4.2886-4.0002-5.9372-6.4623-0.5548-0.82859-1.6608-2.6718-1.6608-2.7677 0-0.09392 2.378-0.68042 3.6784-0.9072 4.6477-0.81058 10.116-0.6669 15.32 0.40251 2.0218 0.4155 2.4993 0.52664 2.4993 0.58178 0 0.02965-0.24247 0.45406-0.53881 0.94314-2.0703 3.4168-4.6398 6.2326-7.6954 8.4331l-0.59137 0.42588h-4.2404l-0.83396-0.64917z" fill="url(#linearGradient6480)"/>
  </g>
  <g id="layer8">
    <path id="path3296" d="m67.538 3.7625c2.7397 8.0624 6.1678 14.452 12.235 18.521l-6.7711 7.9217c-7.7328-5.9371-8.057-12.685-10.136-19.25" fill="url(#linearGradient6340)"/>
    <path id="path3314" d="m97.08 3.6059c-2.7397 8.0624-6.5112 14.28-12.578 18.349l7 7.75c7.7328-5.9371 8.1143-13.028 10.193-19.593" fill="url(#linearGradient5686-0-4)"/>
    <path id="path21785" d="m92.24 10.381c-5.6602-1.3221-11.716-1.613-16.716-0.80303-0.99102 0.16051-3.15 0.63446-3.8915 0.85428-0.29707 0.08806-0.56352 0.16012-0.59212 0.16012-0.2082 0-2.8404-6.2445-2.8296-6.7128 0.001-0.06195 0.0544-0.18103 0.11772-0.26462 0.11193-0.14776 0.16701-0.14606 1.9796 0.06105 4.7732 0.54538 8.9392 0.74965 13.799 0.67658 4.298-0.06463 7.4488-0.2667 11.186-0.71737 0.75732-0.09133 1.3902-0.15277 1.4065-0.13654 0.0497 0.04968-0.74887 2.1526-1.359 3.5788-0.7843 1.8333-1.6489 3.5517-1.795 3.5675-0.066 0.0071-0.65326-0.11168-1.3052-0.26394z" fill="url(#linearGradient6446)"/>
  </g>
  <g id="layer7">
    <g id="g6220" transform="matrix(.13890 0 0 .13890 65.716 29.466)">
      <path id="path6606" d="m568.57 398.79c0 104.54-84.746 189.29-189.29 189.29s-189.29-84.746-189.29-189.29 84.746-189.29 189.29-189.29 189.29 84.746 189.29 189.29z" fill="url(#radialGradient6237)" transform="matrix(.047213 0 0 .047213 101.51 -40.276)"/>
      <path id="path7128" d="m568.57 398.79c0 104.54-84.746 189.29-189.29 189.29s-189.29-84.746-189.29-189.29 84.746-189.29 189.29-189.29 189.29 84.746 189.29 189.29z" fill="url(#radialGradient6239)" transform="matrix(-.043293 0 0 .043293 135.9 -38.646)"/>
      <path id="path7132" filter="url(#filter7160)" d="m568.57 398.79c0 104.54-84.746 189.29-189.29 189.29s-189.29-84.746-189.29-189.29 84.746-189.29 189.29-189.29 189.29 84.746 189.29 189.29z" fill="url(#radialGradient6241)" transform="matrix(.039136 0 0 .039136 105 -37.155)"/>
      <g id="g7185" transform="matrix(.047213 0 0 .047213 101.79 -40.276)">
        <path id="path7167" d="m344.46 348.79c0 9.7631-7.9146 17.678-17.678 17.678-9.7631 0-17.678-7.9146-17.678-17.678 0-9.7631 7.9146-17.678 17.678-17.678 9.7631 0 17.678 7.9146 17.678 17.678z" transform="translate(10.102 15.152)" fill-opacity=".94118"/>
        <path id="path7175" d="m344.46 348.79c0 9.7631-7.9146 17.678-17.678 17.678-9.7631 0-17.678-7.9146-17.678-17.678 0-9.7631 7.9146-17.678 17.678-17.678 9.7631 0 17.678 7.9146 17.678 17.678z" transform="matrix(.9 0 0 .9 42.78 50.284)"/>
      </g>
      <g id="g7191" transform="matrix(.047213 0 0 .047213 105.18 -40.276)">
        <path id="path7193" d="m344.46 348.79c0 9.7631-7.9146 17.678-17.678 17.678-9.7631 0-17.678-7.9146-17.678-17.678 0-9.7631 7.9146-17.678 17.678-17.678 9.7631 0 17.678 7.9146 17.678 17.678z" transform="translate(10.102 15.152)" fill-opacity=".94118"/>
        <path id="path7195" d="m344.46 348.79c0 9.7631-7.9146 17.678-17.678 17.678-9.7631 0-17.678-7.9146-17.678-17.678 0-9.7631 7.9146-17.678 17.678-17.678 9.7631 0 17.678 7.9146 17.678 17.678z" transform="matrix(.9 0 0 .9 42.78 50.284)"/>
      </g>
      <g id="g7199" transform="matrix(.047213 0 0 .047213 105.18 -36.604)">
        <path id="path7201" d="m344.46 348.79c0 9.7631-7.9146 17.678-17.678 17.678-9.7631 0-17.678-7.9146-17.678-17.678 0-9.7631 7.9146-17.678 17.678-17.678 9.7631 0 17.678 7.9146 17.678 17.678z" transform="translate(10.102 15.152)" fill-opacity=".94118"/>
        <path id="path7203" d="m344.46 348.79c0 9.7631-7.9146 17.678-17.678 17.678-9.7631 0-17.678-7.9146-17.678-17.678 0-9.7631 7.9146-17.678 17.678-17.678 9.7631 0 17.678 7.9146 17.678 17.678z" transform="matrix(.9 0 0 .9 42.78 50.284)"/>
      </g>
      <g id="g7207" transform="matrix(.047213 0 0 .047213 101.82 -36.604)">
        <path id="path7209" d="m344.46 348.79c0 9.7631-7.9146 17.678-17.678 17.678-9.7631 0-17.678-7.9146-17.678-17.678 0-9.7631 7.9146-17.678 17.678-17.678 9.7631 0 17.678 7.9146 17.678 17.678z" transform="translate(10.102 15.152)" fill-opacity=".94118"/>
        <path id="path7211" d="m344.46 348.79c0 9.7631-7.9146 17.678-17.678 17.678-9.7631 0-17.678-7.9146-17.678-17.678 0-9.7631 7.9146-17.678 17.678-17.678 9.7631 0 17.678 7.9146 17.678 17.678z" transform="matrix(.9 0 0 .9 42.78 50.284)"/>
      </g>
    </g>
    <g id="g6243" transform="matrix(.13890 0 0 .13890 65.641 35.474)">
      <path id="path6245" d="m568.57 398.79c0 104.54-84.746 189.29-189.29 189.29s-189.29-84.746-189.29-189.29 84.746-189.29 189.29-189.29 189.29 84.746 189.29 189.29z" fill="url(#radialGradient6237)" transform="matrix(.047213 0 0 .047213 101.51 -40.276)"/>
      <path id="path6247" d="m568.57 398.79c0 104.54-84.746 189.29-189.29 189.29s-189.29-84.746-189.29-189.29 84.746-189.29 189.29-189.29 189.29 84.746 189.29 189.29z" fill="url(#radialGradient6239)" transform="matrix(-.043293 0 0 .043293 135.9 -38.646)"/>
      <path id="path6249" filter="url(#filter7160)" d="m568.57 398.79c0 104.54-84.746 189.29-189.29 189.29s-189.29-84.746-189.29-189.29 84.746-189.29 189.29-189.29 189.29 84.746 189.29 189.29z" fill="url(#radialGradient6241)" transform="matrix(.039136 0 0 .039136 105 -37.155)"/>
      <g id="g6251" transform="matrix(.047213 0 0 .047213 101.79 -40.276)">
        <path id="path6253" d="m344.46 348.79c0 9.7631-7.9146 17.678-17.678 17.678-9.7631 0-17.678-7.9146-17.678-17.678 0-9.7631 7.9146-17.678 17.678-17.678 9.7631 0 17.678 7.9146 17.678 17.678z" transform="translate(10.102 15.152)" fill-opacity=".94118"/>
        <path id="path6255" d="m344.46 348.79c0 9.7631-7.9146 17.678-17.678 17.678-9.7631 0-17.678-7.9146-17.678-17.678 0-9.7631 7.9146-17.678 17.678-17.678 9.7631 0 17.678 7.9146 17.678 17.678z" transform="matrix(.9 0 0 .9 42.78 50.284)"/>
      </g>
      <g id="g6257" transform="matrix(.047213 0 0 .047213 105.18 -40.276)">
        <path id="path6259" d="m344.46 348.79c0 9.7631-7.9146 17.678-17.678 17.678-9.7631 0-17.678-7.9146-17.678-17.678 0-9.7631 7.9146-17.678 17.678-17.678 9.7631 0 17.678 7.9146 17.678 17.678z" transform="translate(10.102 15.152)" fill-opacity=".94118"/>
        <path id="path6261" d="m344.46 348.79c0 9.7631-7.9146 17.678-17.678 17.678-9.7631 0-17.678-7.9146-17.678-17.678 0-9.7631 7.9146-17.678 17.678-17.678 9.7631 0 17.678 7.9146 17.678 17.678z" transform="matrix(.9 0 0 .9 42.78 50.284)"/>
      </g>
      <g id="g6263" transform="matrix(.047213 0 0 .047213 105.18 -36.604)">
        <path id="path6265" d="m344.46 348.79c0 9.7631-7.9146 17.678-17.678 17.678-9.7631 0-17.678-7.9146-17.678-17.678 0-9.7631 7.9146-17.678 17.678-17.678 9.7631 0 17.678 7.9146 17.678 17.678z" transform="translate(10.102 15.152)" fill-opacity=".94118"/>
        <path id="path6267" d="m344.46 348.79c0 9.7631-7.9146 17.678-17.678 17.678-9.7631 0-17.678-7.9146-17.678-17.678 0-9.7631 7.9146-17.678 17.678-17.678 9.7631 0 17.678 7.9146 17.678 17.678z" transform="matrix(.9 0 0 .9 42.78 50.284)"/>
      </g>
      <g id="g6269" transform="matrix(.047213 0 0 .047213 101.82 -36.604)">
        <path id="path6271" d="m344.46 348.79c0 9.7631-7.9146 17.678-17.678 17.678-9.7631 0-17.678-7.9146-17.678-17.678 0-9.7631 7.9146-17.678 17.678-17.678 9.7631 0 17.678 7.9146 17.678 17.678z" transform="translate(10.102 15.152)" fill-opacity=".94118"/>
        <path id="path6273" d="m344.46 348.79c0 9.7631-7.9146 17.678-17.678 17.678-9.7631 0-17.678-7.9146-17.678-17.678 0-9.7631 7.9146-17.678 17.678-17.678 9.7631 0 17.678 7.9146 17.678 17.678z" transform="matrix(.9 0 0 .9 42.78 50.284)"/>
      </g>
    </g>
    <g id="g6281" transform="matrix(.13890 0 0 .13890 65.62 41.386)">
      <path id="path6283" d="m568.57 398.79c0 104.54-84.746 189.29-189.29 189.29s-189.29-84.746-189.29-189.29 84.746-189.29 189.29-189.29 189.29 84.746 189.29 189.29z" fill="url(#radialGradient6237)" transform="matrix(.047213 0 0 .047213 101.51 -40.276)"/>
      <path id="path6285" d="m568.57 398.79c0 104.54-84.746 189.29-189.29 189.29s-189.29-84.746-189.29-189.29 84.746-189.29 189.29-189.29 189.29 84.746 189.29 189.29z" fill="url(#radialGradient6239)" transform="matrix(-.043293 0 0 .043293 135.9 -38.646)"/>
      <path id="path6287" filter="url(#filter7160)" d="m568.57 398.79c0 104.54-84.746 189.29-189.29 189.29s-189.29-84.746-189.29-189.29 84.746-189.29 189.29-189.29 189.29 84.746 189.29 189.29z" fill="url(#radialGradient6241)" transform="matrix(.039136 0 0 .039136 105 -37.155)"/>
      <g id="g6289" transform="matrix(.047213 0 0 .047213 101.79 -40.276)">
        <path id="path6291" d="m344.46 348.79c0 9.7631-7.9146 17.678-17.678 17.678-9.7631 0-17.678-7.9146-17.678-17.678 0-9.7631 7.9146-17.678 17.678-17.678 9.7631 0 17.678 7.9146 17.678 17.678z" transform="translate(10.102 15.152)" fill-opacity=".94118"/>
        <path id="path6293" d="m344.46 348.79c0 9.7631-7.9146 17.678-17.678 17.678-9.7631 0-17.678-7.9146-17.678-17.678 0-9.7631 7.9146-17.678 17.678-17.678 9.7631 0 17.678 7.9146 17.678 17.678z" transform="matrix(.9 0 0 .9 42.78 50.284)"/>
      </g>
      <g id="g6295" transform="matrix(.047213 0 0 .047213 105.18 -40.276)">
        <path id="path6297" d="m344.46 348.79c0 9.7631-7.9146 17.678-17.678 17.678-9.7631 0-17.678-7.9146-17.678-17.678 0-9.7631 7.9146-17.678 17.678-17.678 9.7631 0 17.678 7.9146 17.678 17.678z" transform="translate(10.102 15.152)" fill-opacity=".94118"/>
        <path id="path6299" d="m344.46 348.79c0 9.7631-7.9146 17.678-17.678 17.678-9.7631 0-17.678-7.9146-17.678-17.678 0-9.7631 7.9146-17.678 17.678-17.678 9.7631 0 17.678 7.9146 17.678 17.678z" transform="matrix(.9 0 0 .9 42.78 50.284)"/>
      </g>
      <g id="g6301" transform="matrix(.047213 0 0 .047213 105.18 -36.604)">
        <path id="path6303" d="m344.46 348.79c0 9.7631-7.9146 17.678-17.678 17.678-9.7631 0-17.678-7.9146-17.678-17.678 0-9.7631 7.9146-17.678 17.678-17.678 9.7631 0 17.678 7.9146 17.678 17.678z" transform="translate(10.102 15.152)" fill-opacity=".94118"/>
        <path id="path6305" d="m344.46 348.79c0 9.7631-7.9146 17.678-17.678 17.678-9.7631 0-17.678-7.9146-17.678-17.678 0-9.7631 7.9146-17.678 17.678-17.678 9.7631 0 17.678 7.9146 17.678 17.678z" transform="matrix(.9 0 0 .9 42.78 50.284)"/>
      </g>
      <g id="g6307" transform="matrix(.047213 0 0 .047213 101.82 -36.604)">
        <path id="path6309" d="m344.46 348.79c0 9.7631-7.9146 17.678-17.678 17.678-9.7631 0-17.678-7.9146-17.678-17.678 0-9.7631 7.9146-17.678 17.678-17.678 9.7631 0 17.678 7.9146 17.678 17.678z" transform="translate(10.102 15.152)" fill-opacity=".94118"/>
        <path id="path6311" d="m344.46 348.79c0 9.7631-7.9146 17.678-17.678 17.678-9.7631 0-17.678-7.9146-17.678-17.678 0-9.7631 7.9146-17.678 17.678-17.678 9.7631 0 17.678 7.9146 17.678 17.678z" transform="matrix(.9 0 0 .9 42.78 50.284)"/>
      </g>
    </g>
  </g>
  <g id="layer2" transform="translate(2.1015 2.3053)">
    <path id="path21805" opacity=".64198" d="m89.954 55.265s3.5877 12.867 3.2368 19.421c-0.18397 3.4356-2.0401 8.3748-2.4546 11.79-0.91034 7.501 0.37381 20.809 0.37381 20.809s-3.75-13.652-3.2368-20.577c0.3045-4.108 1.6555-9.5381 2.1114-13.632 0.72754-6.5324-0.03065-17.811-0.03065-17.811z" fill-opacity=".20548" transform="matrix(.98537 .17045 -.17045 .98537 -34.669 -46.712)" filter="url(#filter4619-4)"/>
    <path id="path21890" opacity=".35391" filter="url(#filter22155-9)" d="m61.826 49.19c4.4072 11.45 9.7518 22.483 7.1001 33.329-3.078 12.59 0.29211 25.59 0.40428 38.379-2.464-12.443-8.4376-24.85-6.6932-37.545 1.3084-9.5218-1.9162-22.353-0.81117-34.164z" fill-opacity=".36073"/>
    <path id="path21896" opacity=".49794" d="m103.67 74.764c4.5819 11.904 7.7278 24.366 4.2284 32.262-5.0677 11.434 3.1675 27.083 3.2759 39.447-2.8042-14.161-18.533-30.125-12.346-43.41 3.5226-7.5636 3.9118-18.364 4.8412-28.298z" fill-opacity=".13699" transform="matrix(.99361 .11286 -.11286 .99361 6.4156 -53.502)" filter="url(#filter22189-8)"/>
    <path id="path21898" opacity=".41152" filter="url(#filter21900-3)" d="m38.06 71.32c3.2163 1.1168 12.099-46.339 11.673-46.694 1.6246 27.975 5.8486 61.988-12.924 70.875 0.47622-7.9106 3.3619-9.741 1.2507-24.181z" fill-opacity=".24201"/>
    <path id="path21904" opacity=".37037" d="m65.004 71.382c-1.154-4.3201-3.3525 13.989-9.5975 24.005 0 0 1.5591-22.101 3.6431-25.264 6.69-10.153 13.248-20.42 13.041-20.593 0.61 10.508-4.082 20.834-2.677 31.821 2.164 16.921-1.965 17.836-13.687 23.389 0.476-7.915 10.241 0.19 9.277-33.358z" fill-opacity=".22831" transform="matrix(-1 0 0 1 177.96 -10.233)" filter="url(#filter4567-9)"/>
    <path id="path21906" opacity=".42798" d="m39.398 76.595c7.6131-5.8262 14.551-12.816 18.344-25.223-0.21868 8.0673 2.097 17.517-3.7522 22.513z" transform="matrix(1.0874 0 0 1.0874 -21.189 -28.375)" filter="url(#filter4173-0)" fill="url(#linearGradient4505-2)"/>
    <path id="path21956" opacity=".39918" d="m160.09 72.842 1.2507-12.09 8.9636 9.172-16.051-27.099c2.9359 15.179-0.9187 15.756 5.8367 30.018z" fill-opacity=".12329" transform="matrix(.87735 -.47985 .47985 .87735 -32.094 67.722)" filter="url(#filter22006-9)"/>
    <path id="path21962" opacity=".30453" d="m81.506 138.92c5.0029 6.4621 5.5863 13.12 11.048 8.7551 5.9636-4.7656 0.56866-18.339 0.83382-27.516 1.518 11.951 10.414 22.338 2.7539 31.565-6.6496 8.0093-10.598-5.0836-14.636-12.804z" fill-opacity=".22831" transform="matrix(.55077 .44552 -.44552 .55077 120.89 -14.178)" filter="url(#filter22014-2)"/>
    <path id="path21968" opacity=".37449" d="m87.174 141.15s-3.6427 5.4542-4.586 8.5466c-1.2225 4.0076-0.14459 8.4661-1.2507 12.507-1.1326 4.1379-5.4198 11.673-5.4198 11.673l12.09-1.4592c-0.10539-4.3343-1.6273-8.7097-1.5497-12.922 0.10876-5.9009 3.6277-11.891 0.71588-18.346z" fill-opacity=".17808" transform="matrix(-1 0 0 1 125.77 -33.322)" filter="url(#filter4535-8)"/>
    <path id="path21974" opacity=".37449" d="m69.395 92.17-0.975-17.363 14.548 16.17-19.319-37.267c-1.4166 12.484-1.0102 24.199 5.7452 38.46z" fill-opacity=".27397" transform="matrix(.30443 .95254 -.95254 .30443 70.357 -59.506)" filter="url(#filter22228-0)"/>
    <path id="path21988" opacity=".5014" d="m77.337 151.85s5.1665 10.049 10.654 9.6218c7.9567-0.61945 9.4354-21.73 8.337-29.635-0.79682-5.7344 10.462-18.662 10.462-18.662s-6.7298 17.297-5.9551 23.457c0.94151 7.4855-4.9079 31.365-12.45 31.166-6.099-0.17-11.048-15.95-11.048-15.95z" fill-opacity=".22831" transform="matrix(-.94217 0 0 .84552 150.32 -15.416)" filter="url(#filter4527-0)"/>
    <path id="path22018" opacity=".41152" d="m93.596 86.137s7.0244 27.949 7.8912 34.802c0.6527 5.1603 0.4231 13.707-0.7251 16.52-2.8181 6.9033-0.86646 26.7-0.86646 26.7s-4.2493-18.899-2.7883-29.068c0.56924-3.9621 2.3503-10.338 1.7449-14.741-0.9013-6.5552-5.2563-34.213-5.2563-34.213z" fill-opacity=".21005" transform="matrix(-1.5411 .24238 .38502 .97018 182.11 -80.79)" filter="url(#filter4195-2)"/>
    <path id="path22020" opacity=".56379" d="m145.54 123.13c-7.8161 19.045-15.253 51.149-32.932 63.334l6.9948 4.7082c19.75-20.503 20.734-48.941 25.938-68.042z" fill-opacity=".14155" transform="matrix(.81517 -.57922 .57922 .81517 -115.48 57.232)" filter="url(#filter22163-6)"/>
    <path id="path22034" opacity=".40741" filter="url(#filter4203-8)" d="m53.802 76.532c0.206-14.412 3.49-40.959 12.647-52.74l4.1691 2.9184c-7.6229 11.096-13.773 36.69-16.816 49.821z" fill-opacity=".15982"/>
    <path id="path4177" opacity=".27572" d="m39.398 76.595c7.6131-5.8262 14.551-12.816 18.344-25.223-0.21868 8.0673 2.097 17.517-3.7522 22.513z" transform="matrix(-1.0874 0 0 1.0874 183.63 -28.154)" filter="url(#filter4173-0)" fill="url(#linearGradient4505-2)"/>
    <path id="path4539" opacity=".34568" d="m93.596 86.137s9.6257 28.884 10.492 35.737c0.6527 5.1603-0.32089 12.309-1.4691 15.122-2.8181 6.9033-2.7238 27.164-2.7238 27.164s-4.2493-18.899-2.7883-29.068c0.56924-3.9621 2.3503-10.338 1.7449-14.741-0.9013-6.5552-5.2563-34.213-5.2563-34.213z" fill-opacity=".22374" transform="matrix(.96844 .12055 -.24195 .48251 21.603 -23.642)" filter="url(#filter4541-0)"/>
    <path id="path4545" opacity=".28395" d="m93.596 86.137s7.0244 27.949 7.8912 34.802c0.6527 5.1603 0.4231 13.707-0.7251 16.52-2.8181 6.9033-0.86646 26.7-0.86646 26.7s-4.2493-18.899-2.7883-29.068c0.56924-3.9621 2.3503-10.338 1.7449-14.741-0.9013-6.5552-5.2563-34.213-5.2563-34.213z" fill-opacity=".30594" transform="matrix(-1.1875 .16551 .29666 .66250 194.91 -55.854)" filter="url(#filter4195-2)"/>
    <path id="path4547" opacity=".76132" d="m163.97 86.529c-0.90701-8.5338-3.5973-13.911-2.6221-25.776l12.14 16.929-17.536-32.197c-0.84628 15.278 1.2625 26.783 8.0179 41.044z" fill-opacity=".12329" transform="matrix(.68835 .72538 -.72538 .68835 47.783 -42.04)" filter="url(#filter22006-9)"/>
    <path id="path4549" opacity=".37449" filter="url(#filter4535-8)" d="m123.99 108.59s-3.6427 5.4542-4.586 8.5466c-1.2225 4.0076-0.14459 8.4661-1.2507 12.507-1.1326 4.1379-5.4198 11.673-5.4198 11.673l12.09-1.4592c-0.10539-4.3343-1.6273-8.7097-1.5497-12.922 0.10876-5.9009 3.6277-11.891 0.71588-18.346z" fill-opacity=".12785"/>
    <path id="path4571" opacity=".56379" d="m138.47 139.1c-7.8161 19.045-8.1825 35.176-25.862 47.361l8.1861 1.4588c19.75-20.503 12.473-29.719 17.676-48.819z" fill-opacity=".14155" transform="matrix(-.97116 -.23844 -.23844 .97116 217.23 -11.435)" filter="url(#filter22163-6)"/>
    <path id="path4573" opacity=".5014" d="m77.337 151.85s5.1665 10.049 10.654 9.6218c7.9567-0.61945 9.841-13.593 8.7426-21.498-0.79682-5.7344 2.755-11.882 2.755-11.882s0.97755 8.257 1.7522 14.416c0.94151 7.4855-5.3135 25.488-12.855 25.29-6.1-0.17-11.049-15.95-11.049-15.95z" fill-opacity=".22831" transform="matrix(.94217 0 0 .84552 -12.835 -.51077)" filter="url(#filter4527-0)"/>
    <path id="path4575" opacity=".42798" filter="url(#filter4603-4)" d="m13.657 53.677c14.931-6.709 25.735-15.481 24.21-30.418-2.444 11.077-11.873 20.99-24.21 30.418z" fill-opacity=".17352"/>
    <path id="path4593" opacity=".37449" d="m69.395 92.17-0.975-17.363 14.548 16.17-19.319-37.267c-1.4166 12.484-1.0102 24.199 5.7452 38.46z" fill-opacity=".27397" transform="matrix(-.30443 .95254 .95254 .30443 91.712 -60.747)" filter="url(#filter22228-0)"/>
  </g>
  <metadata>
    <rdf:RDF>
      <cc:Work>
        <dc:format>image/svg+xml</dc:format>
        <dc:type rdf:resource="http://purl.org/dc/dcmitype/StillImage"/>
        <cc:license rdf:resource="http://creativecommons.org/licenses/publicdomain/"/>
        <dc:publisher>
          <cc:Agent rdf:about="http://openclipart.org/">
            <dc:title>Openclipart</dc:title>
          </cc:Agent>
        </dc:publisher>
        <dc:title>Red Polo Shirt</dc:title>
        <dc:date>2013-04-24T17:43:03</dc:date>
        <dc:description>A Red Polo Shirt.  Added gradients, wrinkles, a pocket and a wavy openclipart logo to the shirt's pocket. Drawn with Inkscape. NOTE: USE INKSCAPE TO GENERATE A CORRECT PNG VERSION OF THIS IMAGE.</dc:description>
        <dc:source>http://openclipart.org/detail/177426/red-polo-shirt-by-merlin2525-177426</dc:source>
        <dc:creator>
          <cc:Agent>
            <dc:title>Merlin2525</dc:title>
          </cc:Agent>
        </dc:creator>
        <dc:subject>
          <rdf:Bag>
            <rdf:li>apparel</rdf:li>
            <rdf:li>art</rdf:li>
            <rdf:li>attire</rdf:li>
            <rdf:li>boton</rdf:li>
            <rdf:li>bot&#xC3;&#xB3;n</rdf:li>
            <rdf:li>bouton</rdf:li>
            <rdf:li>button</rdf:li>
            <rdf:li>camisa</rdf:li>
            <rdf:li>camiseta</rdf:li>
            <rdf:li>camiza</rdf:li>
            <rdf:li>camizeta</rdf:li>
            <rdf:li>casual</rdf:li>
            <rdf:li>chemise</rdf:li>
            <rdf:li>clip</rdf:li>
            <rdf:li>clipart</rdf:li>
            <rdf:li>clothe</rdf:li>
            <rdf:li>clothing</rdf:li>
            <rdf:li>golf</rdf:li>
            <rdf:li>logo</rdf:li>
            <rdf:li>open</rdf:li>
            <rdf:li>openclipart</rdf:li>
            <rdf:li>org</rdf:li>
            <rdf:li>polera</rdf:li>
            <rdf:li>polo</rdf:li>
            <rdf:li>ropa</rdf:li>
            <rdf:li>shirt</rdf:li>
            <rdf:li>t</rdf:li>
            <rdf:li>t-shirt</rdf:li>
            <rdf:li>traje</rdf:li>
            <rdf:li>tshirt</rdf:li>
            <rdf:li>vestir</rdf:li>
            <rdf:li>vetements</rdf:li>
            <rdf:li>vetir</rdf:li>
            <rdf:li>v&#xC3;&#xAA;tements</rdf:li>
            <rdf:li>v&#xC3;&#xAA;tir</rdf:li>
          </rdf:Bag>
        </dc:subject>
      </cc:Work>
      <cc:License rdf:about="http://creativecommons.org/licenses/publicdomain/">
        <cc:permits rdf:resource="http://creativecommons.org/ns#Reproduction"/>
        <cc:permits rdf:resource="http://creativecommons.org/ns#Distribution"/>
        <cc:permits rdf:resource="http://creativecommons.org/ns#DerivativeWorks"/>
      </cc:License>
    </rdf:RDF>
  </metadata>
</svg>
