<?xml version="1.0" encoding="utf-8"?>
<!DOCTYPE svg PUBLIC "-//W3C//DTD SVG 1.1//EN" "http://www.w3.org/Graphics/SVG/1.1/DTD/svg11.dtd">
<svg version="1.1" id="Layer_2" xmlns="http://www.w3.org/2000/svg" xmlns:xlink="http://www.w3.org/1999/xlink" x="0px" y="0px"
	 viewBox="0 0 1949.9998 1769.2185" enable-background="new 0 0 1949.9998 1769.2185" xml:space="preserve">
<g id="XMLID_1_">
	<path fill="#BA9499" d="M1844.4799,1520.9364c1.5601,4.13,2.61,8.4301,3.14,12.8c0.01,0.03,0.01,0.0599,0.01,0.09
		c-11.65,5.62-24.03,10.4301-36.84,14.71c-43.25,12.24-117.41,28.4301-182.8,40.25l-74.76,11.9701h-0.01
		c-29.05,3.8199-49.88,5.09-55.1799,2.2899c-5.42-2.86-8-17.1899-7.5-22c0,0,8.7999-104.86,16.5-139
		c6.1699-27.33,33.9299-75.0299,63.5-98c30.6799-17.2,61-11.47,91,15l45,48.3501c0,0.0099,0.0099,0.0199,0.0199,0.0299
		c10.0901,20.9301,18.1901,54.49,44.9801,64.4701l67.2999,28.8999h0.01l11.45,4.92c0.26,0.11,0.51,0.23,0.76,0.35
		c4.99,3.16,9.9801,7.78,13.1801,14.24c0,0.01,0.01,0.03,0.02,0.05L1844.4799,1520.9364z"/>
	<path fill="#B98E86" d="M1421.3699,1141.0464c8.97,3.92,21.1,12.6001,33.92,23.03l-0.25,0.3l-12,7.34
		c-49.41,27.89-137.1901,49.34-241.67,68c-78.9301,9.86-161.02,2.45-245.33-17c-103.41-31.49-193.09-86.4401-274-156.34
		c-124.52-119.7401-175.97-188.89-193.67-234.66c-53.76-101.69-85.91-202.41-96.83-302.17l152.5,91l138,116.17
		c70.38,74.68,129.23,145.93,164,210c54.94,76.47,98.79,150.54,129,221.66c89.97-21.38,179.97-36.8501,270.0001-45.66
		C1292.2399,1114.9464,1348.2799,1109.0564,1421.3699,1141.0464z"/>
	<path fill="#E1CEC9" d="M688.7599,611.3064c1.53,35.53-0.32,74.94-5.82,118.56c-0.01,0.03-0.01,0.07-0.02,0.1l-0.88,6.75
		l-138-116.17l-152.5-91c-19.08-88.7-43.96-178.41-74-269c0,0-50.17-113.17-50.5-119c-0.33-5.83,19-24.83,29-29
		c9.58-4,26.98-0.33,28.42-0.02c0.01,0,0.02,0,0.03,0c0.02,0.01,0.04,0.01,0.06,0.02c0.02,0.01,0.03,0.02,0.05,0.02
		c33.62,15.32,67.13,35.59,100.51,61.58c15.33,12.67,31.1,26.91,47.26,42.57c40.5,39.83,77.07,81.35,108.75,124.98
		c0.12,0.17,0.24,0.34,0.37,0.51c5.49,7.67,10.99,15.53,16.48,23.6c19.5,29,36.84,58.93,51.74,89.91c3.07,5.5,5.97,11.19,8.7,17.08
		C674.8298,515.2664,685.3998,561.9764,688.7599,611.3064z"/>
	<path fill="#8E3C2D" d="M409.7498,937.2164l-84.71-40.17c51.29,1.6,101.61,13.71,149.33,53.67
		c69.77,71.39,131.64,156.27,179.34,265.33c54.3,130.01,103.42,251.8401,133.33,343.3301c35.94,18.5299,76.1,34.27,121.33,46.6699
		c54.36,17.38,147.42,27.8101,275.34,32c129-9.52,308.3301-15,325.3301-17.33c0.6499-7.14,4.8999-12.64,15.33-15.34l28.85-4.62h0.01
		c21.4301-2.8101,47.3199-7,74.76-11.9701l50.38-8.0699c24.63-5.02,53.98-10.65,80.04-17.27c17.7799-4.52,35.46-9.26,52.38-14.91
		c22.4299-6.35,36.5499-11.6399,36.84-14.71c0-0.03,0-0.0599-0.01-0.09c0.28,2.23,0.42,4.48,0.42,6.74v26.64
		c0,5.28-3.51,9.9199-8.5901,11.37c-48.86,26.3199-110.76,41.01-178.4099,50.5599c-82.9,15.3101-200.9601,25.7001-326.67,35.02
		c-102.8201,0.8301-196.4501,0.75-256.33-2.6899c-152.1301-7.29-249.6401-42.9701-308.67-98.66l-142.14-348.4301
		c-0.79-1.9299-1.82-3.75-3.07-5.4299c-63.24-122.4-128.12-216.66-195.79-262.81l-12.29-5.83
		C413.9899,939.2264,411.8699,938.2264,409.7498,937.2164z"/>
	<path fill="#A34A27" d="M429.0399,1444.0464c-18.28,11.8-37.67,21.04-58.5,27c-21.66-3-39.49-8.46-52.5-17v-35.5l55.5,13l55.5-20
		V1444.0464z"/>
	<path fill="#B6765E" d="M325.0399,897.0464l84.71,40.17l6.33,3l12.29,5.83l0.67,465.4999l-55.5,20l-16.5-372.5
		c-13.07-73.3099-26.07-118.83-39-136.9999C311.1999,913.4064,310.5799,904.9664,325.0399,897.0464z"/>
	<path fill="#F0E7E8" d="M296.0399,112.5464c-10,4.17-29.33,23.17-29,29c0.33,5.83,50.5,119,50.5,119
		c30.04,90.59,54.92,180.3,74,269c10.92,99.7599,43.07,200.48,96.83,302.17c17.7,45.77,69.15,114.92,193.67,234.66
		c80.91,69.8999,170.59,124.85,274,156.34c84.31,19.45,166.4,26.86,245.33,17c104.48-18.66,192.26-40.11,241.67-68l12-7.34l0.25-0.3
		c32.4099,26.39,69.1399,63.99,69.7899,64.26c3.87,1.59,131.2101,97.67,162.63,140.04l18.8301,39.02l-45-48.3501
		c-30-26.47-60.3201-32.2-91-15c-29.5701,22.9701-57.3301,70.67-63.5,98c-7.7001,34.14-16.5,139-16.5,139
		c-0.5,4.8101,2.08,19.14,7.5,22c5.2999,2.8,26.1299,1.53,55.1799-2.2899l-28.85,4.62c-10.4301,2.7-14.6801,8.2-15.33,15.34
		c-17,2.33-196.3301,7.8099-325.3301,17.33c-127.9199-4.1899-220.98-14.62-275.34-32c-45.23-12.3999-85.39-28.14-121.33-46.6699
		c-29.91-91.49-79.03-213.3201-133.33-343.3301c-47.7-109.0599-109.57-193.9399-179.34-265.33
		c-47.72-39.96-98.04-52.07-149.33-53.67c-14.46,7.92-13.84,16.36-7,25c12.93,18.17,25.93,63.69,39,136.9999l16.5,372.5l-55.5-13
		v-223.1699c-6.51-92.1001-27.76-186.95-59-283.66c-17.18-53.43-48.16-108.28-87.67-164c0,0-59.21-64.92-64-92.67
		c-12.87-74.67,0.95-151.5,3.34-220.33c27.43-144.7,86.03-252.69,170.66-330c13.63-0.07,28.01,2.6,43.09,7.81
		C323.0199,112.2164,305.6199,108.5464,296.0399,112.5464z"/>
</g>
</svg>
