<?xml version="1.0" encoding="iso-8859-1"?>
<!-- Generator: Adobe Illustrator 19.0.0, SVG Export Plug-In . SVG Version: 6.00 Build 0)  -->
<svg version="1.1" id="Layer_1" xmlns="http://www.w3.org/2000/svg" xmlns:xlink="http://www.w3.org/1999/xlink" x="0px" y="0px"
	 viewBox="0 0 512.001 512.001" style="enable-background:new 0 0 512.001 512.001;" xml:space="preserve">
<path style="fill:#333E48;" d="M497.349,303.402c0-30.802-24.97-55.772-55.771-55.772c-32.01,0-156.711-32.213-185.835-70.507
	c-18.313-24.078-60.603,11.099-96.022,11.099s-69.602-20.934-120.878-20.934c-34.674,0-28.486,68.057-28.486,136.114h486.991
	V303.402z"/>
<g>
	<path style="fill:#FF9E16;" d="M497.349,303.402h-482.7C6.592,303.402,0,309.993,0,318.051v12.012
		c0,8.057,6.592,14.649,14.649,14.649h130.725c8.057,0,14.649-6.592,14.649-14.649v-3.052h41.531
		c27.672,0,62.873,11.191,139.175,11.191l156.621-2.442c8.058,0,14.651-6.592,14.651-14.648v-3.06
		C512,309.993,505.408,303.402,497.349,303.402z"/>
	<circle style="fill:#FF9E16;" cx="238.721" cy="205.474" r="13.82"/>
	<circle style="fill:#FF9E16;" cx="279.899" cy="232.017" r="13.82"/>
</g>
<path style="opacity:0.2;enable-background:new    ;" d="M144.189,257.219c-2.5-1.857-5.23-3.643-8.113-5.311
	c-3.929-2.273-8.953-0.928-11.225,3.002c-2.271,3.928-0.927,8.954,3.002,11.224c2.342,1.353,4.542,2.792,6.539,4.274
	c1.472,1.093,3.19,1.62,4.892,1.62c2.511,0,4.99-1.147,6.602-3.317C148.59,265.07,147.831,259.923,144.189,257.219z
	 M103.527,239.098c-2.853-0.75-5.845-1.464-8.895-2.12c-4.433-0.949-8.806,1.866-9.762,6.301c-0.956,4.437,1.866,8.806,6.301,9.763
	c2.81,0.606,5.562,1.261,8.176,1.949c0.701,0.184,1.403,0.272,2.095,0.272c3.642,0,6.97-2.442,7.941-6.129
	C110.538,244.745,107.915,240.251,103.527,239.098z M61.115,232.01c-2.903-0.267-5.914-0.507-8.951-0.712
	c-4.542-0.314-8.446,3.114-8.753,7.642c-0.307,4.526,3.114,8.446,7.642,8.752c2.905,0.197,5.783,0.427,8.554,0.682
	c0.256,0.023,0.512,0.035,0.764,0.035c4.198,0,7.779-3.201,8.172-7.463C68.959,236.427,65.633,232.428,61.115,232.01z
	 M18.597,230.265c-1.96,0-3.743,0.008-5.325,0.013c-1.123,0.004-2.127,0.009-3.038,0.009c-0.181,5.284-0.266,10.781-0.294,16.433
	c0.997,0,2.132-0.004,3.395-0.01c1.563-0.007,3.325-0.013,5.359-0.013c4.537,0,8.167-3.677,8.167-8.216
	C26.862,233.944,23.135,230.265,18.597,230.265z M346.601,241.843c-4.238-1.622-8.987,0.504-10.607,4.742l-3.128,8.187
	c-1.619,4.239,0.504,8.988,4.743,10.607c0.964,0.369,1.955,0.543,2.93,0.543c3.308,0,6.426-2.012,7.677-5.286l3.128-8.187
	C352.963,248.211,350.839,243.462,346.601,241.843z M166.099,287.591c-1.244-4.362-5.791-6.891-10.154-5.648
	c-4.363,1.246-6.891,5.791-5.648,10.155c0.643,2.252,1.085,4.634,1.316,7.079c0.15,1.596,0.748,3.041,1.656,4.225h13.034
	c1.219-1.587,1.871-3.618,1.668-5.769C167.647,294.189,167.016,290.81,166.099,287.591z M313.459,253.936l-0.879-0.003h-0.037
	c-2.866,0-5.765,0.128-8.621,0.381c-4.52,0.4-7.86,4.388-7.46,8.908c0.378,4.273,3.964,7.492,8.174,7.492
	c0.243,0,0.487-0.011,0.734-0.032c2.376-0.209,4.789-0.317,7.175-0.317h0.031l0.754,0.003h0.065c4.508,0,8.179-3.636,8.215-8.151
	C321.646,257.679,317.997,253.971,313.459,253.936z M269.62,263.672c-2.832,1.328-5.655,2.804-8.391,4.386
	c-3.928,2.271-5.271,7.297-2.999,11.225c1.523,2.632,4.282,4.104,7.12,4.104c1.396,0,2.81-0.356,4.105-1.105
	c2.331-1.347,4.735-2.604,7.142-3.733c4.108-1.927,5.877-6.819,3.949-10.927C278.621,263.513,273.726,261.744,269.62,263.672z
	 M245.286,289.62c-3.5-2.888-8.678-2.391-11.566,1.109c-5.615,6.804-6.335,10.347-6.335,12.673h17.305
	c0.431-0.609,0.986-1.346,1.703-2.216C249.282,297.687,248.786,292.509,245.286,289.62z"/>
<g>
</g>
<g>
</g>
<g>
</g>
<g>
</g>
<g>
</g>
<g>
</g>
<g>
</g>
<g>
</g>
<g>
</g>
<g>
</g>
<g>
</g>
<g>
</g>
<g>
</g>
<g>
</g>
<g>
</g>
</svg>
