<?xml version="1.0" encoding="UTF-8" standalone="no"?>
<!-- Generator: Adobe Illustrator 15.1.0, SVG Export Plug-In . SVG Version: 6.00 Build 0)  -->

<svg
     xmlns:dc="http://purl.org/dc/elements/1.1/"
     xmlns:cc="http://creativecommons.org/ns#"
     xmlns:rdf="http://www.w3.org/1999/02/22-rdf-syntax-ns#"
     xmlns:svg="http://www.w3.org/2000/svg"
     xmlns="http://www.w3.org/2000/svg"
     xmlns:xlink="http://www.w3.org/1999/xlink"
     xmlns:sodipodi="http://sodipodi.sourceforge.net/DTD/sodipodi-0.dtd"
     xmlns:inkscape="http://www.inkscape.org/namespaces/inkscape"
     version="1.1"
     x="0px"
     y="0px"
     width="61.7px"
     height="58.8px"
     viewBox="0 0 61.7 58.8"
     style="enable-background:new 0 0 61.7 58.8;"
     xml:space="preserve"
     id="svg2"
     inkscape:version="0.48.5 r10040"
     sodipodi:docname="furniture_sidetable_wood_side_table.svg"><metadata
         id="metadata186"><rdf:RDF><cc:Work
                 rdf:about=""><dc:format>image/svg+xml</dc:format><dc:type
                     rdf:resource="http://purl.org/dc/dcmitype/StillImage" /><dc:title></dc:title></cc:Work></rdf:RDF></metadata><defs
         id="defs184"><radialGradient
             id="SVGID_1_"
             cx="128.5"
             cy="372.5"
             r="30.200001"
             gradientTransform="matrix(1,0,0,-0.2782,-98.25,177)"
             gradientUnits="userSpaceOnUse"><stop
                 offset="0"
                 style="stop-color:#000000;stop-opacity:0.2"
                 id="stop10" /><stop
                 offset="1"
                 style="stop-color:#000000;stop-opacity:0"
                 id="stop12" /></radialGradient><radialGradient
             inkscape:collect="always"
             xlink:href="#SVGID_1_"
             id="radialGradient3254"
             gradientUnits="userSpaceOnUse"
             gradientTransform="matrix(1,0,0,-0.2782,-98.25,157)"
             cx="128.5"
             cy="372.5"
             r="30.200001" /><radialGradient
             inkscape:collect="always"
             xlink:href="#SVGID_2_"
             id="radialGradient3256"
             gradientUnits="userSpaceOnUse"
             gradientTransform="matrix(1,0,0,-0.2782,-98.25,174.3)"
             cx="128.60001"
             cy="370.39999"
             r="30.200001" /><linearGradient
             inkscape:collect="always"
             xlink:href="#SVGID_3_"
             id="linearGradient3258"
             gradientUnits="userSpaceOnUse"
             gradientTransform="matrix(-0.0076,-0.9671,0.9999,-0.0073,-98.25,-286.8)"
             x1="-372.39999"
             y1="127.1"
             x2="-342.70001"
             y2="127.1" /><radialGradient
             gradientUnits="userSpaceOnUse"
             gradientTransform="matrix(1,0,0,-0.2782,-98.25,174.3)"
             r="30.200001"
             cy="370.39999"
             cx="128.60001"
             id="SVGID_2_"><stop
                 id="stop19"
                 style="stop-color:#000000;stop-opacity:0.2"
                 offset="0" /><stop
                 id="stop21"
                 style="stop-color:#000000;stop-opacity:0"
                 offset="1" /></radialGradient><radialGradient
             inkscape:collect="always"
             xlink:href="#SVGID_2_"
             id="radialGradient3342"
             gradientUnits="userSpaceOnUse"
             gradientTransform="matrix(1,0,0,-0.2782,-98.25,134.3)"
             cx="128.60001"
             cy="370.39999"
             r="30.200001" /><linearGradient
             inkscape:collect="always"
             xlink:href="#SVGID_3_"
             id="linearGradient3344"
             gradientUnits="userSpaceOnUse"
             gradientTransform="matrix(-0.0076,-0.9671,0.9999,-0.0073,-98.25,-286.8)"
             x1="-372.39999"
             y1="127.1"
             x2="-342.70001"
             y2="127.1" /><linearGradient
             id="SVGID_3_"
             gradientUnits="userSpaceOnUse"
             x1="-372.39999"
             y1="127.1"
             x2="-342.70001"
             y2="127.1"
             gradientTransform="matrix(-0.0076,-0.9671,0.9999,-0.0073,-98.25,-286.8)"><stop
                 offset="0"
                 style="stop-color:#231F20"
                 id="stop156" /><stop
                 offset="0.0902"
                 style="stop-color:#231F20;stop-opacity:0.7961"
                 id="stop158" /><stop
                 offset="1"
                 style="stop-color:#231F20;stop-opacity:0"
                 id="stop160" /></linearGradient><linearGradient
             inkscape:collect="always"
             xlink:href="#SVGID_3_"
             id="linearGradient3359"
             gradientUnits="userSpaceOnUse"
             gradientTransform="matrix(-0.0076,-0.9671,0.9999,-0.0073,-198.25,-306.8)"
             x1="-372.39999"
             y1="127.1"
             x2="-342.70001"
             y2="127.1" /><linearGradient
             inkscape:collect="always"
             xlink:href="#SVGID_3_"
             id="linearGradient3549"
             gradientUnits="userSpaceOnUse"
             gradientTransform="matrix(-0.0076,-0.9671,0.9999,-0.0073,-198.25,-306.8)"
             x1="-372.39999"
             y1="127.1"
             x2="-342.70001"
             y2="127.1" /></defs><sodipodi:namedview
         pagecolor="#ffffff"
         bordercolor="#666666"
         borderopacity="1"
         objecttolerance="10"
         gridtolerance="10"
         guidetolerance="10"
         inkscape:pageopacity="0"
         inkscape:pageshadow="2"
         inkscape:window-width="640"
         inkscape:window-height="480"
         id="namedview182"
         showgrid="false"
         inkscape:zoom="4.0136055"
         inkscape:cx="-1.5367978"
         inkscape:cy="-1.4937691"
         inkscape:current-layer="svg2" /><symbol
         id="price_x5F_tag_x5F_pt_x5F_mc"><g
             id="Layer_1_2_" /></symbol><g
         id="g3551"><path
             inkscape:connector-curvature="0"
             id="path14"
             d="M 8.897,47.45 C 14.8,45.8 21.91,44.98 30.25,44.98 38.58,44.98 45.7,45.8 51.6,47.45 57.5,49.09 60.45,51.07 60.45,53.39 60.45,55.72 57.5,57.7 51.6,59.34 45.7,60.99 38.58,61.81 30.25,61.81 21.91,61.81 14.8,60.99 8.897,59.34 2.997,57.7 0.047,55.72 0.047,53.39 0.047,51.07 2.997,49.09 8.897,47.45 z"
             style="fill:url(#radialGradient3254);fill-rule:evenodd" /><g
             transform="translate(100,0)"
             id="g3476"><path
                 inkscape:connector-curvature="0"
                 id="path29"
                 d="M -89.7,21.05 -88.45,16.36 -86.05,16.07 V 36.96 C -86.05,41.66 -86.3,45.89 -86.8,49.62 -87.04,51.5 -87.29,52.88 -87.55,53.78 L -89.6,56.39 C -89.44,49.82 -89.65,42.57 -90.254,34.63 -90.62,29.67 -90.437,25.14 -89.7,21.05 z"
                 style="fill:#4c3325;fill-rule:evenodd" /><path
                 inkscape:connector-curvature="0"
                 id="path31"
                 d="M -87,25.78 -86.35,23.32 -85.2,34.88 C -85.17,35.17 -85.3,35.54 -85.6,35.99 -85.9,36.44 -86.05,36.76 -86.05,36.96 -86.05,41.66 -86.3,45.88 -86.8,49.62 -87.04,51.49 -87.29,52.88 -87.55,53.78 L -88.15,49.72 C -88.25,49.07 -88.15,46.51 -87.85,42.03 -87.52,37.26 -87.37,34.36 -87.4,33.33 -87.54,30.49 -87.4,27.98 -87,25.78 z"
                 style="fill:#3f2a20;fill-rule:evenodd" /><path
                 inkscape:connector-curvature="0"
                 id="path33"
                 d="M -93.253,16.65 -88.45,16.36 -88.9,24.14 C -89.2,30.11 -89.35,34.96 -89.35,38.7 -89.35,46.43 -89.65,52.33 -90.252,56.39 L -97.752,56.25 C -96.752,51.09 -95.852,44.85 -95.052,37.53 -94.486,32.41 -94.019,27.38 -93.653,22.45 L -93.253,16.65 z"
                 style="fill:#63432e;fill-rule:evenodd" /><path
                 inkscape:connector-curvature="0"
                 id="path35"
                 d="M -91.603,16.55 C -91.97,18.68 -92.22,21.42 -92.353,24.77 -92.42,26.9 -92.437,30.98 -92.404,37 -92.337,41.9 -92.421,45.32 -92.654,47.25 -93.02,50.77 -93.303,53.8 -93.504,56.35 L -95.103,56.3 C -94.57,51.72 -94.253,48.41 -94.154,46.38 -94.12,45.84 -93.987,41.89 -93.754,34.54 -93.554,28.83 -93.337,25.24 -93.104,23.75 -92.804,21.69 -92.688,19.31 -92.754,16.6 L -91.603,16.55 z"
                 style="fill:#543a2d;fill-rule:evenodd" /><path
                 inkscape:connector-curvature="0"
                 id="path37"
                 d="M -90.553,16.5 -88.75,16.36 C -90.22,22.16 -90.819,26.41 -90.553,29.12 -90.32,31.38 -90.237,34.67 -90.303,38.98 -90.369,41.27 -90.453,43.98 -90.553,47.11 V 56.39 H -91.404 L -91.454,48.41 C -91.654,39.9 -91.754,32.89 -91.754,27.38 -91.753,25.16 -91.353,21.53 -90.553,16.5 z"
                 style="fill:#543a2d;fill-rule:evenodd" /><path
                 inkscape:connector-curvature="0"
                 id="path39"
                 d="M -88.75,27.67 C -88.75,29.03 -89,30.77 -89.5,32.89 -89.7,30.19 -89.8,28.16 -89.8,26.8 -89.8,25.96 -89.7,25.01 -89.5,23.95 L -89.2,22.59 -88.95,24.38 C -88.82,25.74 -88.75,26.83 -88.75,27.67 z"
                 style="fill:#543a2d;fill-rule:evenodd" /><path
                 inkscape:connector-curvature="0"
                 id="polygon41"
                 d="M -91.454,56.39 -92.954,56.1 -92.204,52.48 z"
                 style="fill:#543a2d;fill-rule:evenodd" /><path
                 inkscape:connector-curvature="0"
                 id="path43"
                 d="M -95.353,46.53 C -95.053,48.3 -95.253,51.56 -95.954,56.3 L -96.853,56.25 H -96.903 C -96.602,52.93 -96.436,50.16 -96.403,47.93 -96.102,46.13 -95.869,44.4 -95.703,42.76 -95.569,44.56 -95.453,45.82 -95.353,46.53 z"
                 style="fill:#543a2d;fill-rule:evenodd" /><path
                 inkscape:connector-curvature="0"
                 id="path45"
                 d="M -88.45,16.36 -86.5,16.11 -86.65,19.11 H -87.15 C -87.49,19.31 -87.62,19.79 -87.55,20.56 -87.52,20.92 -87.75,24.61 -88.25,31.64 -88.75,38.6 -88.92,42.98 -88.75,44.79 -88.35,48.91 -88.15,51.43 -88.15,52.33 V 54.36 L -89.15,55.86 C -88.85,54.02 -88.77,52.07 -88.9,50.01 L -89.35,37.24 -88.45,16.36 z"
                 style="fill:#3f2a20;fill-rule:evenodd" /><path
                 inkscape:connector-curvature="0"
                 id="polygon47"
                 d="M -88.55,19.11 -93.404,19.26 -93.353,16.4 -88.45,16.36 z"
                 style="fill:#4c3325;fill-rule:evenodd" /><path
                 inkscape:connector-curvature="0"
                 id="polygon49"
                 d="M -88.55,17.76 -93.404,17.85 -93.353,16.4 -88.45,16.36 z"
                 style="fill:#3f2820;fill-rule:evenodd" /><path
                 inkscape:connector-curvature="0"
                 id="path51"
                 d="M -90.853,56.39 -89.2,32.46 -89.3,44.55 C -89.3,45.9 -89.41,49.85 -89.6,56.39 H -90.853 z"
                 style="fill:#754e34;fill-rule:evenodd" /><path
                 inkscape:connector-curvature="0"
                 id="path53"
                 d="M -93.753,29.65 C -94.319,34.33 -94.619,37.12 -94.653,38.02 -94.719,39.47 -94.903,41.6 -95.203,44.4 -95.269,42.6 -95.269,40.79 -95.203,38.99 -95.17,37.86 -94.786,34.84 -94.053,29.94 L -92.953,22.88 -93.753,29.65 z"
                 style="fill:#754e34;fill-rule:evenodd" /><path
                 inkscape:connector-curvature="0"
                 id="path55"
                 d="M -92.454,38.77 V 45.85 C -92.454,47.14 -92.554,49.09 -92.754,51.7 -93.021,54.7 -93.271,56.25 -93.504,56.35 -93.237,51.51 -92.987,48.11 -92.754,46.14 -92.62,44.95 -92.537,43.24 -92.504,41.02 L -92.454,38.77 z"
                 style="fill:#754e34;fill-rule:evenodd" /><path
                 inkscape:connector-curvature="0"
                 id="path59"
                 d="M -48.55,21.05 C -47.69,25.14 -47.47,29.67 -47.91,34.63 -48.6,42.57 -48.85,49.82 -48.66,56.39 L -51.1,53.78 C -51.41,52.88 -51.69,51.5 -51.96,49.62 -52.56,45.89 -52.85,41.66 -52.85,36.96 V 16.07 L -50,16.36 -48.55,21.05 z"
                 style="fill:#4c3325;fill-rule:evenodd" /><path
                 inkscape:connector-curvature="0"
                 id="path61"
                 d="M -51.75,25.78 C -51.29,27.98 -51.12,30.49 -51.25,33.33 -51.32,34.33 -51.15,37.23 -50.75,42.03 -50.39,46.51 -50.27,49.08 -50.4,49.72 L -51.1,53.78 C -51.4,52.88 -51.69,51.49 -51.95,49.62 -52.55,45.88 -52.85,41.66 -52.85,36.96 -52.85,36.76 -53.02,36.44 -53.35,35.99 -53.72,35.51 -53.9,35.13 -53.9,34.88 L -52.5,23.32 -51.75,25.78 z"
                 style="fill:#3f2a20;fill-rule:evenodd" /><path
                 inkscape:connector-curvature="0"
                 id="path63"
                 d="M -44.35,16.65 -43.85,22.45 C -43.42,27.38 -42.87,32.41 -42.2,37.53 -41.27,44.85 -40.22,51.09 -39.05,56.25 L -47.91,56.39 C -48.6,52.33 -48.96,46.43 -48.96,38.7 -48.96,34.96 -49.12,30.11 -49.46,24.14 L -50.01,16.36 -44.35,16.65 z"
                 style="fill:#63432e;fill-rule:evenodd" /><path
                 inkscape:connector-curvature="0"
                 id="path65"
                 d="M -46.3,16.55 -44.95,16.6 C -45.02,19.37 -44.89,21.76 -44.55,23.75 -44.25,25.24 -43.99,28.83 -43.75,34.54 -43.49,42.05 -43.34,46 -43.3,46.39 -43.1,49.09 -42.72,52.4 -42.16,56.3 L -44.05,56.35 C -44.32,53.51 -44.66,50.48 -45.05,47.26 -45.32,45.32 -45.42,41.9 -45.35,37 -45.29,30.98 -45.3,26.9 -45.41,24.77 -45.57,21.39 -45.87,18.65 -46.3,16.55 z"
                 style="fill:#543a2d;fill-rule:evenodd" /><path
                 inkscape:connector-curvature="0"
                 id="path67"
                 d="M -47.55,16.5 C -46.59,21.56 -46.1,25.19 -46.1,27.38 -46.1,32.89 -46.24,39.9 -46.5,48.41 L -46.55,56.39 H -47.55 V 47.11 C -47.66,43.98 -47.74,41.28 -47.8,38.99 -47.94,34.67 -47.85,31.38 -47.55,29.12 -47.22,26.54 -47.92,22.29 -49.66,16.36 L -47.55,16.5 z"
                 style="fill:#543a2d;fill-rule:evenodd" /><path
                 inkscape:connector-curvature="0"
                 id="path69"
                 d="M -49.65,27.67 C -49.65,26.83 -49.57,25.74 -49.4,24.38 L -49.15,22.59 -48.8,23.95 C -48.57,25.01 -48.45,25.96 -48.45,26.8 -48.45,28.16 -48.57,30.19 -48.8,32.89 -49.37,30.77 -49.65,29.02 -49.65,27.67 z"
                 style="fill:#543a2d;fill-rule:evenodd" /><path
                 inkscape:connector-curvature="0"
                 id="polygon71"
                 d="M -45.6,52.48 -44.7,56.1 -46.51,56.39 z"
                 style="fill:#543a2d;fill-rule:evenodd" /><path
                 inkscape:connector-curvature="0"
                 id="path73"
                 d="M -41.2,56.3 C -41.94,51.33 -42.15,48.08 -41.85,46.53 -41.65,45.24 -41.54,43.98 -41.5,42.76 L -40.65,47.93 C -40.62,50.58 -40.4,53.35 -40,56.25 L -41.2,56.3 z"
                 style="fill:#543a2d;fill-rule:evenodd" /><path
                 inkscape:connector-curvature="0"
                 id="path75"
                 d="M -49.65,16.36 -48.95,37.25 -49.5,50.01 C -49.64,52.17 -49.54,54.12 -49.2,55.86 L -50.4,54.36 V 52.33 C -50.4,51.53 -50.15,49.01 -49.65,44.79 -49.45,42.98 -49.65,38.6 -50.25,31.64 -50.86,24.58 -51.14,20.89 -51.11,20.56 -51,19.79 -51.16,19.31 -51.56,19.11 H -52.16 L -52.36,16.12 -49.65,16.36 z"
                 style="fill:#3f2a20;fill-rule:evenodd" /><path
                 inkscape:connector-curvature="0"
                 id="polygon77"
                 d="M -49.85,19.16 -49.85,16.5 -44.26,16.4 -44.16,19.26 z"
                 style="fill:#4c3325;fill-rule:evenodd" /><path
                 inkscape:connector-curvature="0"
                 id="polygon79"
                 d="M -49.85,17.9 -49.85,16.45 -44.26,16.4 -44.16,17.95 z"
                 style="fill:#3f2820;fill-rule:evenodd" /><path
                 inkscape:connector-curvature="0"
                 id="path81"
                 d="M -47.2,56.39 H -48.65 C -48.92,49.85 -49.05,45.9 -49.05,44.55 L -49.15,32.46 -47.2,56.39 z"
                 style="fill:#754e34;fill-rule:evenodd" /><path
                 inkscape:connector-curvature="0"
                 id="path83"
                 d="M -43.75,29.65 -44.71,22.88 -43.46,29.94 C -42.59,34.84 -42.12,37.86 -42.06,38.99 -41.96,40.79 -41.96,42.6 -42.06,44.4 -42.42,41.6 -42.64,39.47 -42.71,38.02 -42.77,37.12 -43.12,34.33 -43.75,29.65 z"
                 style="fill:#754e34;fill-rule:evenodd" /><path
                 inkscape:connector-curvature="0"
                 id="path85"
                 d="M -45.33,39.52 -45.3,41.02 C -45.24,43.24 -45.12,44.95 -44.95,46.14 -44.69,48.11 -44.39,51.51 -44.05,56.35 -44.35,56.25 -44.66,54.7 -44.95,51.7 -45.22,49.06 -45.35,47.11 -45.35,45.85 L -45.33,39.52 z"
                 style="fill:#754e34;fill-rule:evenodd" /><path
                 inkscape:connector-curvature="0"
                 transform="translate(-100,-20)"
                 style="fill:#775135;fill-rule:evenodd"
                 d="M 49.99,23.01 61.7,33.07 0.047,33.07 11.75,23.01 z"
                 id="polygon87" /><path
                 inkscape:connector-curvature="0"
                 style="fill:#63432e;fill-rule:evenodd"
                 d="M -99.953003,13.07 -38.303001,13.07 -38.303001,16.6 -99.953003,16.6 z"
                 id="rect89" /><path
                 inkscape:connector-curvature="0"
                 transform="translate(-100,-20)"
                 style="fill:#593b2b;fill-rule:evenodd"
                 d="M 49.05,36.65 49.05,42.5 12.6,42.74 12.6,36.65 z"
                 id="polygon91" /><path
                 inkscape:connector-curvature="0"
                 transform="translate(-100,-20)"
                 style="fill:#4f3327;fill-rule:evenodd"
                 d="M 49.05,36.65 49.05,39.16 12.6,39.26 12.6,36.65 z"
                 id="polygon93" /><path
                 inkscape:connector-curvature="0"
                 transform="translate(-100,-20)"
                 style="fill:#3f2820;fill-rule:evenodd"
                 d="M 49.05,36.65 49.05,37.9 12.6,37.95 12.6,36.65 z"
                 id="polygon95" /><path
                 inkscape:connector-curvature="0"
                 transform="translate(-100,-20)"
                 style="fill:#38241e;fill-rule:evenodd"
                 d="M 13.05,68.27 12.75,41.58 48.74,41.58 48.74,68.51 z"
                 id="polygon97" /><path
                 inkscape:connector-curvature="0"
                 transform="translate(-100,-20)"
                 style="fill:#593b2b;fill-rule:evenodd"
                 d="M 12.6,70.06 12.3,48.25 48.74,48.25 48.74,70.25 z"
                 id="polygon99" /><path
                 inkscape:connector-curvature="0"
                 transform="translate(-100,-20)"
                 style="fill:#2d1c18;fill-rule:evenodd"
                 d="M 12.75,41.58 16.55,41.58 16.65,45.35 12.75,48.25 z"
                 id="polygon101" /><path
                 style="fill:#593b2b;fill-rule:evenodd"
                 d="M -62.35,13.79 C -54.22,13.57 -48.77,13.41 -46,13.31 L -38.3,13.07 -38.8,14.33 C -44.91,14.23 -50.8,14.33 -56.5,14.62 -64.6,15.03 -69.25,15.26 -70.45,15.29 -75.89,15.52 -79.84,15.53 -82.3,15.34 -84.67,15.15 -88.3,14.97 -93.203,14.81 L -99.852,14.62 -100.002,13.6 -78.7,14.04 C -77.14,14.1 -71.69,14.02 -62.35,13.79 z"
                 id="path103"
                 inkscape:connector-curvature="0" /><path
                 style="fill:#593b2b;fill-rule:evenodd"
                 d="M -38.3,16.65 H -99.953 L -99.852,14.67 -93.953,15.2 C -89.39,15.58 -85.5,15.84 -82.3,15.97 -77.2,16.16 -70.5,16.21 -62.2,16.12 L -56.8,15.63 C -52.91,15.31 -50.3,15.18 -49,15.25 -47.94,15.31 -46.07,15.39 -43.4,15.49 -41.24,15.58 -40.05,15.7 -39.85,15.83 L -38.3,16.65 z"
                 id="path105"
                 inkscape:connector-curvature="0" /><path
                 style="fill:#8e6042;fill-rule:evenodd"
                 d="M -40.2,11.47 -38.9,12.58 -99.953,13.07 -98.453,11.76 C -92.753,12.31 -82.92,12.49 -68.95,12.29 -55.89,12.13 -46.3,11.86 -40.2,11.47 z"
                 id="path107"
                 inkscape:connector-curvature="0" /><path
                 style="fill:#6d4a31;fill-rule:evenodd"
                 d="M -62.5,4.46 C -60.8,4.27 -56.27,4.09 -48.9,3.93 L -47.85,4.85 C -53.55,4.85 -57.29,4.91 -59.05,5.04 -59.35,5.07 -61.2,5.3 -64.6,5.72 -66.74,5.98 -68.29,6.04 -69.25,5.91 -69.32,5.91 -71.29,5.57 -75.15,4.9 -78.15,4.35 -80.19,4.11 -81.25,4.17 -82.55,4.27 -85.83,4.69 -91.102,5.43 L -89.7,4.22 C -84.94,3.7 -81.62,3.54 -79.75,3.73 -71.29,4.54 -65.54,4.78 -62.5,4.46 z"
                 id="path109"
                 inkscape:connector-curvature="0" /><path
                 style="fill:#6d4a31;fill-rule:evenodd"
                 d="M -74.55,7.12 C -71.05,7.47 -68.29,7.55 -66.25,7.36 L -46.6,5.91 -45,7.36 C -57.24,8.04 -64.12,8.38 -65.65,8.38 -67.42,8.38 -70.79,8.17 -75.75,7.75 -80.72,7.3 -83.6,7.07 -84.4,7.07 -85.64,7.07 -88.8,7.35 -93.904,7.89 L -92.404,6.54 C -87.94,6.12 -84.77,6.01 -82.9,6.2 -81.24,6.36 -78.45,6.67 -74.55,7.12 z"
                 id="path111"
                 inkscape:connector-curvature="0" /><path
                 style="fill:#6d4a31;fill-rule:evenodd"
                 d="M -63.7,9.25 -43.35,8.76 -42.1,9.83 C -54.64,9.83 -62.64,9.92 -66.1,10.12 -72.3,10.51 -78.3,10.7 -84.1,10.7 H -97.203 L -96.003,9.68 C -90.336,9.84 -86.07,9.89 -83.2,9.83 -78.4,9.73 -71.9,9.54 -63.7,9.25 z"
                 id="path113"
                 inkscape:connector-curvature="0" /><path
                 style="fill:#6d4a31;fill-rule:evenodd"
                 d="M -94.703,8.76 -91.803,8.28 C -89.57,7.99 -87.8,7.88 -86.5,7.94 -84.4,8.04 -81.75,8.18 -78.55,8.38 -82.25,8.76 -85.15,8.96 -87.25,8.96 L -94.703,8.76 z"
                 id="path115"
                 inkscape:connector-curvature="0" /><path
                 style="fill:#6d4a31;fill-rule:evenodd"
                 d="M -73.2,11.52 C -70.47,11.36 -68.2,11.28 -66.4,11.28 -63.5,11.28 -58.55,11.09 -51.55,10.7 -47.62,10.57 -44.05,10.64 -40.85,10.89 L -40.35,11.33 C -45.69,11.33 -48.67,11.31 -49.3,11.28 -50.57,11.22 -51.77,11.2 -52.9,11.23 -54.54,11.33 -56.09,11.39 -57.55,11.42 L -76.75,11.71 -73.2,11.52 z"
                 id="path117"
                 inkscape:connector-curvature="0" /><path
                 style="fill:#473026;fill-rule:evenodd"
                 d="M -87.55,29.8 -83.6,29.41 C -80.57,29.22 -78.09,29.19 -76.15,29.31 -73.79,29.51 -70.75,29.65 -67.05,29.75 -63.25,29.85 -60.59,29.83 -59.05,29.7 -56.95,29.54 -54.3,29.41 -51.1,29.31 L -51.55,30.62 H -88 L -87.55,29.8 z"
                 id="path119"
                 inkscape:connector-curvature="0" /><path
                 style="fill:#473026;fill-rule:evenodd"
                 d="M -87.7,32.75 -86.2,33.14 C -84.94,33.43 -83.59,33.64 -82.15,33.76 -80.92,33.86 -76.84,33.76 -69.9,33.47 -62.77,33.15 -58.7,33.01 -57.7,33.04 -55.4,33.14 -53.1,33.33 -50.8,33.62 L -51.25,34.78 C -54.25,34.1 -56.8,33.86 -58.9,34.05 -61.14,34.25 -65.14,34.52 -70.9,34.88 -77.44,35.23 -81.14,35.34 -82,35.21 L -88,34.2 -87.7,32.75 z"
                 id="path121"
                 inkscape:connector-curvature="0" /><path
                 style="fill:#473026;fill-rule:evenodd"
                 d="M -78.25,49.43 C -74.82,49.69 -68.82,49.69 -60.25,49.43 -57.15,49.33 -54.15,49.03 -51.25,48.51 V 50.25 L -88.15,49.72 -84.6,49.48 C -81.94,49.32 -79.82,49.3 -78.25,49.43 z"
                 id="path123"
                 inkscape:connector-curvature="0" /><path
                 style="fill:#473026;fill-rule:evenodd"
                 d="M -87.85,47.4 V 46.24 L -83.8,45.8 C -83.1,45.77 -79.17,45.96 -72,46.38 -64.77,46.83 -60.6,47.03 -59.5,46.96 -57.4,46.87 -54.65,46.24 -51.25,45.08 L -50.5,46.96 -54.4,47.4 C -55.97,47.56 -60.14,47.64 -66.9,47.64 -74.1,47.64 -78.74,47.51 -80.8,47.25 -82.67,47.03 -84.4,46.98 -86,47.11 L -87.85,47.4 z"
                 id="path125"
                 inkscape:connector-curvature="0" /><path
                 style="fill:#473026;fill-rule:evenodd"
                 d="M -87.55,44.35 V 43.19 L -81.7,43.05 C -80.7,43.05 -79.1,43.18 -76.9,43.44 -74.44,43.73 -72.64,43.89 -71.5,43.92 -70.04,43.98 -67.82,43.87 -64.85,43.58 -63.22,43.42 -61.04,43.19 -58.3,42.9 -56,42.71 -53.61,42.71 -51.11,42.9 L -50.96,44.5 C -52.96,44.21 -55.16,44.01 -57.56,43.92 -58.89,43.86 -61.11,43.98 -64.21,44.31 -67.47,44.63 -69.46,44.79 -70.16,44.79 -74.92,44.79 -78.57,44.6 -81.1,44.21 -82.3,44.02 -83.74,43.98 -85.41,44.11 L -87.55,44.35 z"
                 id="path127"
                 inkscape:connector-curvature="0" /><path
                 style="fill:#473026;fill-rule:evenodd"
                 d="M -87.7,41.02 -88,39.42 -77.21,38.84 C -76.24,38.78 -74.39,39.08 -71.66,39.76 -68.72,40.47 -66.87,40.84 -66.1,40.87 -64.97,40.94 -63.6,40.89 -62,40.73 -61.07,40.66 -59.59,40.52 -57.55,40.29 -55.45,40.1 -53.41,40.05 -51.41,40.14 L -51.26,41.45 C -51.86,41.26 -52.56,41.11 -53.36,41.02 -53.76,40.98 -55.09,41.06 -57.35,41.26 -60.12,41.55 -62.24,41.71 -63.71,41.74 -65.54,41.8 -67.71,41.66 -70.21,41.3 -72.91,40.82 -74.84,40.48 -76.01,40.29 -77.44,40.06 -79.82,40.11 -83.16,40.43 L -87.7,41.02 z"
                 id="path129"
                 inkscape:connector-curvature="0" /><path
                 style="fill:#473026;fill-rule:evenodd"
                 d="M -87.4,36.81 -82.15,36.71 C -78.32,36.68 -75.62,36.76 -74.05,36.96 -69.09,37.54 -65.39,37.78 -62.95,37.68 -60.35,37.58 -56.35,37.25 -50.95,36.67 L -51.4,37.97 C -56.3,38.55 -59.65,38.89 -61.45,38.99 -62.45,39.05 -64.79,38.87 -68.45,38.46 -72.59,37.97 -75.1,37.71 -76,37.68 -77.44,37.62 -79.79,37.7 -83.05,37.92 L -87.55,38.26 -87.4,36.81 z"
                 id="path131"
                 inkscape:connector-curvature="0" /><path
                 inkscape:connector-curvature="0"
                 transform="translate(-100,-20)"
                 style="fill:#775135;fill-rule:evenodd"
                 d="M 15.5,68.32 15.2,50.48 46.2,50.48 46.2,68.46 z"
                 id="polygon133" /><path
                 inkscape:connector-curvature="0"
                 transform="translate(-100,-20)"
                 style="fill:#63432e;fill-rule:evenodd"
                 d="M 16.75,67.25 16.55,51.44 44.75,51.44 44.75,67.4 z"
                 id="polygon135" /><path
                 inkscape:connector-curvature="0"
                 transform="translate(-100,-20)"
                 style="fill:#3f2a20;fill-rule:evenodd"
                 d="M 15.5,68.32 15.2,50.48 16.55,51.44 16.75,67.25 z"
                 id="polygon137" /><path
                 inkscape:connector-curvature="0"
                 transform="translate(-100,-20)"
                 style="fill:#3f2a20;fill-rule:evenodd"
                 d="M 44.75,51.44 46.2,50.48 46.2,68.46 44.75,67.4 z"
                 id="polygon139" /><path
                 inkscape:connector-curvature="0"
                 transform="translate(-100,-20)"
                 style="fill:#2b1b18;fill-rule:evenodd"
                 d="M 16.55,51.44 15.2,50.48 46.2,50.48 44.75,51.44 z"
                 id="polygon141" /><path
                 style="fill:#775135;fill-rule:evenodd"
                 d="M -83.45,31.44 H -55.25 L -55.3,33.42 C -55.77,33.1 -56.77,32.78 -58.3,32.46 -61.37,31.85 -65.55,31.57 -70.85,31.64 -75.09,31.7 -78.45,31.92 -80.95,32.31 L -83.45,32.84 V 31.44 z"
                 id="path143"
                 inkscape:connector-curvature="0" /><path
                 style="fill:#593b2b;fill-rule:evenodd"
                 d="M -83.55,33.52 -82.05,33.86 C -80.85,34.09 -79.82,34.2 -78.95,34.2 -78.22,34.2 -76.94,34.07 -75.1,33.81 -73.07,33.49 -71.5,33.3 -70.4,33.23 -68.14,33.07 -64.27,33.46 -58.8,34.39 L -55.25,34.83 -55.3,35.6 C -56.8,35.47 -58.12,35.33 -59.25,35.17 -61.25,34.88 -62.99,34.63 -64.45,34.44 -67.22,34.09 -69,33.97 -69.8,34.1 -71.6,34.39 -73.05,34.62 -74.15,34.78 -76.22,35.07 -77.55,35.2 -78.15,35.16 L -83.55,34.73 V 33.52 z"
                 id="path145"
                 inkscape:connector-curvature="0" /><path
                 style="fill:#593b2b;fill-rule:evenodd"
                 d="M -83.45,37.15 -81.3,37.63 C -79.64,37.92 -78.21,38.05 -77.01,38.02 -76.77,38.02 -74.54,37.68 -70.31,37 -66.74,36.42 -63.99,36.21 -62.06,36.37 -58.82,36.66 -56.51,37.02 -55.11,37.44 L -55.21,38.31 C -55.81,38.05 -56.57,37.81 -57.51,37.58 -59.41,37.16 -61.22,37.02 -62.96,37.15 -64.16,37.24 -66.71,37.65 -70.61,38.36 -73.97,38.97 -76.04,39.21 -76.81,39.08 L -83.66,38.11 -83.45,37.15 z"
                 id="path147"
                 inkscape:connector-curvature="0" /><path
                 style="fill:#593b2b;fill-rule:evenodd"
                 d="M -83.3,40.19 -81.55,39.9 C -80.15,39.78 -78.87,39.82 -77.7,40.05 -76.17,40.37 -74.34,40.61 -72.2,40.78 -69.87,40.97 -67.99,40.99 -66.55,40.82 -65.72,40.73 -64.45,40.42 -62.75,39.91 -61.39,39.45 -60.14,39.26 -59,39.33 -57,39.39 -55.59,39.54 -54.75,39.76 L -55.2,40.63 C -57.3,40.18 -58.84,40.07 -59.8,40.29 -61.14,40.65 -62.25,40.92 -63.16,41.11 -64.79,41.5 -65.96,41.7 -66.66,41.7 -67.69,41.7 -69.59,41.63 -72.35,41.5 -75.42,41.34 -77.39,41.2 -78.25,41.07 -79.05,40.94 -80.14,40.91 -81.5,40.97 L -83.3,41.16 V 40.19 z"
                 id="path149"
                 inkscape:connector-curvature="0" /><path
                 style="fill:#593b2b;fill-rule:evenodd"
                 d="M -83,43 -82.15,43.39 C -81.22,43.61 -79.74,43.66 -77.7,43.53 -76.74,43.47 -74.47,43.27 -70.9,42.95 -68.4,42.73 -66.5,42.63 -65.2,42.66 -60.7,42.86 -57.97,42.82 -57,42.57 -56.4,42.44 -55.77,42.4 -55.1,42.47 V 43.44 L -64.55,43.53 C -65.82,43.53 -68.24,43.74 -71.8,44.16 -75.24,44.58 -77.24,44.77 -77.8,44.74 -78.6,44.71 -79.75,44.55 -81.25,44.26 L -83.3,43.87 -83,43 z"
                 id="path151"
                 inkscape:connector-curvature="0" /><path
                 style="fill:#593b2b;fill-rule:evenodd"
                 d="M -83.3,45.71 -81.3,45.95 C -79.77,46.11 -78.49,46.14 -77.45,46.05 -76.62,45.98 -74.7,45.76 -71.7,45.37 -68.77,45.01 -66.57,44.89 -65.1,44.98 -62.7,45.11 -59.29,45.46 -54.85,46.04 L -55.2,47.01 C -60.37,46.3 -64.15,46.01 -66.55,46.14 -72.42,46.72 -75.84,47.01 -76.8,47.01 L -83.25,47.25 -83.3,45.71 z"
                 id="path153"
                 inkscape:connector-curvature="0" /><path
                 style="fill:url(#linearGradient3549);fill-rule:evenodd"
                 d="M -65.3,39.08 C -65.3,39.89 -65.6,40.57 -66.2,41.11 -66.84,41.69 -67.59,41.98 -68.45,41.98 -69.32,41.98 -70.07,41.69 -70.7,41.11 -71.3,40.57 -71.6,39.89 -71.6,39.08 -71.6,38.28 -71.3,37.58 -70.7,37 -70.07,36.42 -69.32,36.13 -68.45,36.13 -67.59,36.13 -66.84,36.42 -66.2,37 -65.6,37.58 -65.3,38.28 -65.3,39.08 z"
                 id="path162"
                 inkscape:connector-curvature="0" /><path
                 style="fill:#ad8759;fill-rule:evenodd"
                 d="M -65.5,38.36 C -65.5,39.07 -65.77,39.66 -66.3,40.15 -66.87,40.66 -67.54,40.92 -68.3,40.92 -69.04,40.92 -69.69,40.66 -70.25,40.15 -70.79,39.66 -71.05,39.07 -71.05,38.36 -71.05,37.65 -70.79,37.05 -70.25,36.57 -69.72,36.08 -69.07,35.84 -68.3,35.84 -67.54,35.84 -66.87,36.08 -66.3,36.57 -65.77,37.05 -65.5,37.65 -65.5,38.36 z"
                 id="path164"
                 inkscape:connector-curvature="0" /><path
                 style="fill:#bc9561;fill-rule:evenodd"
                 d="M -65.65,38.16 C -65.65,38.71 -65.87,39.18 -66.3,39.57 -66.74,39.95 -67.27,40.15 -67.9,40.15 -68.54,40.15 -69.07,39.95 -69.5,39.57 -69.94,39.18 -70.15,38.71 -70.15,38.16 -70.15,37.62 -69.94,37.17 -69.5,36.81 -69.07,36.42 -68.54,36.23 -67.9,36.23 -67.27,36.23 -66.74,36.42 -66.3,36.81 -65.87,37.17 -65.65,37.62 -65.65,38.16 z"
                 id="path166"
                 inkscape:connector-curvature="0" /><path
                 style="fill:#cca16d;fill-rule:evenodd"
                 d="M -66.2,37.78 C -66.2,38.13 -66.34,38.42 -66.6,38.65 -66.87,38.87 -67.19,38.99 -67.55,38.99 -67.92,38.99 -68.24,38.87 -68.5,38.65 -68.77,38.42 -68.9,38.13 -68.9,37.78 -68.9,37.42 -68.77,37.13 -68.5,36.91 -68.24,36.65 -67.92,36.52 -67.55,36.52 -67.19,36.52 -66.87,36.65 -66.6,36.91 -66.34,37.13 -66.2,37.42 -66.2,37.78 z"
                 id="path168"
                 inkscape:connector-curvature="0" /><path
                 style="fill:#e2b17d;fill-rule:evenodd"
                 d="M -66.2,37.34 C -66.2,37.89 -66.5,38.16 -67.1,38.16 -67.7,38.16 -68,37.89 -68,37.34 -68,37.12 -67.92,36.92 -67.75,36.76 -67.55,36.6 -67.34,36.52 -67.1,36.52 -66.87,36.52 -66.65,36.6 -66.45,36.76 -66.29,36.92 -66.2,37.12 -66.2,37.34 z"
                 id="path170"
                 inkscape:connector-curvature="0" /><path
                 inkscape:connector-curvature="0"
                 transform="translate(-100,-20)"
                 style="fill:#35231c;fill-rule:evenodd"
                 d="M 12.6,36.65 12.85,37.13 12.75,41.58 11.3,41.34 11.55,36.36 z"
                 id="polygon172" /><path
                 inkscape:connector-curvature="0"
                 transform="translate(-100,-20)"
                 style="fill:#35231c;fill-rule:evenodd"
                 d="M 49.05,36.65 50.15,36.5 50.45,42.64 48.74,41.58 z"
                 id="polygon174" /><path
                 inkscape:connector-curvature="0"
                 transform="translate(-100,-20)"
                 style="fill:#2d1c18;fill-rule:evenodd"
                 d="M 48.74,41.58 48.74,48.25 45.35,44.96 45.25,41.58 z"
                 id="polygon176" /><path
                 inkscape:connector-curvature="0"
                 transform="translate(-100,-20)"
                 style="fill:#231613;fill-rule:evenodd"
                 d="M 45.25,41.58 45.35,44.96 16.65,45.35 16.55,41.58 z"
                 id="polygon178" /></g><g
             transform="matrix(1,0,0,-1,16413.8,-16306.55)"
             id="price_x5F_tag_x5F_pt_1_"><g
                 id="g3165" /></g></g></svg>